{
.formatVersion = 3;
date = "2011-12-17 23:48:42 +0000";
familyName = Asul;
fontMaster = (
{
customParameters = (
{
name = typoAscender;
value = 949;
},
{
name = typoDescender;
value = -264;
},
{
name = typoLineGap;
value = 0;
},
{
name = winAscent;
value = 949;
},
{
name = winDescent;
value = 264;
},
{
name = hheaAscender;
value = 949;
},
{
name = hheaDescender;
value = -264;
},
{
name = hheaLineGap;
value = 0;
}
);
id = "58b1ce0d-85ae-4bf6-adce-557510bd0e95";
metricValues = (
{
},
{
pos = -50;
},
{
pos = 50;
},
{
pos = 800;
},
{
pos = -200;
},
{
pos = 700;
},
{
pos = 650;
},
{
},
{
pos = 140;
},
{
pos = 700;
},
{
pos = 650;
},
{
},
{
pos = 477;
},
{
pos = 50;
},
{
pos = 250;
}
);
name = Regular;
visible = 1;
}
);
glyphs = (
{
category = Letter;
glyphname = exclam;
layers = (
{
layerId = "58b1ce0d-85ae-4bf6-adce-557510bd0e95";
name = Fore;
shapes = (
{
closed = 1;
nodes = (
(99,175,o),
(99,220,q),
(99,265,o),
(97,355,q),
(95,445,o),
(94,475,q),
(93,505,o),
(92,524.5,q),
(91,544,o),
(90,558.5,q),
(89,573,o),
(88,588,q),
(81,658,o),
(50,680,q),
(50,690,l),
(187,714,l),
(193,704,l),
(187,659,o),
(169,180,q),
(98,167,l)
);
},
{
closed = 1;
nodes = (
(204,16,o),
(204,12,q),
(196,4,l),
(145,-9,o),
(112,-11,q),
(102,-7,l),
(89,21,o),
(89,59,q),
(89,64,o),
(89,69,q),
(97,77,l),
(144,92,o),
(179,92,q),
(183,92,o),
(192,87,q),
(204,57,o),
(204,20,q)
);
}
);
width = 268;
}
);
unicode = 33;
},
{
category = Letter;
glyphname = quotedbl;
layers = (
{
layerId = "58b1ce0d-85ae-4bf6-adce-557510bd0e95";
name = Fore;
shapes = (
{
closed = 1;
nodes = (
(192,688,o),
(192,656,q),
(192,624,o),
(181,537,q),
(170,450,o),
(159,427,q),
(131,427,l),
(120,450,o),
(110,533.5,q),
(100,617,o),
(100,650,q),
(100,683,o),
(107,693,q),
(116,699,l),
(132,703,o),
(143,703,q),
(157,703,o),
(177,699,q),
(184,694,l)
);
},
{
closed = 1;
nodes = (
(372,688,o),
(372,656,q),
(372,624,o),
(361,537,q),
(350,450,o),
(339,427,q),
(311,427,l),
(300,450,o),
(290,533.5,q),
(280,617,o),
(280,650,q),
(280,683,o),
(287,693,q),
(296,699,l),
(312,703,o),
(323,703,q),
(337,703,o),
(357,699,q),
(364,694,l)
);
}
);
width = 471;
}
);
unicode = 34;
},
{
category = Letter;
glyphname = numbersign;
layers = (
{
layerId = "58b1ce0d-85ae-4bf6-adce-557510bd0e95";
name = Fore;
shapes = (
{
closed = 1;
nodes = (
(396,216,l),
(386,137,o),
(370,0,q),
(293,-6,l),
(292,0,l),
(309,57,o),
(337,216,q),
(191,216,l),
(181,137,o),
(165,0,q),
(88,-6,l),
(87,0,l),
(104,57,o),
(132,216,q),
(2,216,l),
(19,288,l),
(145,288,l),
(154,333,o),
(165,410,q),
(29,410,l),
(46,482,l),
(176,482,l),
(202,688,l),
(277,706,l),
(278,700,l),
(259,626,o),
(235,482,q),
(381,482,l),
(407,688,l),
(482,706,l),
(483,700,l),
(464,626,o),
(440,482,q),
(556,482,l),
(545,410,l),
(428,410,l),
(408,288,l),
(531,288,l),
(516,216,l)
);
},
{
closed = 1;
nodes = (
(203,288,l),
(350,288,l),
(359,333,o),
(370,410,q),
(223,410,l)
);
}
);
width = 573;
}
);
unicode = 35;
},
{
category = Letter;
glyphname = dollar;
layers = (
{
layerId = "58b1ce0d-85ae-4bf6-adce-557510bd0e95";
name = Fore;
shapes = (
{
closed = 1;
nodes = (
(500,9,o),
(303,-9,q),
(303,-71,o),
(307,-115,q),
(248,-131,l),
(244,-124,l),
(253,-63,o),
(254,-11,q),
(136,-8,o),
(54,48,q),
(57,108,o),
(90,153,q),
(161,75,o),
(255,57,q),
(255,335,l),
(217,352,o),
(199.5,360,q),
(182,368,o),
(151.5,387,q),
(121,406,o),
(107,423,q),
(69,469,o),
(69,526,q),
(69,613,o),
(120,658,q),
(171,703,o),
(255,710,q),
(253,762,o),
(251,792,q),
(306,818,l),
(310,811,l),
(303,758,o),
(303,712,q),
(392,707,o),
(482,666,q),
(471,616,o),
(446,569,q),
(378,627,o),
(303,646,q),
(303,410,l),
(343,392,o),
(361,383.5,q),
(379,375,o),
(411.5,354.5,q),
(444,334,o),
(459,316,q),
(474,298,o),
(487,268.5,q),
(500,239,o),
(500,205,q)
);
},
{
closed = 1;
nodes = (
(415,110,o),
(415,166,q),
(415,222,o),
(386,254,q),
(357,286,o),
(303,313,q),
(303,53,l),
(352,53,o),
(389,77,q)
);
},
{
closed = 1;
nodes = (
(147,608,o),
(147,561.5,q),
(147,515,o),
(175,486,q),
(203,457,o),
(255,431,q),
(255,653,l),
(252,653,l),
(199,653,o),
(169,636,q)
);
}
);
width = 560;
}
);
unicode = 36;
},
{
category = Letter;
glyphname = percent;
layers = (
{
layerId = "58b1ce0d-85ae-4bf6-adce-557510bd0e95";
name = Fore;
shapes = (
{
closed = 1;
nodes = (
(636,720,l),
(635,714,l),
(593,654,o),
(490,481.5,q),
(387,309,o),
(341,226,q),
(214,-11,l),
(129,-19,l),
(130,-13,l),
(171,46,o),
(272.5,218,q),
(374,390,o),
(424,479,q),
(552,716,l)
);
},
{
closed = 1;
nodes = (
(26,423,o),
(26,514,q),
(26,605,o),
(69.5,658.5,q),
(113,712,o),
(182,712,q),
(251,712,o),
(286,658,q),
(321,604,o),
(321,517,q),
(321,430,o),
(281,371,q),
(241,312,o),
(173,312,q),
(105,312,o),
(65.5,367.5,q)
);
},
{
closed = 1;
nodes = (
(243,654,o),
(168,654,q),
(139,654,o),
(126,639,q),
(104,602,o),
(104,531,q),
(104,367,o),
(186,367,q),
(210,367,o),
(221,384,q),
(243,412,o),
(243,503,q)
);
},
{
closed = 1;
nodes = (
(444,99,o),
(444,190,q),
(444,281,o),
(487.5,334.5,q),
(531,388,o),
(600,388,q),
(669,388,o),
(704,334,q),
(739,280,o),
(739,193,q),
(739,106,o),
(699,47,q),
(659,-12,o),
(591,-12,q),
(523,-12,o),
(483.5,43.5,q)
);
},
{
closed = 1;
nodes = (
(661,330,o),
(586,330,q),
(557,330,o),
(544,315,q),
(522,278,o),
(522,207,q),
(522,46,o),
(604,46,q),
(628,46,o),
(639,63,q),
(661,91,o),
(661,179,q)
);
}
);
width = 778;
}
);
unicode = 37;
},
{
category = Letter;
glyphname = ampersand;
layers = (
{
layerId = "58b1ce0d-85ae-4bf6-adce-557510bd0e95";
name = Fore;
shapes = (
{
closed = 1;
nodes = (
(599,402,l),
(603,358,o),
(603,322,q),
(603,224,o),
(571,154,q),
(663,91,o),
(777,32,q),
(711,-57,l),
(635,5,o),
(602,28,q),
(529,85,l),
(447,-12,o),
(298,-12,q),
(169,-12,o),
(104.5,52,q),
(40,116,o),
(40,218,q),
(40,267,o),
(55,306,q),
(70,345,o),
(93,366,q),
(134,403,o),
(173,414,q),
(108,499,o),
(108,575,q),
(108,711,o),
(287,711,q),
(385,711,o),
(472,682,q),
(465,619,o),
(435,580,q),
(346,655,o),
(280,655,q),
(236,655,o),
(211.5,630.5,q),
(187,606,o),
(187,559,q),
(187,467,o),
(375,306,q),
(446,244,o),
(522,189,q),
(532,236,o),
(532,290.5,q),
(532,345,o),
(513,405,q),
(407,403,l),
(447,461,l),
(523,454,o),
(558,454,q),
(693,460,l),
(666,402,l)
);
},
{
closed = 1;
nodes = (
(287,283,o),
(202,380,q),
(136,335,o),
(136,238,q),
(136,161,o),
(183,107,q),
(230,53,o),
(325,53,q),
(440,53,o),
(490,117,q)
);
}
);
width = 773;
}
);
unicode = 38;
},
{
category = Letter;
glyphname = quotesingle;
layers = (
{
layerId = "58b1ce0d-85ae-4bf6-adce-557510bd0e95";
name = Fore;
shapes = (
{
closed = 1;
nodes = (
(187,688,o),
(187,656,q),
(187,624,o),
(176,537,q),
(165,450,o),
(154,427,q),
(126,427,l),
(115,450,o),
(105,533.5,q),
(95,617,o),
(95,650,q),
(95,683,o),
(102,693,q),
(111,699,l),
(127,703,o),
(138,703,q),
(152,703,o),
(172,699,q),
(179,694,l)
);
}
);
width = 281;
}
);
unicode = 39;
},
{
category = Letter;
glyphname = parenleft;
layers = (
{
layerId = "58b1ce0d-85ae-4bf6-adce-557510bd0e95";
name = Fore;
shapes = (
{
closed = 1;
nodes = (
(360,-166,o),
(351,-173,q),
(238,-133,o),
(159,-22,q),
(119,34,o),
(96,114.5,q),
(73,195,o),
(73,291,q),
(73,554,o),
(232,688,q),
(288,734,o),
(351,757,q),
(355,754,l),
(367,724,o),
(368,719,q),
(250,667,o),
(205,547,q),
(165,440,o),
(165,271.5,q),
(165,103,o),
(212.5,8,q),
(260,-87,o),
(368,-135,q)
);
}
);
width = 400;
}
);
unicode = 40;
},
{
category = Letter;
glyphname = parenright;
layers = (
{
layerId = "58b1ce0d-85ae-4bf6-adce-557510bd0e95";
name = Fore;
shapes = (
{
closed = 1;
nodes = (
(327,195,o),
(304,114.5,q),
(281,34,o),
(241,-22,q),
(162,-133,o),
(49,-173,q),
(40,-166,o),
(32,-135,q),
(140,-87,o),
(187.5,8,q),
(235,103,o),
(235,283,q),
(235,540,o),
(132,650,q),
(91,693,o),
(32,719,q),
(33,724,o),
(45,754,q),
(49,757,l),
(112,734,o),
(168,688,q),
(327,554,o),
(327,291,q)
);
}
);
width = 400;
}
);
unicode = 41;
},
{
category = Letter;
glyphname = asterisk;
layers = (
{
layerId = "58b1ce0d-85ae-4bf6-adce-557510bd0e95";
name = Fore;
shapes = (
{
closed = 1;
nodes = (
(38,484,l),
(37,573,l),
(44,574,l),
(87,561,o),
(170,555,q),
(127,614,o),
(89,646,q),
(86,653,l),
(162,700,l),
(168,695,l),
(182,625,o),
(209,569,q),
(253,645,o),
(264,695,q),
(269,700,l),
(345,653,l),
(344,646,l),
(305,621,o),
(246,553,q),
(337,562,o),
(375,574,q),
(382,573,l),
(381,482,l),
(374,480,l),
(322,503,o),
(244,512,q),
(295,448,o),
(342,416,q),
(345,409,l),
(269,361,l),
(264,366,l),
(256,407,o),
(209,490,q),
(180,427,o),
(168,367,q),
(162,361,l),
(87,408,l),
(89,415,l),
(136,456,o),
(174,511,q),
(88,501,o),
(45,481,q)
);
}
);
width = 419;
}
);
unicode = 42;
},
{
category = Letter;
glyphname = plus;
layers = (
{
layerId = "58b1ce0d-85ae-4bf6-adce-557510bd0e95";
name = Fore;
shapes = (
{
closed = 1;
nodes = (
(558,358,l),
(557,292,l),
(330,292,l),
(330,64,l),
(262,64,l),
(262,292,l),
(42,292,l),
(43,359,l),
(262,358,l),
(263,578,l),
(330,577,l),
(330,358,l)
);
}
);
width = 600;
}
);
unicode = 43;
},
{
category = Letter;
glyphname = comma;
layers = (
{
layerId = "58b1ce0d-85ae-4bf6-adce-557510bd0e95";
name = Fore;
shapes = (
{
closed = 1;
nodes = (
(197,89,o),
(197,32.5,q),
(197,-24,o),
(167.5,-73,q),
(138,-122,o),
(84,-180,q),
(32,-159,l),
(66,-107,o),
(81,-71,q),
(96,-35,o),
(96,6,q),
(96,47,o),
(73,86,q),
(75,92,o),
(79,96,q),
(120,113,o),
(163,113,q),
(169,113,o),
(174,112,q)
);
}
);
width = 277;
}
);
unicode = 44;
},
{
category = Letter;
glyphname = hyphen;
layers = (
{
layerId = "58b1ce0d-85ae-4bf6-adce-557510bd0e95";
name = Fore;
shapes = (
{
closed = 1;
nodes = (
(78,314,o),
(128,314,q),
(214,315,l),
(236,315,o),
(282.5,317,q),
(329,319,o),
(353,319,q),
(323,241,l),
(316,241,l),
(248,250,o),
(135,250,q),
(1,244,l),
(31,323,l),
(38,323,l)
);
}
);
width = 354;
}
);
unicode = 45;
},
{
category = Letter;
glyphname = period;
layers = (
{
layerId = "58b1ce0d-85ae-4bf6-adce-557510bd0e95";
name = Fore;
shapes = (
{
closed = 1;
nodes = (
(241,92,o),
(241,41,q),
(241,28,o),
(239,17,q),
(229,9,l),
(180,-6,o),
(119,-10,q),
(108,-5,l),
(91,27,o),
(91,76,q),
(91,81,o),
(91,86,q),
(101,95,l),
(154,114,o),
(204,114,q),
(209,114,o),
(214,114,q),
(225,108,l)
);
}
);
width = 311;
}
);
unicode = 46;
},
{
category = Letter;
glyphname = slash;
layers = (
{
layerId = "58b1ce0d-85ae-4bf6-adce-557510bd0e95";
name = Fore;
shapes = (
{
closed = 1;
nodes = (
(361,734,l),
(361,728,l),
(292,592,o),
(95,41,q),
(88,21,o),
(74,-23,q),
(60,-67,o),
(52,-91,q),
(-46,-118,l),
(-46,-112,l),
(-16,-53,o),
(70.5,166,q),
(157,385,o),
(191,479,q),
(273,716,l)
);
}
);
width = 329;
}
);
unicode = 47;
},
{
category = Letter;
glyphname = zero;
layers = (
{
layerId = "58b1ce0d-85ae-4bf6-adce-557510bd0e95";
name = Fore;
shapes = (
{
closed = 1;
nodes = (
(70,190,o),
(70,355.5,q),
(70,521,o),
(149,617.5,q),
(228,714,o),
(353,714,q),
(478,714,o),
(541.5,616,q),
(605,518,o),
(605,359.5,q),
(605,201,o),
(533,94.5,q),
(461,-12,o),
(347,-12,q),
(213,-12,o),
(141.5,89,q)
);
},
{
closed = 1;
nodes = (
(499,643,o),
(328,643,q),
(297,643,o),
(268.5,633.5,q),
(240,624,o),
(228,612,q),
(206,581,o),
(191,514,q),
(176,447,o),
(176,383,q),
(176,319,o),
(184.5,264.5,q),
(193,210,o),
(213,162,q),
(233,114,o),
(270.5,86.5,q),
(308,59,o),
(360,59,q),
(378,59,o),
(405.5,68,q),
(433,77,o),
(446,92,q),
(471,120,o),
(485,191,q),
(499,262,o),
(499,334,q)
);
}
);
width = 675;
}
);
unicode = 48;
},
{
category = Letter;
glyphname = one;
layers = (
{
layerId = "58b1ce0d-85ae-4bf6-adce-557510bd0e95";
name = Fore;
shapes = (
{
closed = 1;
nodes = (
(251,210,l),
(251,65,o),
(266,7,q),
(266,0,l),
(140,0,l),
(140,7,l),
(155,65,o),
(155,210,q),
(155,509,l),
(155,582,o),
(152,607,q),
(84,592,o),
(28,589,q),
(20,634,l),
(116,651,o),
(183,700,q),
(255,700,l),
(251,587,l)
);
}
);
width = 374;
}
);
unicode = 49;
},
{
category = Letter;
glyphname = two;
layers = (
{
layerId = "58b1ce0d-85ae-4bf6-adce-557510bd0e95";
name = Fore;
shapes = (
{
closed = 1;
nodes = (
(345,650,o),
(254,650,q),
(186,650,o),
(84,562,q),
(50,603,o),
(45,664,q),
(159,712,o),
(255.5,712,q),
(352,712,o),
(401.5,670,q),
(451,628,o),
(451,554,q),
(451,445,o),
(344,304,q),
(290,233,o),
(251,188,q),
(212,143,o),
(144,71,q),
(220,71,o),
(250,72,q),
(427,78,o),
(478,122,q),
(487,115,l),
(446,0,l),
(58,0,l),
(39,49,l),
(219,242,o),
(278,344,q),
(345,459,o),
(345,547,q)
);
}
);
width = 528;
}
);
unicode = 50;
},
{
category = Letter;
glyphname = three;
layers = (
{
layerId = "58b1ce0d-85ae-4bf6-adce-557510bd0e95";
name = Fore;
shapes = (
{
closed = 1;
nodes = (
(332,-11,o),
(220.5,-11,q),
(109,-11,o),
(19,40,q),
(19,44,o),
(19,47,q),
(19,95,o),
(45,124,q),
(142,50,o),
(222,50,q),
(283,50,o),
(312,69,q),
(358,113,o),
(358,210,q),
(358,284,o),
(325.5,315,q),
(293,346,o),
(224,346,q),
(155,346,o),
(128,342,q),
(124,342,l),
(107,404,l),
(192,404,l),
(246,404,o),
(280,446,q),
(314,488,o),
(314,542,q),
(314,655,o),
(228,655,q),
(157,655,o),
(78,587,q),
(52,623,o),
(46,682,q),
(142,712,o),
(238,712,q),
(410,712,o),
(410,566,q),
(410,496,o),
(374.5,449.5,q),
(339,403,o),
(299,391,q),
(459,371,o),
(459,215,q),
(459,116,o),
(395.5,52.5,q)
);
}
);
width = 504;
}
);
unicode = 51;
},
{
category = Letter;
glyphname = four;
layers = (
{
layerId = "58b1ce0d-85ae-4bf6-adce-557510bd0e95";
name = Fore;
shapes = (
{
closed = 1;
nodes = (
(410,64,o),
(421,7,q),
(421,0,l),
(308,0,l),
(308,7,l),
(317,63,o),
(319,181,q),
(319,191,l),
(73,191,o),
(39,190,q),
(16,238,l),
(120,429,o),
(293,700,q),
(412,712,l),
(408,624,o),
(408,264,q),
(429,264,o),
(466,267,q),
(503,270,o),
(513,270,q),
(497,191,l),
(410,191,l)
);
},
{
closed = 1;
nodes = (
(321,630,l),
(146,345,o),
(100,259,q),
(108,259,o),
(321,262,q)
);
}
);
width = 566;
}
);
unicode = 52;
},
{
category = Letter;
glyphname = five;
layers = (
{
layerId = "58b1ce0d-85ae-4bf6-adce-557510bd0e95";
name = Fore;
shapes = (
{
closed = 1;
nodes = (
(385,628,o),
(251,632,q),
(201,632,l),
(187,585,o),
(158,425,q),
(289,417,o),
(329,408.5,q),
(369,400,o),
(409,380,q),
(490,340,o),
(490,224,q),
(490,123,o),
(422,55.5,q),
(354,-12,o),
(242,-12,q),
(130,-12,o),
(14,51,q),
(17,71,o),
(30.5,100,q),
(44,129,o),
(56,141,q),
(167,54,o),
(267,54,q),
(318,54,o),
(350,70,q),
(368,93,o),
(378.5,133.5,q),
(389,174,o),
(389,210,q),
(389,337,o),
(216,350,q),
(99,359,l),
(81,380,l),
(94,491,o),
(131,698,q),
(434,703,l),
(457,569,l),
(446,569,l)
);
}
);
width = 538;
}
);
unicode = 53;
},
{
category = Letter;
glyphname = six;
layers = (
{
layerId = "58b1ce0d-85ae-4bf6-adce-557510bd0e95";
name = Fore;
shapes = (
{
closed = 1;
nodes = (
(418,449,o),
(474,406,q),
(502,383,o),
(519.5,340,q),
(537,297,o),
(537,239,q),
(537,129,o),
(477,59,q),
(417,-11,o),
(307,-11,q),
(197,-11,o),
(133.5,60,q),
(70,131,o),
(70,279,q),
(70,563,o),
(324,677,q),
(386,705,o),
(437,712,q),
(447,667,l),
(327,630,o),
(266,558.5,q),
(205,487,o),
(184,380,q),
(253,449,o),
(348,449,q)
);
},
{
closed = 1;
nodes = (
(176,146,o),
(205.5,96.5,q),
(235,47,o),
(311,47,q),
(368,47,o),
(392,64,q),
(431,116,o),
(431,206.5,q),
(431,297,o),
(400,336,q),
(369,375,o),
(317,375,q),
(248,375,o),
(178,321,q),
(176,279,o),
(176,252,q)
);
}
);
width = 594;
}
);
unicode = 54;
},
{
category = Letter;
glyphname = seven;
layers = (
{
layerId = "58b1ce0d-85ae-4bf6-adce-557510bd0e95";
name = Fore;
shapes = (
{
closed = 1;
nodes = (
(449,701,l),
(450,697,l),
(429,657,o),
(333.5,393.5,q),
(238,130,o),
(217,-3,q),
(75,-3,l),
(74,4,l),
(225,277,o),
(355,626,q),
(313,630,o),
(259,630,q),
(116,630,o),
(57,571,q),
(46,571,l),
(21,703,l),
(135,700,o),
(221,700,q)
);
}
);
width = 443;
}
);
unicode = 55;
},
{
category = Letter;
glyphname = eight;
layers = (
{
layerId = "58b1ce0d-85ae-4bf6-adce-557510bd0e95";
name = Fore;
shapes = (
{
closed = 1;
nodes = (
(397,661,o),
(287,661,q),
(248,661,o),
(218,647,q),
(185,615,o),
(185,551,q),
(185,509,o),
(214,476.5,q),
(243,444,o),
(328,398,q),
(397,448,o),
(397,542,q)
);
},
{
closed = 1;
nodes = (
(158,56,o),
(293,56,q),
(347,56,o),
(377,69,q),
(416,99,o),
(416,163,q),
(416,209,o),
(381,244,q),
(346,279,o),
(250,331,q),
(158,291,o),
(158,191,q)
);
},
{
closed = 1;
nodes = (
(522,90,o),
(455.5,39,q),
(389,-12,o),
(287.5,-12,q),
(186,-12,o),
(119,37.5,q),
(52,87,o),
(52,179,q),
(52,253,o),
(94,297.5,q),
(136,342,o),
(198,363,q),
(143,400,o),
(117,438.5,q),
(91,477,o),
(91,534,q),
(91,620,o),
(146,666,q),
(201,712,o),
(290.5,712,q),
(380,712,o),
(435.5,672.5,q),
(491,633,o),
(491,548,q),
(491,482,o),
(459.5,441,q),
(428,400,o),
(376,367,q),
(457,317,o),
(489.5,279.5,q),
(522,242,o),
(522,181,q)
);
}
);
width = 574;
}
);
unicode = 56;
},
{
category = Letter;
glyphname = nine;
layers = (
{
layerId = "58b1ce0d-85ae-4bf6-adce-557510bd0e95";
name = Fore;
shapes = (
{
closed = 1;
nodes = (
(92,304,o),
(75,348.5,q),
(58,393,o),
(58,453,q),
(58,569,o),
(119,640,q),
(180,711,o),
(289,711,q),
(398,711,o),
(461.5,638.5,q),
(525,566,o),
(525,413,q),
(525,184,o),
(378,71,q),
(297,9,o),
(160,-11,q),
(148,33,l),
(198,42,o),
(248,69,q),
(298,96,o),
(335.5,139.5,q),
(373,183,o),
(405,288,q),
(335,236,o),
(255.5,236,q),
(176,236,o),
(121,280,q)
);
},
{
closed = 1;
nodes = (
(419,551,o),
(389.5,601,q),
(360,651,o),
(284,651,q),
(226,651,o),
(203,633,q),
(164,579,o),
(164,485,q),
(164,391,o),
(196.5,351.5,q),
(229,312,o),
(290,312,q),
(351,312,o),
(414,348,q),
(419,396,o),
(419,443,q)
);
}
);
width = 595;
}
);
unicode = 57;
},
{
category = Letter;
glyphname = colon;
layers = (
{
layerId = "58b1ce0d-85ae-4bf6-adce-557510bd0e95";
name = Fore;
shapes = (
{
closed = 1;
nodes = (
(229,442,o),
(229,394,q),
(229,382,o),
(228,373,q),
(219,364,l),
(169,351,o),
(117,347,q),
(106,352,l),
(91,382,o),
(91,425,q),
(91,431,o),
(91,436,q),
(100,445,l),
(154,462,o),
(199,462,q),
(204,462,o),
(214,456,q)
);
},
{
closed = 1;
nodes = (
(247,85,o),
(247,37,q),
(247,25,o),
(246,16,q),
(237,7,l),
(187,-6,o),
(135,-10,q),
(124,-5,l),
(109,25,o),
(109,68,q),
(109,74,o),
(109,79,q),
(118,88,l),
(172,105,o),
(217,105,q),
(222,105,o),
(232,99,q)
);
}
);
width = 333;
}
);
unicode = 58;
},
{
category = Letter;
glyphname = semicolon;
layers = (
{
layerId = "58b1ce0d-85ae-4bf6-adce-557510bd0e95";
name = Fore;
shapes = (
{
closed = 1;
nodes = (
(179,-89,o),
(160,-113,q),
(141,-137,o),
(104,-180,q),
(52,-159,l),
(54,-155,o),
(64,-139.5,q),
(74,-124,o),
(76,-120.5,q),
(78,-117,o),
(85.5,-104.5,q),
(93,-92,o),
(94.5,-87.5,q),
(96,-83,o),
(100.5,-71.5,q),
(105,-60,o),
(106,-52.5,q),
(107,-45,o),
(110,-33,q),
(113,-16,o),
(113,13,q),
(113,42,o),
(93,86,q),
(99,96,l),
(140,113,o),
(183,113,q),
(189,113,o),
(194,112,q),
(217,89,o),
(217,41,q),
(217,-7,o),
(198,-48,q)
);
},
{
closed = 1;
nodes = (
(197,437,o),
(197,389,q),
(197,377,o),
(196,368,q),
(187,359,l),
(137,346,o),
(85,342,q),
(74,347,l),
(59,377,o),
(59,420,q),
(59,426,o),
(59,431,q),
(68,440,l),
(122,457,o),
(167,457,q),
(172,457,o),
(182,451,q)
);
}
);
width = 315;
}
);
unicode = 59;
},
{
category = Letter;
glyphname = less;
layers = (
{
layerId = "58b1ce0d-85ae-4bf6-adce-557510bd0e95";
name = Fore;
shapes = (
{
closed = 1;
nodes = (
(526,45,l),
(10,287,l),
(10,357,l),
(526,600,l),
(526,529,l),
(92,322,l),
(526,115,l)
);
}
);
width = 536;
}
);
unicode = 60;
},
{
category = Letter;
glyphname = equal;
layers = (
{
layerId = "58b1ce0d-85ae-4bf6-adce-557510bd0e95";
name = Fore;
shapes = (
{
closed = 1;
nodes = (
(525,380,l),
(10,380,l),
(11,447,l),
(526,446,l)
);
},
{
closed = 1;
nodes = (
(525,213,l),
(10,213,l),
(11,280,l),
(526,279,l)
);
}
);
width = 536;
}
);
unicode = 61;
},
{
category = Letter;
glyphname = greater;
layers = (
{
layerId = "58b1ce0d-85ae-4bf6-adce-557510bd0e95";
name = Fore;
shapes = (
{
closed = 1;
nodes = (
(9,115,l),
(443,322,l),
(9,529,l),
(9,600,l),
(525,357,l),
(525,287,l),
(9,45,l)
);
}
);
width = 534;
}
);
unicode = 62;
},
{
category = Letter;
glyphname = question;
layers = (
{
layerId = "58b1ce0d-85ae-4bf6-adce-557510bd0e95";
name = Fore;
shapes = (
{
closed = 1;
nodes = (
(297,634,o),
(203,634,q),
(138,634,o),
(69,577,q),
(45,620,o),
(45,673,q),
(45,679,o),
(45,685,q),
(118,712,o),
(206,712,q),
(294,712,o),
(343.5,671,q),
(393,630,o),
(393,548,q),
(393,499,o),
(373.5,453.5,q),
(354,408,o),
(329.5,379,q),
(305,350,o),
(273,325,q),
(229,291,o),
(199,277,q),
(199,272,o),
(199,254,q),
(199,236,o),
(210,200,q),
(210,193,l),
(190,189,o),
(167,189,q),
(144,189,o),
(120,193,q),
(120,200,l),
(131,247,o),
(131,266,q),
(131,285,o),
(130,291,q),
(142,300,l),
(206,345,o),
(251.5,407.5,q),
(297,470,o),
(297,534,q)
);
},
{
closed = 1;
nodes = (
(225,72,o),
(225,28,q),
(225,18,o),
(224,10,q),
(216,2,l),
(182,-8,o),
(140,-11,q),
(130,-7,l),
(118,18,o),
(118,37,q),
(118,56,o),
(120,68,q),
(128,76,l),
(161,87,o),
(203,90,q),
(212,85,l)
);
}
);
width = 430;
}
);
unicode = 63;
},
{
category = Letter;
glyphname = at;
layers = (
{
layerId = "58b1ce0d-85ae-4bf6-adce-557510bd0e95";
name = Fore;
shapes = (
{
closed = 1;
nodes = (
(242,-43,o),
(138.5,54,q),
(35,151,o),
(35,318,q),
(35,485,o),
(140,599,q),
(245,713,o),
(426,713,q),
(588,713,o),
(678.5,622,q),
(769,531,o),
(769,410,q),
(769,289,o),
(699,210.5,q),
(629,132,o),
(537,132,q),
(445,132,o),
(445,214,q),
(445,238,o),
(449,261,q),
(446,260,l),
(341,132,o),
(270,132,q),
(205,132,o),
(205,241,q),
(205,316,o),
(234,386,q),
(263,456,o),
(327,505.5,q),
(391,555,o),
(478,555,q),
(544,555,o),
(584,541,q),
(516,295,l),
(506,259,o),
(506,229,q),
(506,185,o),
(546,185,q),
(611,185,o),
(658,249.5,q),
(705,314,o),
(705,392,q),
(705,470,o),
(673,522.5,q),
(641,575,o),
(592,602,q),
(493,657,o),
(394,657,q),
(332,657,o),
(275,637,q),
(119,542,o),
(119,336,q),
(119,177,o),
(201.5,94.5,q),
(284,12,o),
(405,12,q),
(496,12,o),
(596,64,q),
(617,31,l),
(514,-43,o),
(389,-43,q)
);
},
{
closed = 1;
nodes = (
(476,508,o),
(440,508,q),
(404,508,o),
(373,495,q),
(323,432,o),
(301,342,q),
(288,290,o),
(288,253,q),
(288,201,o),
(317,201,q),
(341,201,o),
(397,255,q),
(453,309,o),
(463,355,q),
(498,495,l)
);
}
);
width = 806;
}
);
unicode = 64;
},
{
category = Letter;
glyphname = A;
layers = (
{
layerId = "58b1ce0d-85ae-4bf6-adce-557510bd0e95";
name = Fore;
shapes = (
{
closed = 1;
nodes = (
(188,245,o),
(150,244,q),
(122,132,o),
(115.5,95.5,q),
(109,59,o),
(109,17,q),
(109,0,l),
(-27,0,l),
(-27,10,l),
(18,45,o),
(93.5,287.5,q),
(169,530,o),
(191.5,605,q),
(214,680,o),
(216,701,q),
(333,713,l),
(333,678,o),
(396,494.5,q),
(459,311,o),
(497.5,211,q),
(536,111,o),
(557,72,q),
(578,33,o),
(604,10,q),
(604,0,l),
(436,0,l),
(436,17,l),
(436,53,o),
(426.5,84,q),
(417,115,o),
(414,124,q),
(374,244,l),
(334,245,o),
(261,245,q)
);
},
{
closed = 1;
nodes = (
(238,573,o),
(162,301,q),
(357,301,l),
(339,356,o),
(304,474,q),
(269,592,o),
(258,626,q)
);
}
);
width = 573;
}
);
unicode = 65;
},
{
category = Letter;
glyphname = B;
layers = (
{
layerId = "58b1ce0d-85ae-4bf6-adce-557510bd0e95";
name = Fore;
shapes = (
{
closed = 1;
nodes = (
(384,52,o),
(432,95.5,q),
(480,139,o),
(480,211,q),
(480,283,o),
(433.5,320,q),
(387,357,o),
(279,359,q),
(230,360,l),
(230,110,o),
(234,61,q),
(264,52,o),
(306,52,q)
);
},
{
closed = 1;
nodes = (
(309,411,l),
(445,411,o),
(445,532,q),
(445,595,o),
(411.5,623.5,q),
(378,652,o),
(320.5,652,q),
(263,652,o),
(232,649,q),
(230,634,o),
(230,411,q)
);
},
{
closed = 1;
nodes = (
(332,700,l),
(546,700,o),
(546,560,q),
(546,504,o),
(518,464.5,q),
(490,425,o),
(449,403,q),
(492,395,o),
(536,360,q),
(562,341,o),
(577.5,304,q),
(593,267,o),
(593,218,q),
(593,143,o),
(557,93,q),
(521,43,o),
(463.5,20.5,q),
(406,-2,o),
(320,-2,q),
(201,3,l),
(108,0,l),
(108,7,l),
(127,58,o),
(127,150,q),
(127,540,l),
(127,640,o),
(111,693,q),
(111,700,l),
(170,698,l)
);
}
);
width = 660;
}
);
unicode = 66;
},
{
category = Letter;
glyphname = C;
layers = (
{
layerId = "58b1ce0d-85ae-4bf6-adce-557510bd0e95";
name = Fore;
shapes = (
{
closed = 1;
nodes = (
(162,231,o),
(231.5,151,q),
(301,71,o),
(404,71,q),
(479,71,o),
(603,139,q),
(630,98,l),
(584,64,o),
(558.5,49,q),
(533,34,o),
(501,18,q),
(436,-13,o),
(362,-13,q),
(232,-13,o),
(140.5,84,q),
(49,181,o),
(49,344,q),
(49,507,o),
(155,609.5,q),
(261,712,o),
(418,712,q),
(523,712,o),
(615,664,q),
(603,601,o),
(573,558,q),
(470,641,o),
(350,641,q),
(314,641,o),
(280,634,q),
(229,596,o),
(195.5,531,q),
(162,466,o),
(162,375,q)
);
}
);
width = 658;
}
);
unicode = 67;
},
{
category = Letter;
glyphname = D;
layers = (
{
layerId = "58b1ce0d-85ae-4bf6-adce-557510bd0e95";
name = Fore;
shapes = (
{
closed = 1;
nodes = (
(351,701,o),
(354,701,q),
(531,701,o),
(618,620.5,q),
(705,540,o),
(705,373,q),
(705,268,o),
(672,186,q),
(597,0,o),
(357,0,q),
(167,1,l),
(108,1,l),
(108,8,l),
(124,70,o),
(124,211,q),
(124,490,l),
(124,631,o),
(108,693,q),
(108,700,l),
(166,698,l)
);
},
{
closed = 1;
nodes = (
(474,68,o),
(526,99,q),
(592,174,o),
(592,343.5,q),
(592,513,o),
(531.5,577,q),
(471,641,o),
(328,641,q),
(325,641,o),
(229,640,q),
(227,602,o),
(227,394,q),
(227,334,l),
(227,104,o),
(231,74,q),
(291,68,o),
(353,68,q)
);
}
);
width = 754;
}
);
unicode = 68;
},
{
category = Letter;
glyphname = E;
layers = (
{
layerId = "58b1ce0d-85ae-4bf6-adce-557510bd0e95";
name = Fore;
shapes = (
{
closed = 1;
nodes = (
(421,643,o),
(337.5,643,q),
(254,643,o),
(231,641,q),
(229,603,o),
(229,395,q),
(467,400,l),
(438,331,l),
(431,331,l),
(363,339,o),
(323,339,q),
(283,339,o),
(229,336,q),
(229,93,o),
(233,63,q),
(256,60,o),
(309,60,q),
(466,60,o),
(538,92,q),
(545,92,l),
(527,0,l),
(108,0,l),
(108,7,l),
(124,69,o),
(124,210,q),
(124,490,l),
(124,631,o),
(108,693,q),
(108,700,l),
(512,703,l),
(487,628,l),
(480,628,l)
);
}
);
width = 573;
}
);
unicode = 69;
},
{
category = Letter;
glyphname = F;
layers = (
{
layerId = "58b1ce0d-85ae-4bf6-adce-557510bd0e95";
name = Fore;
shapes = (
{
closed = 1;
nodes = (
(368,328,o),
(315.5,328,q),
(263,328,o),
(227,326,q),
(227,211,l),
(227,69,o),
(243,7,q),
(243,0,l),
(108,0,l),
(108,7,l),
(124,69,o),
(124,210,q),
(124,489,l),
(124,630,o),
(108,692,q),
(108,699,l),
(513,702,l),
(488,626,l),
(481,626,l),
(418,642,o),
(336,642,q),
(254,642,o),
(231,640,q),
(227,610,o),
(227,387,q),
(461,392,l),
(429,320,l),
(422,320,l)
);
}
);
width = 530;
}
);
unicode = 70;
},
{
category = Letter;
glyphname = G;
layers = (
{
layerId = "58b1ce0d-85ae-4bf6-adce-557510bd0e95";
name = Fore;
shapes = (
{
closed = 1;
nodes = (
(626,135,o),
(633,78,q),
(490,-12,o),
(356,-12,q),
(222,-12,o),
(135.5,83.5,q),
(49,179,o),
(49,336.5,q),
(49,494,o),
(144.5,603,q),
(240,712,o),
(398,712,q),
(525,712,o),
(640,626,q),
(603,587,o),
(545,551,q),
(477,641,o),
(346,641,q),
(291,641,o),
(259,631,q),
(162,549,o),
(162,367,q),
(162,62,o),
(399,62,q),
(484,62,o),
(525,88,q),
(537,150,o),
(537,266,q),
(406,266,l),
(448,332,l),
(527,326,o),
(585,326,q),
(643,326,o),
(684,328,q),
(656,273,l),
(626,273,l)
);
}
);
width = 707;
}
);
unicode = 71;
},
{
category = Letter;
glyphname = H;
layers = (
{
layerId = "58b1ce0d-85ae-4bf6-adce-557510bd0e95";
name = Fore;
shapes = (
{
closed = 1;
nodes = (
(383,337,l),
(284,337,o),
(226,336,q),
(226,209,l),
(226,172,o),
(230.5,101,q),
(235,30,o),
(241,7,q),
(241,0,l),
(108,0,l),
(108,7,l),
(123,65,o),
(123,210,q),
(123,490,l),
(123,635,o),
(108,693,q),
(108,700,l),
(241,700,l),
(241,693,l),
(235,670,o),
(230.5,598.5,q),
(226,527,o),
(226,490,q),
(226,399,l),
(541,399,l),
(541,490,l),
(541,527,o),
(536.5,598.5,q),
(532,670,o),
(526,693,q),
(526,700,l),
(659,700,l),
(659,693,l),
(644,635,o),
(644,490,q),
(644,210,l),
(644,65,o),
(659,7,q),
(659,0,l),
(526,0,l),
(526,7,l),
(532,30,o),
(536.5,101,q),
(541,172,o),
(541,209,q),
(541,336,l)
);
}
);
width = 767;
}
);
unicode = 72;
},
{
category = Letter;
glyphname = I;
layers = (
{
layerId = "58b1ce0d-85ae-4bf6-adce-557510bd0e95";
name = Fore;
shapes = (
{
closed = 1;
nodes = (
(226,210,l),
(226,173,o),
(230.5,101.5,q),
(235,30,o),
(241,7,q),
(241,0,l),
(108,0,l),
(108,7,l),
(123,65,o),
(123,220,q),
(123,490,l),
(123,635,o),
(108,693,q),
(108,700,l),
(241,700,l),
(241,693,l),
(235,670,o),
(230.5,594,q),
(226,518,o),
(226,480,q)
);
}
);
width = 349;
}
);
unicode = 73;
},
{
category = Letter;
glyphname = J;
layers = (
{
layerId = "58b1ce0d-85ae-4bf6-adce-557510bd0e95";
name = Fore;
shapes = (
{
closed = 1;
nodes = (
(130,490,l),
(130,643,o),
(113,693,q),
(113,700,l),
(248,700,l),
(248,693,l),
(233,645,o),
(233,490,q),
(233,156,l),
(233,73,o),
(214,-14,q),
(206,-54,o),
(164,-121,q),
(154,-137,o),
(128,-161,q),
(98,-189,o),
(23,-247,q),
(-13,-213,l),
(1,-204,o),
(33,-174,q),
(93,-120,o),
(111.5,-45,q),
(130,30,o),
(130,199,q)
);
}
);
width = 356;
}
);
unicode = 74;
},
{
category = Letter;
glyphname = K;
layers = (
{
layerId = "58b1ce0d-85ae-4bf6-adce-557510bd0e95";
name = Fore;
shapes = (
{
closed = 1;
nodes = (
(485,0,l),
(450,43,o),
(226,346,q),
(226,210,l),
(226,173,o),
(230.5,101.5,q),
(235,30,o),
(241,7,q),
(241,0,l),
(108,0,l),
(108,7,l),
(123,65,o),
(123,210,q),
(123,489,l),
(123,635,o),
(108,693,q),
(108,700,l),
(241,700,l),
(241,693,l),
(235,670,o),
(230.5,598,q),
(226,526,o),
(226,489,q),
(226,369,l),
(389,580,l),
(453,663,o),
(453,700,q),
(579,700,l),
(579,690,l),
(537,683,o),
(462,585,q),
(307,385,l),
(437,217,l),
(515,117,o),
(564.5,68.5,q),
(614,20,o),
(649,10,q),
(649,0,l)
);
}
);
width = 610;
}
);
unicode = 75;
},
{
category = Letter;
glyphname = L;
layers = (
{
layerId = "58b1ce0d-85ae-4bf6-adce-557510bd0e95";
name = Fore;
shapes = (
{
closed = 1;
nodes = (
(108,7,l),
(123,65,o),
(123,210,q),
(123,490,l),
(123,635,o),
(108,693,q),
(108,700,l),
(241,700,l),
(241,693,l),
(235,669,o),
(230.5,596.5,q),
(226,524,o),
(226,487,q),
(226,206,l),
(226,140,o),
(232,63,q),
(254,60,o),
(312,60,q),
(465,60,o),
(536,92,q),
(543,92,l),
(525,0,l),
(108,0,l)
);
}
);
width = 523;
}
);
unicode = 76;
},
{
category = Letter;
glyphname = M;
layers = (
{
layerId = "58b1ce0d-85ae-4bf6-adce-557510bd0e95";
name = Fore;
shapes = (
{
closed = 1;
nodes = (
(112,290,o),
(112,563,q),
(112,644,o),
(107,692,q),
(107,702,l),
(246,713,l),
(252,674,o),
(270,618,q),
(304,510,o),
(447,96,q),
(529,345,o),
(574.5,504.5,q),
(620,664,o),
(626,700,q),
(774,715,l),
(774,705,l),
(773,678,o),
(773,608,q),
(773,538,o),
(784.5,349,q),
(796,160,o),
(820,7,q),
(820,0,l),
(690,0,l),
(690,17,l),
(692,105,o),
(692,183.5,q),
(692,262,o),
(689,328,q),
(686,394,o),
(682,443.5,q),
(678,493,o),
(674,526.5,q),
(670,560,o),
(669,578,q),
(640,492,o),
(579,300,q),
(518,108,o),
(489,1,q),
(380,-9,l),
(380,37,o),
(219,492,q),
(188,580,o),
(185,586,q),
(185,585,o),
(183,548,q),
(172,343,o),
(172,234.5,q),
(172,126,o),
(174,17,q),
(174,0,l),
(75,0,l),
(75,10,l)
);
}
);
width = 889;
}
);
unicode = 77;
},
{
category = Letter;
glyphname = N;
layers = (
{
layerId = "58b1ce0d-85ae-4bf6-adce-557510bd0e95";
name = Fore;
shapes = (
{
closed = 1;
nodes = (
(72,0,l),
(72,7,l),
(87,73,o),
(87,239,q),
(87,463,l),
(87,617,o),
(74,693,q),
(74,700,l),
(195,709,l),
(545,165,l),
(545,490,l),
(545,543,o),
(539,605.5,q),
(533,668,o),
(524,693,q),
(524,700,l),
(629,700,l),
(629,693,l),
(614,627,o),
(614,461,q),
(614,210,l),
(614,150,o),
(618.5,81.5,q),
(623,13,o),
(627,0,q),
(533,-10,l),
(155,575,l),
(155,210,l),
(155,77,o),
(173,7,q),
(173,0,l)
);
}
);
width = 710;
}
);
unicode = 78;
},
{
category = Letter;
glyphname = O;
layers = (
{
layerId = "58b1ce0d-85ae-4bf6-adce-557510bd0e95";
name = Fore;
shapes = (
{
closed = 1;
nodes = (
(49,190,o),
(49,344.5,q),
(49,499,o),
(146,606.5,q),
(243,714,o),
(396,714,q),
(495,714,o),
(566,665,q),
(704,570,o),
(704,368,q),
(704,203,o),
(606.5,95.5,q),
(509,-12,o),
(364.5,-12,q),
(220,-12,o),
(134.5,89,q)
);
},
{
closed = 1;
nodes = (
(591,469,o),
(543,550,q),
(490,641,o),
(365,641,q),
(277,641,o),
(227,610,q),
(198,574,o),
(180,508.5,q),
(162,443,o),
(162,361.5,q),
(162,280,o),
(183,214.5,q),
(204,149,o),
(258.5,104,q),
(313,59,o),
(392.5,59,q),
(472,59,o),
(524,92,q),
(591,167,o),
(591,341,q)
);
}
);
width = 753;
}
);
unicode = 79;
},
{
category = Letter;
glyphname = P;
layers = (
{
layerId = "58b1ce0d-85ae-4bf6-adce-557510bd0e95";
name = Fore;
shapes = (
{
closed = 1;
nodes = (
(327,700,l),
(585,700,o),
(585,509,q),
(585,399,o),
(509.5,338,q),
(434,277,o),
(316,277,q),
(275,277,o),
(230,286,q),
(230,135,l),
(230,53,o),
(249,6,q),
(249,0,l),
(108,0,l),
(108,7,l),
(127,58,o),
(127,150,q),
(127,533,l),
(127,638,o),
(111,693,q),
(111,700,l),
(170,698,l)
);
},
{
closed = 1;
nodes = (
(472,649,o),
(328,649,q),
(255,649,o),
(232,646,q),
(230,619,o),
(230,470,q),
(230,333,l),
(269,322,o),
(311,322,q),
(390,322,o),
(431,368.5,q),
(472,415,o),
(472,499,q)
);
}
);
width = 623;
}
);
unicode = 80;
},
{
category = Letter;
glyphname = Q;
layers = (
{
layerId = "58b1ce0d-85ae-4bf6-adce-557510bd0e95";
name = Fore;
shapes = (
{
closed = 1;
nodes = (
(49,189,o),
(49,344.5,q),
(49,500,o),
(146.5,607,q),
(244,714,o),
(392,714,q),
(540,714,o),
(622,616,q),
(704,518,o),
(704,365,q),
(704,175,o),
(571,62,q),
(659,-20,o),
(723,-53,q),
(724,-59,l),
(612,-99,l),
(554,-28,o),
(508,21,q),
(440,-12,o),
(363,-12,q),
(220,-12,o),
(134.5,88.5,q)
);
},
{
closed = 1;
nodes = (
(591,465,o),
(546,547,q),
(521,591,o),
(475,616,q),
(429,641,o),
(353,641,q),
(277,641,o),
(227,610,q),
(162,528,o),
(162,362,q),
(162,239,o),
(210,154,q),
(235,109,o),
(283.5,82.5,q),
(332,56,o),
(399,56,q),
(434,56,o),
(465,65,q),
(440,91,o),
(370,156,q),
(370,160,l),
(439,190,l),
(470,153,o),
(530,99,q),
(591,187,o),
(591,344,q)
);
}
);
width = 752;
}
);
unicode = 81;
},
{
category = Letter;
glyphname = R;
layers = (
{
layerId = "58b1ce0d-85ae-4bf6-adce-557510bd0e95";
name = Fore;
shapes = (
{
closed = 1;
nodes = (
(323,700,l),
(563,700,o),
(563,527,q),
(563,443,o),
(507.5,386.5,q),
(452,330,o),
(360,319,q),
(475,174,l),
(547,83,o),
(583,50,q),
(619,17,o),
(645,10,q),
(645,0,l),
(481,0,l),
(462,31,o),
(421,89,q),
(259,316,l),
(230,318,l),
(230,161,l),
(230,56,o),
(245,7,q),
(245,0,l),
(108,0,l),
(108,7,l),
(127,58,o),
(127,150,q),
(127,538,l),
(127,642,o),
(112,693,q),
(112,700,l),
(112,700,o),
(174,698,q)
);
},
{
closed = 1;
nodes = (
(262,649,o),
(233,645,q),
(230,623,o),
(230,367,q),
(266,363,o),
(299,363,q),
(383,363,o),
(417.5,401.5,q),
(452,440,o),
(452,515.5,q),
(452,591,o),
(420,620,q),
(388,649,o),
(310,649,q)
);
}
);
width = 641;
}
);
unicode = 82;
},
{
category = Letter;
glyphname = S;
layers = (
{
layerId = "58b1ce0d-85ae-4bf6-adce-557510bd0e95";
name = Fore;
shapes = (
{
closed = 1;
nodes = (
(152,605,o),
(152,566.5,q),
(152,528,o),
(171,503,q),
(190,478,o),
(221,461.5,q),
(252,445,o),
(289,429.5,q),
(326,414,o),
(363,395.5,q),
(400,377,o),
(431,352.5,q),
(462,328,o),
(481,287.5,q),
(500,247,o),
(500,194,q),
(500,93,o),
(435,41,q),
(370,-11,o),
(257,-11,q),
(144,-11,o),
(54,53,q),
(57,119,o),
(90,168,q),
(130,120,o),
(187,89,q),
(244,58,o),
(296,58,q),
(348,58,o),
(385,81,q),
(410,111,o),
(410,160,q),
(410,209,o),
(384.5,240,q),
(359,271,o),
(321.5,288.5,q),
(284,306,o),
(239.5,327.5,q),
(195,349,o),
(157.5,371,q),
(120,393,o),
(94.5,434,q),
(69,475,o),
(69,530,q),
(69,622,o),
(131.5,667,q),
(194,712,o),
(288.5,712,q),
(383,712,o),
(482,666,q),
(471,607,o),
(446,554,q),
(405,595,o),
(351.5,621.5,q),
(298,648,o),
(250,648,q),
(202,648,o),
(173,632,q)
);
}
);
width = 562;
}
);
unicode = 83;
},
{
category = Letter;
glyphname = T;
layers = (
{
layerId = "58b1ce0d-85ae-4bf6-adce-557510bd0e95";
name = Fore;
shapes = (
{
closed = 1;
nodes = (
(-10,659,o),
(-15,703,q),
(186,700,o),
(243.5,700,q),
(301,700,o),
(502,703,q),
(495,642,o),
(495,614,q),
(488,614,l),
(377,642,o),
(299,644,q),
(294,592,o),
(294,483,q),
(294,208,l),
(294,73,o),
(309,7,q),
(309,0,l),
(178,0,l),
(178,7,l),
(191,72,o),
(191,204,q),
(191,479,l),
(191,592,o),
(186,644,q),
(110,642,o),
(-3,614,q),
(-10,614,l)
);
}
);
width = 487;
}
);
unicode = 84;
},
{
category = Letter;
glyphname = U;
layers = (
{
layerId = "58b1ce0d-85ae-4bf6-adce-557510bd0e95";
name = Fore;
shapes = (
{
closed = 1;
nodes = (
(609,311,l),
(609,129,o),
(550,58.5,q),
(491,-12,o),
(351.5,-12,q),
(212,-12,o),
(150,56.5,q),
(88,125,o),
(88,275,q),
(88,486,l),
(88,635,o),
(73,693,q),
(73,700,l),
(203,700,l),
(203,693,l),
(190,608,o),
(190,455,q),
(190,321,l),
(190,153,o),
(234,104,q),
(276,57,o),
(364,57,q),
(452,57,o),
(495,87,q),
(521,129,o),
(528,202,q),
(535,275,o),
(535,442,q),
(535,609,o),
(520,693,q),
(520,700,l),
(624,700,l),
(624,693,l),
(618,669,o),
(613.5,602.5,q),
(609,536,o),
(609,501,q)
);
}
);
width = 701;
}
);
unicode = 85;
},
{
category = Letter;
glyphname = V;
layers = (
{
layerId = "58b1ce0d-85ae-4bf6-adce-557510bd0e95";
name = Fore;
shapes = (
{
closed = 1;
nodes = (
(630,700,l),
(630,690,l),
(580,651,o),
(496,399,q),
(391,68,o),
(372,-1,q),
(250,-13,l),
(250,20,o),
(186,214,q),
(40,659,o),
(-5,690,q),
(-5,700,l),
(158,700,l),
(158,683,l),
(158,630,o),
(199,498,q),
(330,75,l),
(419,382,o),
(427,412.5,q),
(435,443,o),
(445,478,q),
(470,566,o),
(476,600.5,q),
(482,635,o),
(484,683,q),
(484,700,l)
);
}
);
width = 623;
}
);
unicode = 86;
},
{
category = Letter;
glyphname = W;
layers = (
{
layerId = "58b1ce0d-85ae-4bf6-adce-557510bd0e95";
name = Fore;
shapes = (
{
closed = 1;
nodes = (
(826,700,l),
(961,700,l),
(961,690,l),
(890,538,o),
(804,194,q),
(761,25,o),
(754,-1,q),
(626,-13,l),
(626,42,o),
(521,410,q),
(517,424,o),
(512,443.5,q),
(507,463,o),
(498.5,494.5,q),
(490,526,o),
(483,552,q),
(481,552,l),
(474,525,o),
(459,477.5,q),
(444,430,o),
(411.5,317,q),
(379,204,o),
(364.5,142,q),
(350,80,o),
(327,-1,q),
(199,-13,l),
(199,35,o),
(69,492,q),
(38,601,o),
(25,636,q),
(12,671,o),
(-4,690,q),
(-4,700,l),
(145,700,l),
(145,683,l),
(145,617,o),
(176,498,q),
(282,75,l),
(375,389,o),
(410,590,q),
(422,661,o),
(423,700,q),
(546,700,l),
(556,605,o),
(608,420,q),
(627,353,o),
(706,75,q),
(710,94,o),
(736,186,q),
(826,513,o),
(826,683,q)
);
}
);
width = 953;
}
);
unicode = 87;
},
{
category = Letter;
glyphname = X;
layers = (
{
layerId = "58b1ce0d-85ae-4bf6-adce-557510bd0e95";
name = Fore;
shapes = (
{
closed = 1;
nodes = (
(129,73,o),
(129,-1,q),
(-14,0,l),
(-14,10,l),
(37,39,o),
(103,143,q),
(214,312,o),
(240,355,q),
(161,488,l),
(56,665,o),
(3,690,q),
(3,700,l),
(177,700,l),
(177,689,l),
(177,655,o),
(200,609,q),
(223,560,o),
(302,430,q),
(358,514,o),
(385,567,q),
(434,661,o),
(434,700,q),
(578,700,l),
(578,690,l),
(545,669,o),
(521.5,641,q),
(498,613,o),
(428,508,q),
(358,403,o),
(342,378,q),
(425,245,l),
(499,121,o),
(535.5,73.5,q),
(572,26,o),
(602,10,q),
(602,0,l),
(425,0,l),
(425,8,l),
(425,41,o),
(391,104,q),
(342,193,o),
(321,233,q),
(281,302,l)
);
}
);
width = 593;
}
);
unicode = 88;
},
{
category = Letter;
glyphname = Y;
layers = (
{
layerId = "58b1ce0d-85ae-4bf6-adce-557510bd0e95";
name = Fore;
shapes = (
{
closed = 1;
nodes = (
(404,623,o),
(404,683,q),
(404,700,l),
(520,700,l),
(520,690,l),
(479,660,o),
(311,290,q),
(311,210,l),
(311,175,o),
(315.5,103,q),
(320,31,o),
(325,7,q),
(325,0,l),
(197,0,l),
(197,7,l),
(211,68,o),
(211,183,q),
(211,293,l),
(115,482,l),
(16,671,o),
(-15,690,q),
(-15,700,l),
(133,700,l),
(133,683,l),
(133,644,o),
(165.5,574,q),
(198,504,o),
(214,470,q),
(230,436,o),
(234,429,q),
(247,409,o),
(277,348,q)
);
}
);
width = 511;
}
);
unicode = 89;
},
{
category = Letter;
glyphname = Z;
layers = (
{
layerId = "58b1ce0d-85ae-4bf6-adce-557510bd0e95";
name = Fore;
shapes = (
{
closed = 1;
nodes = (
(147,60,o),
(233,60,q),
(319,60,o),
(400,69,q),
(481,78,o),
(512,92,q),
(519,92,l),
(501,0,l),
(25,0,l),
(-4,51,l),
(384,638,l),
(361,641,o),
(287.5,641,q),
(214,641,o),
(144,629.5,q),
(74,618,o),
(38,602,q),
(31,602,l),
(48,698,l),
(475,705,l),
(509,645,l),
(124,63,l)
);
}
);
width = 514;
}
);
unicode = 90;
},
{
category = Letter;
glyphname = bracketleft;
layers = (
{
layerId = "58b1ce0d-85ae-4bf6-adce-557510bd0e95";
name = Fore;
shapes = (
{
closed = 1;
nodes = (
(273,-135,o),
(319,-116,q),
(326,-116,l),
(356,-176,l),
(95,-173,l),
(96,757,l),
(356,760,l),
(326,700,l),
(319,700,l),
(275,718,o),
(204,718,q),
(177,718,l),
(177,-42,l),
(177,-90,o),
(180,-135,q),
(203,-135,l)
);
}
);
width = 431;
}
);
unicode = 91;
},
{
category = Letter;
glyphname = backslash;
layers = (
{
layerId = "58b1ce0d-85ae-4bf6-adce-557510bd0e95";
name = Fore;
shapes = (
{
closed = 1;
nodes = (
(-26,731,l),
(-21,727,l),
(33,582,o),
(303,65,q),
(310,52,o),
(333,11.5,q),
(356,-29,o),
(370,-56,q),
(324,-146,l),
(320,-142,l),
(296,-81,o),
(195.5,129,q),
(95,339,o),
(47,433,q),
(-72,654,l)
);
}
);
width = 291;
}
);
unicode = 92;
},
{
category = Letter;
glyphname = bracketright;
layers = (
{
layerId = "58b1ce0d-85ae-4bf6-adce-557510bd0e95";
name = Fore;
shapes = (
{
closed = 1;
nodes = (
(251,-135,l),
(254,-90,o),
(254,-42,q),
(254,718,l),
(227,718,l),
(156,718,o),
(112,700,q),
(105,700,l),
(75,760,l),
(335,757,l),
(336,-173,l),
(75,-176,l),
(105,-116,l),
(112,-116,l),
(158,-135,o),
(228,-135,q)
);
}
);
width = 431;
}
);
unicode = 93;
},
{
category = Letter;
glyphname = asciicircum;
layers = (
{
layerId = "58b1ce0d-85ae-4bf6-adce-557510bd0e95";
name = Fore;
shapes = (
{
closed = 1;
nodes = (
(336,682,l),
(484,379,l),
(403,379,l),
(302,592,l),
(196,379,l),
(118,379,l),
(272,682,l)
);
}
);
width = 602;
}
);
unicode = 94;
},
{
category = Letter;
glyphname = underscore;
layers = (
{
layerId = "58b1ce0d-85ae-4bf6-adce-557510bd0e95";
name = Fore;
shapes = (
{
closed = 1;
nodes = (
(24,-138,l),
(24,-82,l),
(536,-82,l),
(536,-138,l)
);
}
);
width = 560;
}
);
unicode = 95;
},
{
category = Letter;
glyphname = grave;
layers = (
{
layerId = "58b1ce0d-85ae-4bf6-adce-557510bd0e95";
name = Fore;
shapes = (
{
closed = 1;
nodes = (
(230,579,o),
(132,674,q),
(157,715,o),
(200,732,q),
(254,636,o),
(342,556,q),
(319,530,l)
);
}
);
width = 500;
}
);
unicode = 96;
},
{
category = Letter;
glyphname = a;
layers = (
{
layerId = "58b1ce0d-85ae-4bf6-adce-557510bd0e95";
name = Fore;
shapes = (
{
closed = 1;
nodes = (
(289,215,o),
(235.5,215,q),
(182,215,o),
(158,198,q),
(143,175,o),
(143,136.5,q),
(143,98,o),
(164,76,q),
(185,54,o),
(216.5,54,q),
(248,54,o),
(281,70.5,q),
(314,87,o),
(330,106,q),
(330,200,l)
);
},
{
closed = 1;
nodes = (
(285,-11,o),
(208.5,-11,q),
(132,-11,o),
(88.5,22,q),
(45,55,o),
(45,128.5,q),
(45,202,o),
(96.5,234,q),
(148,266,o),
(242,266,q),
(330,263,l),
(330,320,l),
(330,373,o),
(304,406,q),
(278,439,o),
(225,439,q),
(186,438,o),
(100,364,q),
(71,401,o),
(59,460,q),
(158,492,o),
(241,492,q),
(324,492,o),
(374,449,q),
(424,406,o),
(424,327,q),
(424,159,l),
(425,114,o),
(438.5,75.5,q),
(452,37,o),
(474,22,q),
(476,12,l),
(369,-14,l),
(356,18,o),
(346,56,q)
);
}
);
width = 504;
}
);
unicode = 97;
},
{
category = Letter;
glyphname = b;
layers = (
{
layerId = "58b1ce0d-85ae-4bf6-adce-557510bd0e95";
name = Fore;
shapes = (
{
closed = 1;
nodes = (
(257,54,o),
(315,54,q),
(373,54,o),
(394,66,q),
(411,86,o),
(424,142,q),
(437,198,o),
(437,250,q),
(437,417,o),
(333,417,q),
(275,417,o),
(191,360,q),
(191,88,l)
);
},
{
closed = 1;
nodes = (
(191,417,l),
(274,491,o),
(356.5,491,q),
(439,491,o),
(491.5,426,q),
(544,361,o),
(544,268,q),
(544,151,o),
(473,70,q),
(402,-11,o),
(309.5,-11,q),
(217,-11,o),
(86,31,q),
(86,37,l),
(97,67,o),
(97,174,q),
(97,587,l),
(97,666,o),
(50,711,q),
(50,723,l),
(188,747,l),
(194,737,l),
(191,708,o),
(191,654,q)
);
}
);
width = 588;
}
);
unicode = 98;
},
{
category = Letter;
glyphname = c;
layers = (
{
layerId = "58b1ce0d-85ae-4bf6-adce-557510bd0e95";
name = Fore;
shapes = (
{
closed = 1;
nodes = (
(150,305,o),
(150,236.5,q),
(150,168,o),
(177.5,117,q),
(205,66,o),
(265,66,q),
(305,66,o),
(358,84.5,q),
(411,103,o),
(428,116,q),
(453,77,l),
(325,-11,o),
(259,-11,q),
(159,-11,o),
(101.5,57,q),
(44,125,o),
(44,235,q),
(44,345,o),
(118.5,419,q),
(193,493,o),
(288.5,493,q),
(384,493,o),
(447,450,q),
(408,388,o),
(396,375,q),
(328,427,o),
(266,427,q),
(243,427,o),
(221,424,q),
(188,404,o),
(169,354.5,q)
);
}
);
width = 490;
}
);
unicode = 99;
},
{
category = Letter;
glyphname = d;
layers = (
{
layerId = "58b1ce0d-85ae-4bf6-adce-557510bd0e95";
name = Fore;
shapes = (
{
closed = 1;
nodes = (
(151,-11,o),
(100,59.5,q),
(49,130,o),
(49,237,q),
(49,344,o),
(114.5,418,q),
(180,492,o),
(280,492,q),
(336,492,o),
(391,473,q),
(391,587,l),
(391,667,o),
(345,711,q),
(345,723,l),
(482,747,l),
(488,737,l),
(485,708,o),
(485,654,q),
(485,159,l),
(485,114,o),
(499,73.5,q),
(513,33,o),
(535,18,q),
(537,8,l),
(428,-18,l),
(418,7,o),
(403,64,q),
(326,-11,o),
(255,-11,q)
);
},
{
closed = 1;
nodes = (
(237,63,o),
(287,63,q),
(337,63,o),
(391,111,q),
(391,393,l),
(339,431,o),
(261,431,q),
(216,431,o),
(192,413,q),
(155,354,o),
(155,250,q),
(155,146,o),
(208,93,q)
);
}
);
width = 571;
}
);
unicode = 100;
},
{
category = Letter;
glyphname = e;
layers = (
{
layerId = "58b1ce0d-85ae-4bf6-adce-557510bd0e95";
name = Fore;
shapes = (
{
closed = 1;
nodes = (
(162,-11,o),
(103,54,q),
(44,119,o),
(44,225.5,q),
(44,332,o),
(110,412,q),
(176,492,o),
(274,492,q),
(453,492,o),
(453,271,q),
(416,235,l),
(150,235,l),
(150,151,o),
(186,109,q),
(222,67,o),
(283,67,q),
(307,67,o),
(351,81.5,q),
(395,96,o),
(429,116,q),
(454,78,l),
(435,59,o),
(371.5,24,q),
(308,-11,o),
(267,-11,q)
);
},
{
closed = 1;
nodes = (
(214,442,o),
(191,423,q),
(172,397,o),
(161,357,q),
(150,317,o),
(150,287,q),
(355,295,l),
(355,442,o),
(256,442,q)
);
}
);
width = 494;
}
);
unicode = 101;
},
{
category = Letter;
glyphname = f;
layers = (
{
layerId = "58b1ce0d-85ae-4bf6-adce-557510bd0e95";
name = Fore;
shapes = (
{
closed = 1;
nodes = (
(120,481,l),
(120,541,l),
(120,626,o),
(159.5,683,q),
(199,740,o),
(282,740,q),
(365,740,o),
(449,702,q),
(423,639,o),
(406,614,q),
(335,678,o),
(276,678,q),
(257,678,o),
(235,669,q),
(214,642,o),
(214,538,q),
(214,480,l),
(287,481,o),
(359,488,q),
(332,415,l),
(273,424,o),
(214,426,q),
(214,193,l),
(214,146,o),
(223,89,q),
(232,32,o),
(243,7,q),
(243,0,l),
(103,0,l),
(103,7,l),
(120,57,o),
(120,170,q),
(120,426,l),
(40,423,l),
(63,484,l)
);
}
);
width = 357;
}
);
unicode = 102;
},
{
category = Letter;
glyphname = g;
layers = (
{
layerId = "58b1ce0d-85ae-4bf6-adce-557510bd0e95";
name = Fore;
shapes = (
{
closed = 1;
nodes = (
(157,118,o),
(157,109.5,q),
(157,101,o),
(161,96,q),
(165,91,o),
(175,87,q),
(185,83,o),
(195,80.5,q),
(205,78,o),
(222.5,75,q),
(240,72,o),
(253.5,70,q),
(267,68,o),
(290,64.5,q),
(313,61,o),
(328,59,q),
(417,46,o),
(457,22,q),
(497,-2,o),
(497,-59,q),
(497,-140,o),
(422,-184,q),
(347,-228,o),
(243,-228,q),
(168,-228,o),
(106,-204,q),
(71,-190,o),
(50,-163.5,q),
(29,-137,o),
(29,-99,q),
(29,-20,o),
(122,19,q),
(72,40,o),
(72,83.5,q),
(72,127,o),
(157,173,q),
(69,218,o),
(69,320,q),
(69,400,o),
(122,444.5,q),
(175,489,o),
(251,489,q),
(327,489,o),
(373,463,q),
(409,463,o),
(491,471,q),
(518,414,l),
(427,416,l),
(453,377,o),
(453,324,q),
(453,243,o),
(400,197,q),
(347,151,o),
(263,151,q),
(233,151,o),
(206,157,q),
(185,146,o),
(171,132,q)
);
},
{
closed = 1;
nodes = (
(93,-24,o),
(93,-78,q),
(93,-132,o),
(148,-158.5,q),
(203,-185,o),
(267,-185,q),
(345,-185,o),
(387,-150,q),
(412,-130,o),
(412,-99,q),
(412,-73,o),
(389,-55,q),
(369,-39,o),
(274,-22,q),
(254,-18,o),
(213.5,-9.5,q),
(173,-1,o),
(162,1,q)
);
},
{
closed = 1;
nodes = (
(208,201,o),
(269,201,q),
(311,201,o),
(327,215,q),
(355,247,o),
(355,313.5,q),
(355,380,o),
(334,409.5,q),
(313,439,o),
(265,439,q),
(217,439,o),
(194,426,q),
(167,389,o),
(167,338.5,q),
(167,288,o),
(182,257,q)
);
}
);
width = 518;
}
);
unicode = 103;
},
{
category = Letter;
glyphname = h;
layers = (
{
layerId = "58b1ce0d-85ae-4bf6-adce-557510bd0e95";
name = Fore;
shapes = (
{
closed = 1;
nodes = (
(187,408,l),
(225,437,o),
(245.5,451,q),
(266,465,o),
(298.5,478.5,q),
(331,492,o),
(360,492,q),
(434,492,o),
(474,446,q),
(514,400,o),
(514,314,q),
(514,170,l),
(514,75,o),
(544,7,q),
(544,0,l),
(403,0,l),
(403,7,l),
(420,57,o),
(420,140,q),
(420,293,l),
(420,351,o),
(402.5,380.5,q),
(385,410,o),
(329.5,410,q),
(274,410,o),
(190,359,q),
(190,170,l),
(190,73,o),
(219,7,q),
(219,0,l),
(79,0,l),
(79,7,l),
(96,57,o),
(96,140,q),
(96,587,l),
(96,667,o),
(50,711,q),
(50,723,l),
(184,747,l),
(190,737,l),
(187,708,o),
(187,545,q)
);
}
);
width = 599;
}
);
unicode = 104;
},
{
category = Letter;
glyphname = i;
layers = (
{
layerId = "58b1ce0d-85ae-4bf6-adce-557510bd0e95";
name = Fore;
shapes = (
{
closed = 1;
nodes = (
(97,333,l),
(97,422,o),
(47,457,q),
(47,469,l),
(188,493,l),
(194,483,l),
(191,454,o),
(191,400,q),
(191,164,l),
(191,64,o),
(216,7,q),
(216,0,l),
(81,0,l),
(81,7,l),
(97,54,o),
(97,139,q)
);
},
{
closed = 1;
nodes = (
(195,696,o),
(195,650,q),
(195,639,o),
(194,630,q),
(186,623,l),
(146,612,o),
(91,607,q),
(82,611,l),
(67,637,o),
(67,680,q),
(67,685,o),
(67,690,q),
(75,697,l),
(123,713,o),
(167,713,q),
(172,713,o),
(181,708,q)
);
}
);
width = 265;
}
);
unicode = 105;
},
{
category = Letter;
glyphname = j;
layers = (
{
layerId = "58b1ce0d-85ae-4bf6-adce-557510bd0e95";
name = Fore;
shapes = (
{
closed = 1;
nodes = (
(190,694,o),
(190,649,q),
(190,638,o),
(189,629,q),
(181,622,l),
(141,611,o),
(86,606,q),
(77,610,l),
(62,636,o),
(62,679,q),
(62,684,o),
(62,689,q),
(70,696,l),
(118,712,o),
(162,712,q),
(167,712,o),
(176,707,q)
);
},
{
closed = 1;
nodes = (
(186,110,l),
(186,-42,o),
(143,-112,q),
(120,-150,o),
(102,-169.5,q),
(84,-189,o),
(62,-207,q),
(62,-208,o),
(15,-248,q),
(-21,-215,l),
(53,-169,o),
(76,-70,q),
(92,-1,o),
(92,149,q),
(92,330,l),
(92,421,o),
(36,457,q),
(36,469,l),
(183,493,l),
(189,483,l),
(186,453,o),
(186,398,q)
);
}
);
width = 251;
}
);
unicode = 106;
},
{
category = Letter;
glyphname = k;
layers = (
{
layerId = "58b1ce0d-85ae-4bf6-adce-557510bd0e95";
name = Fore;
shapes = (
{
closed = 1;
nodes = (
(79,0,l),
(79,12,l),
(96,62,o),
(96,170,q),
(96,587,l),
(96,667,o),
(50,711,q),
(50,723,l),
(187,747,l),
(193,737,l),
(190,708,o),
(190,654,q),
(190,302,l),
(360,444,l),
(388,467,o),
(388,480,q),
(503,480,l),
(503,468,l),
(484,466,o),
(409,406,q),
(267,284,l),
(392,150,l),
(461,74,o),
(491,48,q),
(521,22,o),
(549,12,q),
(549,0,l),
(400,0,l),
(400,2,o),
(190,252,q),
(190,170,l),
(190,59,o),
(206,12,q),
(206,0,l)
);
}
);
width = 534;
}
);
unicode = 107;
},
{
category = Letter;
glyphname = l;
layers = (
{
layerId = "58b1ce0d-85ae-4bf6-adce-557510bd0e95";
name = Fore;
shapes = (
{
closed = 1;
nodes = (
(79,0,l),
(79,12,l),
(96,62,o),
(96,170,q),
(96,587,l),
(96,667,o),
(50,711,q),
(50,723,l),
(187,747,l),
(193,737,l),
(190,708,o),
(190,545,q),
(191,170,l),
(191,62,o),
(208,12,q),
(208,0,l)
);
}
);
width = 264;
}
);
unicode = 108;
},
{
category = Letter;
glyphname = m;
layers = (
{
layerId = "58b1ce0d-85ae-4bf6-adce-557510bd0e95";
name = Fore;
shapes = (
{
closed = 1;
nodes = (
(492,140,l),
(492,60,o),
(507,7,q),
(507,0,l),
(383,0,l),
(383,7,l),
(398,60,o),
(398,140,q),
(398,300,l),
(398,357,o),
(383,383.5,q),
(368,410,o),
(323,410,q),
(278,410,o),
(202,359,q),
(202,170,l),
(202,73,o),
(231,7,q),
(231,0,l),
(91,0,l),
(91,7,l),
(108,57,o),
(108,140,q),
(108,310,l),
(108,353,o),
(90.5,394.5,q),
(73,436,o),
(50,450,q),
(49,462,l),
(180,493,l),
(186,483,l),
(194,446,o),
(198,408,q),
(234,439,o),
(249.5,451.5,q),
(265,464,o),
(293.5,478,q),
(322,492,o),
(347,492,q),
(450,492,o),
(480,403,q),
(583,492,o),
(641,492,q),
(711,492,o),
(750,446,q),
(789,400,o),
(789,314,q),
(789,170,l),
(789,75,o),
(819,7,q),
(819,0,l),
(678,0,l),
(678,7,l),
(695,57,o),
(695,140,q),
(695,293,l),
(695,410,o),
(622,410,q),
(561,410,o),
(490,358,q),
(492,334,o),
(492,321,q)
);
}
);
width = 874;
}
);
unicode = 109;
},
{
category = Letter;
glyphname = n;
layers = (
{
layerId = "58b1ce0d-85ae-4bf6-adce-557510bd0e95";
name = Fore;
shapes = (
{
closed = 1;
nodes = (
(441,492,o),
(480.5,446,q),
(520,400,o),
(520,314,q),
(520,170,l),
(520,75,o),
(550,7,q),
(550,0,l),
(409,0,l),
(409,7,l),
(426,57,o),
(426,140,q),
(426,293,l),
(426,351,o),
(408.5,380.5,q),
(391,410,o),
(338,410,q),
(285,410,o),
(202,359,q),
(202,170,l),
(202,73,o),
(231,7,q),
(231,0,l),
(91,0,l),
(91,7,l),
(108,57,o),
(108,140,q),
(108,310,l),
(108,353,o),
(90.5,394.5,q),
(73,436,o),
(50,450,q),
(49,462,l),
(180,493,l),
(186,483,l),
(194,446,o),
(198,408,q),
(235,437,o),
(255.5,451,q),
(276,465,o),
(308,478.5,q),
(340,492,o),
(369,492,q)
);
}
);
width = 605;
}
);
unicode = 110;
},
{
category = Letter;
glyphname = o;
layers = (
{
layerId = "58b1ce0d-85ae-4bf6-adce-557510bd0e95";
name = Fore;
shapes = (
{
closed = 1;
nodes = (
(44,121,o),
(44,228.5,q),
(44,336,o),
(115,414,q),
(186,492,o),
(293.5,492,q),
(401,492,o),
(459.5,427,q),
(518,362,o),
(518,253,q),
(518,144,o),
(447,66,q),
(376,-12,o),
(271,-12,q),
(166,-12,o),
(105,54.5,q)
);
},
{
closed = 1;
nodes = (
(412,327,o),
(381,381,q),
(350,435,o),
(271,435,q),
(220,435,o),
(191,413,q),
(173,390,o),
(161.5,343,q),
(150,296,o),
(150,253,q),
(150,44,o),
(298,44,q),
(344,44,o),
(373,65,q),
(392,88,o),
(402,136,q),
(412,184,o),
(412,228,q)
);
}
);
width = 562;
}
);
unicode = 111;
},
{
category = Letter;
glyphname = p;
layers = (
{
layerId = "58b1ce0d-85ae-4bf6-adce-557510bd0e95";
name = Fore;
shapes = (
{
closed = 1;
nodes = (
(373,53,o),
(394,65,q),
(410,84,o),
(423,141,q),
(436,198,o),
(436,251,q),
(436,418,o),
(335,418,q),
(271,418,o),
(195,365,q),
(195,95,l),
(258,53,o),
(328,53,q)
);
},
{
closed = 1;
nodes = (
(101,314,l),
(101,358,o),
(87,396.5,q),
(73,435,o),
(50,449,q),
(49,461,l),
(186,493,l),
(192,483,l),
(190,460,o),
(190,418,q),
(273,492,o),
(355.5,492,q),
(438,492,o),
(490.5,427,q),
(543,362,o),
(543,269,q),
(543,153,o),
(474,70.5,q),
(405,-12,o),
(317,-12,q),
(259,-12,o),
(195,10,q),
(195,-58,l),
(197,-178,o),
(236,-226,q),
(236,-231,l),
(98,-246,l),
(101,-206,o),
(101,-100,q)
);
}
);
width = 588;
}
);
unicode = 112;
},
{
category = Letter;
glyphname = q;
layers = (
{
layerId = "58b1ce0d-85ae-4bf6-adce-557510bd0e95";
name = Fore;
shapes = (
{
closed = 1;
nodes = (
(398,64,l),
(321,-11,o),
(250,-11,q),
(146,-11,o),
(95,59.5,q),
(44,130,o),
(44,237,q),
(44,344,o),
(109.5,418,q),
(175,492,o),
(275,492,q),
(346,492,o),
(413,454,q),
(470,489,l),
(486,491,o),
(498,487,q),
(493,432,o),
(493,342,q),
(493,-100,l),
(493,-206,o),
(496,-246,q),
(357,-238,l),
(357,-233,l),
(398,-183,o),
(398,-61,q)
);
},
{
closed = 1;
nodes = (
(232,63,o),
(275,63,q),
(300,63,o),
(333,75.5,q),
(366,88,o),
(392,111,q),
(392,393,l),
(340,431,o),
(256,431,q),
(211,431,o),
(187,413,q),
(150,354,o),
(150,250,q),
(150,146,o),
(202,93,q)
);
}
);
width = 547;
}
);
unicode = 113;
},
{
category = Letter;
glyphname = r;
layers = (
{
layerId = "58b1ce0d-85ae-4bf6-adce-557510bd0e95";
name = Fore;
shapes = (
{
closed = 1;
nodes = (
(369,492,o),
(384,485,q),
(384,479,o),
(384,473,q),
(384,414,o),
(366,366,q),
(321,395,o),
(264,395,q),
(233,395,o),
(202,384,q),
(202,170,l),
(202,73,o),
(231,7,q),
(231,0,l),
(91,0,l),
(91,7,l),
(108,57,o),
(108,140,q),
(108,310,l),
(108,353,o),
(90.5,394.5,q),
(73,436,o),
(50,450,q),
(49,462,l),
(167,493,l),
(183,466,o),
(193,430,q),
(253,492,o),
(338,492,q)
);
}
);
width = 377;
}
);
unicode = 114;
},
{
category = Letter;
glyphname = s;
layers = (
{
layerId = "58b1ce0d-85ae-4bf6-adce-557510bd0e95";
name = Fore;
shapes = (
{
closed = 1;
nodes = (
(143,411,o),
(143,379.5,q),
(143,348,o),
(163,330.5,q),
(183,313,o),
(213.5,305,q),
(244,297,o),
(279,285,q),
(314,273,o),
(344.5,259.5,q),
(375,246,o),
(395,216,q),
(415,186,o),
(415,143,q),
(415,67,o),
(359,28,q),
(303,-11,o),
(211.5,-11,q),
(120,-11,o),
(49,36,q),
(52,87,o),
(79,127,q),
(169,45,o),
(243,45,q),
(275,45,o),
(300,58,q),
(324,79,o),
(324,114.5,q),
(324,150,o),
(296.5,169.5,q),
(269,189,o),
(230,200,q),
(191,211,o),
(152,225,q),
(113,239,o),
(85.5,269,q),
(58,299,o),
(58,347,q),
(58,417,o),
(110.5,454.5,q),
(163,492,o),
(243,492,q),
(323,492,o),
(400,458,q),
(391,414,o),
(365,370,q),
(294,441,o),
(217,441,q),
(184,441,o),
(161,429,q)
);
}
);
width = 458;
}
);
unicode = 115;
},
{
category = Letter;
glyphname = t;
layers = (
{
layerId = "58b1ce0d-85ae-4bf6-adce-557510bd0e95";
name = Fore;
shapes = (
{
closed = 1;
nodes = (
(202,59,o),
(234,59,q),
(261,59,o),
(325,91,q),
(346,56,l),
(314,34,o),
(266,11.5,q),
(218,-11,o),
(178,-11,q),
(138,-11,o),
(123,14,q),
(108,39,o),
(108,86,q),
(108,423,l),
(18,418,l),
(42,483,l),
(60,481,o),
(106,479,q),
(104,529,o),
(100,569,q),
(202,595,l),
(202,480,l),
(256,482,o),
(349,492,q),
(321,414,l),
(267,422,o),
(202,424,q),
(202,112,l)
);
}
);
width = 369;
}
);
unicode = 116;
},
{
category = Letter;
glyphname = u;
layers = (
{
layerId = "58b1ce0d-85ae-4bf6-adce-557510bd0e95";
name = Fore;
shapes = (
{
closed = 1;
nodes = (
(152,-11,o),
(118.5,32.5,q),
(85,76,o),
(85,167,q),
(85,310,l),
(85,405,o),
(55,473,q),
(55,480,l),
(194,480,l),
(194,473,l),
(179,420,o),
(179,340,q),
(179,183,l),
(179,123,o),
(194,97,q),
(209,71,o),
(267,71,q),
(325,71,o),
(403,126,q),
(403,310,l),
(403,407,o),
(374,473,q),
(374,480,l),
(512,480,l),
(512,473,l),
(497,420,o),
(497,340,q),
(497,171,l),
(497,127,o),
(512,84.5,q),
(527,42,o),
(547,28,q),
(548,16,l),
(431,-12,l),
(414,34,o),
(407,76,q),
(358,34,o),
(318,11.5,q),
(278,-11,o),
(236,-11,q)
);
}
);
width = 602;
}
);
unicode = 117;
},
{
category = Letter;
glyphname = v;
layers = (
{
layerId = "58b1ce0d-85ae-4bf6-adce-557510bd0e95";
name = Fore;
shapes = (
{
closed = 1;
nodes = (
(130,447,o),
(170,325,q),
(245,94,l),
(329,347,l),
(350,413,o),
(350,468,q),
(350,480,l),
(455,480,l),
(455,468,l),
(428,443,o),
(403,371,q),
(290,44,l),
(276,-7,l),
(183,-11,l),
(166,46,l),
(47,375,l),
(19,446,o),
(-6,463,q),
(-6,475,l),
(130,488,l),
(130,476,l)
);
}
);
width = 454;
}
);
unicode = 118;
},
{
category = Letter;
glyphname = w;
layers = (
{
layerId = "58b1ce0d-85ae-4bf6-adce-557510bd0e95";
name = Fore;
shapes = (
{
closed = 1;
nodes = (
(332,330,o),
(352,411,q),
(332,458,o),
(323,465,q),
(323,477,l),
(452,484,l),
(452,472,l),
(452,443,o),
(503,293,q),
(568,101,l),
(634,304,o),
(645,347,q),
(666,417,o),
(666,468,q),
(666,480,l),
(764,480,l),
(764,468,l),
(739,445,o),
(716,371,q),
(616,44,l),
(603,-9,l),
(509,-11,l),
(492,46,l),
(389,313,l),
(299,44,l),
(288,-9,l),
(193,-11,l),
(176,46,l),
(45,375,l),
(17,448,o),
(-6,463,q),
(-6,475,l),
(138,487,l),
(138,475,l),
(138,440,o),
(187,300,q),
(254,106,l)
);
}
);
width = 763;
}
);
unicode = 119;
},
{
category = Letter;
glyphname = x;
layers = (
{
layerId = "58b1ce0d-85ae-4bf6-adce-557510bd0e95";
name = Fore;
shapes = (
{
closed = 1;
nodes = (
(468,480,l),
(468,468,l),
(447,461,o),
(415,429,q),
(383,397,o),
(353,350,q),
(290,254,l),
(364,156,l),
(461,27,o),
(491,12,q),
(491,0,l),
(324,0,l),
(324,12,l),
(319,61,o),
(287,104,q),
(227,184,l),
(168,93,l),
(136,43,o),
(134,12,q),
(134,0,l),
(0,0,l),
(0,12,l),
(14,18,o),
(47.5,47.5,q),
(81,77,o),
(106,115,q),
(186,240,l),
(104,352,l),
(75,392,o),
(43.5,426.5,q),
(12,461,o),
(-1,468,q),
(-1,480,l),
(150,480,l),
(150,468,l),
(152,440,o),
(197,380,q),
(249,309,l),
(300,387,l),
(332,437,o),
(334,468,q),
(334,480,l)
);
}
);
width = 488;
}
);
unicode = 120;
},
{
category = Letter;
glyphname = y;
layers = (
{
layerId = "58b1ce0d-85ae-4bf6-adce-557510bd0e95";
name = Fore;
shapes = (
{
closed = 1;
nodes = (
(350,385,o),
(350,440,q),
(350,457,o),
(343,468,q),
(343,480,l),
(450,480,l),
(450,468,l),
(435,455,o),
(287,10,q),
(216,-198,o),
(206,-238,q),
(206,-246,l),
(82,-255,l),
(81,-248,l),
(154,-161,o),
(209,-14,q),
(203,3,o),
(36,398,q),
(16,445,o),
(-7,464,q),
(-7,476,l),
(127,487,l),
(127,475,l),
(127,449,o),
(151,374.5,q),
(175,300,o),
(254,92,q)
);
}
);
width = 450;
}
);
unicode = 121;
},
{
category = Letter;
glyphname = z;
layers = (
{
layerId = "58b1ce0d-85ae-4bf6-adce-557510bd0e95";
name = Fore;
shapes = (
{
closed = 1;
nodes = (
(136,59,l),
(300,59,o),
(391,88,q),
(402,83,l),
(374,0,l),
(39,0,l),
(15,48,l),
(282,420,l),
(177,420,o),
(134,414.5,q),
(91,409,o),
(56,392,q),
(45,399,l),
(65,483,l),
(377,480,l),
(402,431,l)
);
}
);
width = 426;
}
);
unicode = 122;
},
{
category = Letter;
glyphname = braceleft;
layers = (
{
layerId = "58b1ce0d-85ae-4bf6-adce-557510bd0e95";
name = Fore;
shapes = (
{
closed = 1;
nodes = (
(216,29,l),
(216,-71,o),
(236,-98,q),
(259,-130,o),
(297.5,-130,q),
(336,-130,o),
(372,-126,q),
(379,-160,l),
(327,-173,o),
(287.5,-173,q),
(248,-173,o),
(219.5,-161.5,q),
(191,-150,o),
(174.5,-132,q),
(158,-114,o),
(149,-84,q),
(135,-36,o),
(135,46,q),
(135,139,l),
(135,201,o),
(104,231,q),
(82,252,o),
(53,268,q),
(53,275,l),
(77,290,o),
(90.5,300.5,q),
(104,311,o),
(120,341.5,q),
(136,372,o),
(136,412,q),
(136,537,l),
(136,669,o),
(172,712,q),
(209,756,o),
(287,756,q),
(326,756,o),
(378,743,q),
(371,709,l),
(335,713,o),
(304,713,q),
(273,713,o),
(254.5,701.5,q),
(236,690,o),
(228,666,q),
(216,629,o),
(216,559,q),
(216,436,l),
(216,359,o),
(184,321,q),
(168,302,o),
(158,294,q),
(148,286,o),
(128,274,q),
(128,271,l),
(216,224,o),
(216,103,q)
);
}
);
width = 414;
}
);
unicode = 123;
},
{
category = Letter;
glyphname = bar;
layers = (
{
layerId = "58b1ce0d-85ae-4bf6-adce-557510bd0e95";
name = Fore;
shapes = (
{
closed = 1;
nodes = (
(147,-147,l),
(74,-177,l),
(73,702,l),
(73,709,l),
(154,739,l),
(147,644,o),
(147,600,q)
);
}
);
width = 227;
}
);
unicode = 124;
},
{
category = Letter;
glyphname = braceright;
layers = (
{
layerId = "58b1ce0d-85ae-4bf6-adce-557510bd0e95";
name = Fore;
shapes = (
{
closed = 1;
nodes = (
(199,103,l),
(199,224,o),
(287,271,q),
(287,274,l),
(267,286,o),
(257,294,q),
(247,302,o),
(231,321,q),
(199,359,o),
(199,436,q),
(199,559,l),
(199,629,o),
(189,659.5,q),
(179,690,o),
(160.5,701.5,q),
(142,713,o),
(111,713,q),
(80,713,o),
(44,709,q),
(42,713,o),
(35,737,q),
(36,743,l),
(88,756,o),
(129,756,q),
(170,756,o),
(199,743,q),
(228,730,o),
(243.5,711.5,q),
(259,693,o),
(267,660,q),
(279,612,o),
(279,537,q),
(279,412,l),
(279,372,o),
(295,341.5,q),
(311,311,o),
(324.5,300.5,q),
(338,290,o),
(362,275,q),
(362,268,l),
(302,236,o),
(288,193,q),
(280,170,o),
(280,139,q),
(280,46,l),
(280,-86,o),
(244,-128,q),
(207,-173,o),
(129,-173,q),
(89,-173,o),
(37,-160,q),
(36,-154,l),
(43,-130,o),
(45,-126,q),
(81,-130,o),
(109,-130,q),
(137,-130,o),
(154,-120.5,q),
(171,-111,o),
(179.5,-98.5,q),
(188,-86,o),
(192,-62,q),
(199,-27,o),
(199,29,q)
);
}
);
width = 415;
}
);
unicode = 125;
},
{
category = Letter;
glyphname = asciitilde;
layers = (
{
layerId = "58b1ce0d-85ae-4bf6-adce-557510bd0e95";
name = Fore;
shapes = (
{
closed = 1;
nodes = (
(389,222,o),
(321,246,q),
(253,270,o),
(221,270,q),
(167,270,o),
(112,231,q),
(80,297,l),
(162,340,o),
(215,340,q),
(246,340,o),
(317,315.5,q),
(388,291,o),
(421,291,q),
(476,291,o),
(528,327,q),
(560,262,l),
(484,222,o),
(422,222,q)
);
}
);
width = 640;
}
);
unicode = 126;
},
{
category = Letter;
glyphname = exclamdown;
layers = (
{
layerId = "58b1ce0d-85ae-4bf6-adce-557510bd0e95";
name = Fore;
shapes = (
{
closed = 1;
nodes = (
(169,306,o),
(169,261,q),
(169,216,o),
(171,126,q),
(173,36,o),
(174,6,q),
(175,-24,o),
(176,-43.5,q),
(177,-63,o),
(178,-77.5,q),
(179,-92,o),
(180,-107,q),
(187,-177,o),
(218,-199,q),
(218,-209,l),
(81,-233,l),
(75,-223,l),
(81,-178,o),
(99,301,q),
(170,314,l)
);
},
{
closed = 1;
nodes = (
(179,415,o),
(179,411,q),
(171,403,l),
(120,390,o),
(87,388,q),
(77,392,l),
(64,420,o),
(64,458,q),
(64,463,o),
(64,468,q),
(72,476,l),
(119,491,o),
(154,491,q),
(158,491,o),
(167,486,q),
(179,456,o),
(179,419,q)
);
}
);
width = 268;
}
);
unicode = 161;
},
{
category = Letter;
glyphname = cent;
layers = (
{
layerId = "58b1ce0d-85ae-4bf6-adce-557510bd0e95";
name = Fore;
shapes = (
{
closed = 1;
nodes = (
(40,126,o),
(40,230,q),
(40,334,o),
(101.5,404.5,q),
(163,475,o),
(252,490,q),
(252,540,o),
(248,584,q),
(303,610,l),
(307,603,l),
(300,543,o),
(300,493,q),
(386,489,o),
(443,450,q),
(404,388,o),
(392,375,q),
(346,410,o),
(300,422,q),
(300,70,l),
(337,77,o),
(374.5,92,q),
(412,107,o),
(424,116,q),
(449,77,l),
(444,73,l),
(362,15,o),
(300,-3,q),
(300,-80,o),
(304,-115,q),
(245,-131,l),
(241,-124,l),
(250,-63,o),
(251,-11,q),
(153,-10,o),
(96.5,58,q)
);
},
{
closed = 1;
nodes = (
(146,305,o),
(146,238,q),
(146,171,o),
(171.5,120.5,q),
(197,70,o),
(252,66,q),
(252,427,l),
(241,427,o),
(217,424,q),
(184,404,o),
(165,354.5,q)
);
}
);
width = 486;
}
);
unicode = 162;
},
{
category = Letter;
glyphname = sterling;
layers = (
{
layerId = "58b1ce0d-85ae-4bf6-adce-557510bd0e95";
name = Fore;
shapes = (
{
closed = 1;
nodes = (
(191,251,o),
(152,350,q),
(150,350,l),
(85,350,o),
(16,344,q),
(41,408,l),
(48,408,l),
(89,399,o),
(129,399,q),
(88,477,o),
(88,531,q),
(88,602,o),
(148.5,657,q),
(209,712,o),
(307.5,712,q),
(406,712,o),
(463,675,q),
(427,620,o),
(419,611,q),
(358,656,o),
(296,656,q),
(274,656,o),
(254,653,q),
(227,637,o),
(210.5,603,q),
(194,569,o),
(194,530.5,q),
(194,492,o),
(227,400,q),
(248,400,o),
(294,402,q),
(340,404,o),
(363,404,q),
(338,341,l),
(331,341,l),
(293,346,o),
(248,348,q),
(279,273,o),
(279,234,q),
(279,152,o),
(173,60,q),
(371,60,o),
(461,121,q),
(471,121,l),
(444,0,l),
(14,0,l),
(48,50,l),
(118,65,o),
(154.5,108,q),
(191,151,o),
(191,211,q)
);
}
);
width = 492;
}
);
unicode = 163;
},
{
category = Letter;
glyphname = currency;
layers = (
{
layerId = "58b1ce0d-85ae-4bf6-adce-557510bd0e95";
name = Fore;
shapes = (
{
closed = 1;
nodes = (
(340,155,o),
(276.5,155,q),
(213,155,o),
(162,192,q),
(106,130,l),
(45,156,l),
(122,228,l),
(80,287,o),
(80,350,q),
(80,413,o),
(122,473,q),
(117,478,o),
(88,505,q),
(59,532,o),
(45,546,q),
(106,571,l),
(163,509,l),
(210,546,o),
(275,546,q),
(340,546,o),
(390,510,q),
(447,572,l),
(508,547,l),
(429,473,l),
(430,473,l),
(472,419,o),
(472,349.5,q),
(472,280,o),
(429,228,q),
(508,154,l),
(447,129,l),
(390,191,l)
);
},
{
closed = 1;
nodes = (
(402,297,o),
(402,351.5,q),
(402,406,o),
(365.5,444,q),
(329,482,o),
(275,482,q),
(221,482,o),
(185.5,444,q),
(150,406,o),
(150,351.5,q),
(150,297,o),
(185.5,259,q),
(221,221,o),
(275,221,q),
(329,221,o),
(365.5,259,q)
);
}
);
width = 553;
}
);
unicode = 164;
},
{
category = Letter;
glyphname = yen;
layers = (
{
layerId = "58b1ce0d-85ae-4bf6-adce-557510bd0e95";
name = Fore;
shapes = (
{
closed = 1;
nodes = (
(421,624,o),
(421,683,q),
(421,700,l),
(537,700,l),
(537,690,l),
(511,671,o),
(458,564,q),
(449,545,o),
(420,488,q),
(356,363,o),
(329,306,q),
(405,306,l),
(449,306,o),
(544,313,q),
(521,245,l),
(328,245,l),
(328,210,l),
(328,175,o),
(332.5,103,q),
(337,31,o),
(342,7,q),
(342,0,l),
(214,0,l),
(214,7,l),
(228,68,o),
(228,183,q),
(228,245,l),
(149,245,l),
(104,245,o),
(10,238,q),
(37,306,l),
(222,306,l),
(132,482,l),
(33,671,o),
(2,690,q),
(2,700,l),
(150,700,l),
(150,683,l),
(150,644,o),
(182.5,574,q),
(215,504,o),
(231,470,q),
(247,436,o),
(252,429,q),
(262,412,o),
(294,347,q)
);
}
);
width = 544;
}
);
unicode = 165;
},
{
category = Letter;
glyphname = brokenbar;
layers = (
{
layerId = "58b1ce0d-85ae-4bf6-adce-557510bd0e95";
name = Fore;
shapes = (
{
closed = 1;
nodes = (
(147,-118,l),
(74,-148,l),
(73,233,l),
(147,233,l)
);
},
{
closed = 1;
nodes = (
(73,368,l),
(73,713,l),
(154,743,l),
(147,648,o),
(147,604,q),
(147,368,l)
);
}
);
width = 227;
}
);
unicode = 166;
},
{
category = Letter;
glyphname = section;
layers = (
{
layerId = "58b1ce0d-85ae-4bf6-adce-557510bd0e95";
name = Fore;
shapes = (
{
closed = 1;
nodes = (
(329,24,o),
(275,106,q),
(237,163,o),
(160,238,q),
(129,267,o),
(104,298,q),
(47,369,o),
(47,466,q),
(47,586,o),
(122,651.5,q),
(197,717,o),
(289.5,717,q),
(382,717,o),
(457,684,q),
(455,632,o),
(425,587,q),
(361,658,o),
(284,658,q),
(250,658,o),
(222,647,q),
(222,542,o),
(280,470,q),
(305,439,o),
(336,410.5,q),
(367,382,o),
(398,353,q),
(429,324,o),
(455,292,q),
(513,219,o),
(513,110,q),
(513,-19,o),
(439.5,-99,q),
(366,-179,o),
(265,-179,q),
(219,-179,o),
(165.5,-162,q),
(112,-145,o),
(73,-115,q),
(76,-54,o),
(105,-15,q),
(192,-114,o),
(285,-114,q),
(309,-114,o),
(329,-109,q),
(329,-105,o),
(329,-101,q)
);
},
{
closed = 1;
nodes = (
(359,292,o),
(330.5,319.5,q),
(302,347,o),
(273,376,q),
(244,405,o),
(220,437,q),
(168,508,o),
(168,620,q),
(117,575,o),
(117,482,q),
(117,397,o),
(172,332,q),
(197,304,o),
(226,275,q),
(255,246,o),
(284,213,q),
(313,180,o),
(336,142,q),
(385,62,o),
(385,-63,q),
(385,-72,o),
(385,-81,q),
(436,-21,o),
(436,86.5,q),
(436,194,o),
(382,262,q)
);
}
);
width = 566;
}
);
unicode = 167;
},
{
category = Letter;
glyphname = dieresis;
layers = (
{
layerId = "58b1ce0d-85ae-4bf6-adce-557510bd0e95";
name = Fore;
shapes = (
{
closed = 1;
nodes = (
(411,679,o),
(414.5,657.5,q),
(418,636,o),
(418,625,q),
(418,614,o),
(417,607,q),
(409,600,l),
(372,588,o),
(335,585,q),
(323,585,l),
(313,588,l),
(298,618,o),
(298,668,q),
(308,676,l),
(344,689,o),
(379,691,q),
(396,691,l),
(404,687,l)
);
},
{
closed = 1;
nodes = (
(195,670,o),
(198.5,648.5,q),
(202,627,o),
(202,616,q),
(202,605,o),
(201,598,q),
(193,591,l),
(157,579,o),
(120,576,q),
(107,576,l),
(97,579,l),
(82,609,o),
(82,658,q),
(92,667,l),
(130,680,o),
(164,682,q),
(180,682,l),
(188,678,l)
);
}
);
width = 500;
}
);
unicode = 168;
},
{
category = Letter;
glyphname = copyright;
layers = (
{
layerId = "58b1ce0d-85ae-4bf6-adce-557510bd0e95";
name = Fore;
shapes = (
{
closed = 1;
nodes = (
(727,504,o),
(727,356,q),
(727,208,o),
(626.5,103.5,q),
(526,-1,o),
(381,-1,q),
(236,-1,o),
(133.5,103.5,q),
(31,208,o),
(31,355,q),
(31,502,o),
(133.5,606.5,q),
(236,711,o),
(380,711,q),
(524,711,o),
(625.5,607.5,q)
);
},
{
closed = 1;
nodes = (
(667,230,o),
(667,354,q),
(667,478,o),
(583.5,566,q),
(500,654,o),
(381,654,q),
(262,654,o),
(178,566,q),
(94,478,o),
(94,354.5,q),
(94,231,o),
(178,143.5,q),
(262,56,o),
(379.5,56,q),
(497,56,o),
(582,143,q)
);
},
{
closed = 1;
nodes = (
(296,412,o),
(296,359.5,q),
(296,307,o),
(318,268,q),
(340,229,o),
(387,229,q),
(419,229,o),
(462,243.5,q),
(505,258,o),
(517,267,q),
(536,237,l),
(436,170,o),
(380,170,q),
(298,170,o),
(250.5,222,q),
(203,274,o),
(203,358,q),
(203,442,o),
(265,498.5,q),
(327,555,o),
(404,555,q),
(481,555,o),
(531,522,q),
(501,475,o),
(491,465,q),
(435,505,o),
(388,505,q),
(371,505,o),
(351,502,q),
(325,488,o),
(310.5,450,q)
);
}
);
width = 758;
}
);
unicode = 169;
},
{
category = Letter;
glyphname = ordfeminine;
layers = (
{
layerId = "58b1ce0d-85ae-4bf6-adce-557510bd0e95";
name = Fore;
shapes = (
{
closed = 1;
nodes = (
(190,537,o),
(159.5,537,q),
(129,537,o),
(115,526,q),
(107,510,o),
(107,491,q),
(107,443,o),
(150,443,q),
(166,443,o),
(185.5,453,q),
(205,463,o),
(213,475,q),
(213,528,l)
);
},
{
closed = 1;
nodes = (
(179,399,o),
(132.5,399,q),
(86,399,o),
(57.5,420,q),
(29,441,o),
(29,488,q),
(29,575,o),
(157,575,q),
(214,573,l),
(214,605,l),
(214,635,o),
(198.5,654,q),
(183,673,o),
(155,673,q),
(127,673,o),
(66,617,q),
(40,650,o),
(37,687,q),
(108,709,o),
(164.5,709,q),
(221,709,o),
(254.5,682.5,q),
(288,656,o),
(288,607,q),
(288,505,l),
(288,442,o),
(318,420,q),
(320,413,l),
(237,398,l),
(228,417,o),
(223,438,q)
);
}
);
width = 355;
}
);
unicode = 170;
},
{
category = Letter;
glyphname = guillemotleft;
layers = (
{
layerId = "58b1ce0d-85ae-4bf6-adce-557510bd0e95";
name = Fore;
shapes = (
{
closed = 1;
nodes = (
(63,283,l),
(112,314,o),
(120,321,q),
(269,456,l),
(306,421,l),
(286,398,l),
(169,272,l),
(306,122,l),
(268,85,l),
(264,89,o),
(256,98,q),
(237,118,o),
(227,126,q),
(102,238,l),
(67,268,l)
);
},
{
closed = 1;
nodes = (
(269,283,l),
(318,314,o),
(326,321,q),
(475,456,l),
(512,421,l),
(492,398,l),
(375,272,l),
(512,122,l),
(474,85,l),
(470,89,o),
(462,98,q),
(443,118,o),
(433,126,q),
(308,238,l),
(273,268,l)
);
}
);
width = 574;
}
);
unicode = 171;
},
{
category = Letter;
glyphname = logicalnot;
layers = (
{
layerId = "58b1ce0d-85ae-4bf6-adce-557510bd0e95";
name = Fore;
shapes = (
{
closed = 1;
nodes = (
(495,142,l),
(495,359,l),
(4,359,l),
(4,427,l),
(565,427,l),
(565,142,l)
);
}
);
width = 569;
}
);
unicode = 172;
},
{
category = Letter;
glyphname = uni00AD;
layers = (
{
layerId = "58b1ce0d-85ae-4bf6-adce-557510bd0e95";
name = Fore;
shapes = (
{
closed = 1;
nodes = (
(78,314,o),
(128,314,q),
(214,315,l),
(236,315,o),
(282.5,317,q),
(329,319,o),
(353,319,q),
(323,241,l),
(316,241,l),
(248,250,o),
(135,250,q),
(1,244,l),
(31,323,l),
(38,323,l)
);
}
);
width = 354;
}
);
unicode = 173;
},
{
category = Letter;
glyphname = registered;
layers = (
{
layerId = "58b1ce0d-85ae-4bf6-adce-557510bd0e95";
name = Fore;
shapes = (
{
closed = 1;
nodes = (
(727,504,o),
(727,356,q),
(727,208,o),
(626.5,103.5,q),
(526,-1,o),
(381,-1,q),
(236,-1,o),
(133.5,103.5,q),
(31,208,o),
(31,355,q),
(31,502,o),
(133.5,606.5,q),
(236,711,o),
(380,711,q),
(524,711,o),
(625.5,607.5,q)
);
},
{
closed = 1;
nodes = (
(667,230,o),
(667,354,q),
(667,478,o),
(583.5,566,q),
(500,654,o),
(381,654,q),
(262,654,o),
(178,566,q),
(94,478,o),
(94,354.5,q),
(94,231,o),
(178,143.5,q),
(262,56,o),
(379.5,56,q),
(497,56,o),
(582,143,q)
);
},
{
closed = 1;
nodes = (
(389,551,l),
(456,551,o),
(495,533,q),
(534,515,o),
(534,465,q),
(534,415,o),
(501,384,q),
(468,353,o),
(419,347,q),
(481,269,l),
(543,191,o),
(574,181,q),
(574,176,l),
(460,176,l),
(436,210,o),
(345,345,q),
(333,345,o),
(325,347,q),
(325,263,l),
(325,203,o),
(332,180,q),
(332,176,l),
(231,176,l),
(231,180,l),
(242,208,o),
(242,258,q),
(242,465,l),
(242,523,o),
(233,548,q),
(233,551,l),
(274,550,l)
);
},
{
closed = 1;
nodes = (
(409,524,o),
(373,524,q),
(337,524,o),
(326,522,q),
(325,510,o),
(325,372,q),
(338,371,o),
(362,371,q),
(407,371,o),
(425,391.5,q),
(443,412,o),
(443,452.5,q),
(443,493,o),
(426,508.5,q)
);
}
);
width = 758;
}
);
unicode = 174;
},
{
category = Letter;
glyphname = macron;
layers = (
{
layerId = "58b1ce0d-85ae-4bf6-adce-557510bd0e95";
name = Fore;
shapes = (
{
closed = 1;
nodes = (
(113,597,l),
(113,674,l),
(387,674,l),
(387,597,l)
);
}
);
width = 500;
}
);
unicode = 175;
},
{
category = Letter;
glyphname = degree;
layers = (
{
layerId = "58b1ce0d-85ae-4bf6-adce-557510bd0e95";
name = Fore;
shapes = (
{
closed = 1;
nodes = (
(242,707,o),
(282,668,q),
(322,629,o),
(322,566.5,q),
(322,504,o),
(283.5,464,q),
(245,424,o),
(182.5,424,q),
(120,424,o),
(79.5,462.5,q),
(39,501,o),
(39,563.5,q),
(39,626,o),
(78.5,666.5,q),
(118,707,o),
(180,707,q)
);
},
{
closed = 1;
nodes = (
(138,479,o),
(190,479,q),
(242,479,o),
(267,504,q),
(277,525,o),
(277,554,q),
(277,652,o),
(174,652,q),
(120,652,o),
(95,625,q),
(85,604,o),
(85,561.5,q),
(85,519,o),
(111.5,499,q)
);
}
);
width = 361;
}
);
unicode = 176;
},
{
category = Letter;
glyphname = plusminus;
layers = (
{
layerId = "58b1ce0d-85ae-4bf6-adce-557510bd0e95";
name = Fore;
shapes = (
{
closed = 1;
nodes = (
(558,448,l),
(557,382,l),
(330,382,l),
(330,162,l),
(262,162,l),
(262,382,l),
(42,382,l),
(43,449,l),
(262,448,l),
(263,668,l),
(330,667,l),
(330,448,l)
);
},
{
closed = 1;
nodes = (
(557,11,l),
(42,11,l),
(43,78,l),
(558,77,l)
);
}
);
width = 600;
}
);
unicode = 177;
},
{
category = Letter;
glyphname = twosuperior;
layers = (
{
layerId = "58b1ce0d-85ae-4bf6-adce-557510bd0e95";
name = Fore;
shapes = (
{
closed = 1;
nodes = (
(158,668,o),
(125.5,645,q),
(93,622,o),
(71,596,q),
(41,628,o),
(39,675,q),
(113,712,o),
(178.5,712,q),
(244,712,o),
(276.5,687,q),
(309,662,o),
(309,623,q),
(309,584,o),
(293,547,q),
(277,510,o),
(243,468,q),
(191,405,o),
(119,333,q),
(183,333,l),
(293,339,o),
(322,364,q),
(327,360,l),
(303,279,l),
(45,279,l),
(33,319,l),
(152,438,o),
(186,492,q),
(227,559,o),
(227,613.5,q),
(227,668,o),
(181,668,q)
);
}
);
width = 361;
}
);
unicode = 178;
},
{
category = Letter;
glyphname = threesuperior;
layers = (
{
layerId = "58b1ce0d-85ae-4bf6-adce-557510bd0e95";
name = Fore;
shapes = (
{
closed = 1;
nodes = (
(312,507,o),
(312,413,q),
(312,354,o),
(265,314,q),
(218,274,o),
(147.5,274,q),
(77,274,o),
(24,308,q),
(24,312,o),
(24,315,q),
(24,352,o),
(42,371,q),
(101,323,o),
(141.5,323,q),
(182,323,o),
(201,333,q),
(230,356,o),
(230,417,q),
(230,456,o),
(210,472.5,q),
(190,489,o),
(149,489,q),
(108,489,o),
(90,486,q),
(87,486,l),
(77,528,l),
(129,528,l),
(161,528,o),
(182,551.5,q),
(203,575,o),
(203,606,q),
(203,670,o),
(150,670,q),
(101,670,o),
(50,612,q),
(30,644,o),
(27,688,q),
(97,712,o),
(152,712,q),
(207,712,o),
(245,691,q),
(283,670,o),
(283,627,q),
(283,584,o),
(258.5,555.5,q),
(234,527,o),
(208,521,q)
);
}
);
width = 338;
}
);
unicode = 179;
},
{
category = Letter;
glyphname = acute;
layers = (
{
layerId = "58b1ce0d-85ae-4bf6-adce-557510bd0e95";
name = Fore;
shapes = (
{
closed = 1;
nodes = (
(257,579,o),
(168,530,q),
(145,556,l),
(233,636,o),
(287,732,q),
(330,715,o),
(355,674,q)
);
}
);
width = 500;
}
);
unicode = 180;
},
{
category = Letter;
glyphname = mu;
layers = (
{
layerId = "58b1ce0d-85ae-4bf6-adce-557510bd0e95";
name = Fore;
shapes = (
{
closed = 1;
nodes = (
(280,-11,o),
(238,-11,q),
(196,-11,o),
(163,2,q),
(174,-75,o),
(193,-115,q),
(220,-172,o),
(269,-201,q),
(271,-213,l),
(111,-240,l),
(88,-36,o),
(88,90,q),
(88,310,l),
(88,405,o),
(58,473,q),
(58,480,l),
(197,480,l),
(197,473,l),
(182,420,o),
(182,340,q),
(182,183,l),
(182,123,o),
(197,97,q),
(212,71,o),
(270,71,q),
(328,71,o),
(406,126,q),
(406,310,l),
(406,407,o),
(377,473,q),
(377,480,l),
(515,480,l),
(515,473,l),
(500,420,o),
(500,340,q),
(500,171,l),
(500,127,o),
(515,84.5,q),
(530,42,o),
(550,28,q),
(551,16,l),
(434,-12,l),
(417,34,o),
(410,76,q),
(358,32,o),
(319,10.5,q)
);
}
);
width = 605;
}
);
unicode = (181,956);
},
{
category = Letter;
glyphname = paragraph;
layers = (
{
layerId = "58b1ce0d-85ae-4bf6-adce-557510bd0e95";
name = Fore;
shapes = (
{
closed = 1;
nodes = (
(416,648,l),
(327,648,l),
(324,418,o),
(324,141,q),
(324,-136,o),
(328,-178,q),
(244,-194,l),
(240,-187,l),
(251,-110,o),
(251,-39,q),
(251,213,l),
(139,214,o),
(72,285,q),
(5,356,o),
(5,458.5,q),
(5,561,o),
(73.5,627,q),
(142,693,o),
(253,693,q),
(647,698,l),
(622,634,l),
(615,634,l),
(567,646,o),
(489,648,q),
(489,-113,l),
(489,-206,o),
(493,-248,q),
(409,-264,l),
(405,-257,l),
(416,-180,o),
(416,-109,q)
);
}
);
width = 660;
}
);
unicode = 182;
},
{
category = Letter;
glyphname = periodcentered;
layers = (
{
layerId = "58b1ce0d-85ae-4bf6-adce-557510bd0e95";
name = Fore;
shapes = (
{
closed = 1;
nodes = (
(223,329,o),
(223,275,q),
(223,262,o),
(221,251,q),
(211,242,l),
(161,227,o),
(98,223,q),
(86,228,l),
(69,261,o),
(69,311,q),
(69,317,o),
(69,322,q),
(79,331,l),
(134,350,o),
(185,350,q),
(190,350,o),
(195,350,q),
(206,344,l)
);
}
);
width = 294;
}
);
unicode = 183;
},
{
category = Letter;
glyphname = cedilla;
layers = (
{
layerId = "58b1ce0d-85ae-4bf6-adce-557510bd0e95";
name = Fore;
shapes = (
{
closed = 1;
nodes = (
(454,-103,o),
(454,-140.5,q),
(454,-178,o),
(422,-201,q),
(390,-224,o),
(345,-224,q),
(322,-224,o),
(289,-213.5,q),
(256,-203,o),
(243,-195,q),
(259,-163,l),
(293,-180,o),
(326,-180,q),
(378,-180,o),
(378,-135,q),
(378,-114,o),
(366,-102,q),
(351,-95,o),
(330.5,-95,q),
(310,-95,o),
(289,-99,q),
(283,-90,l),
(325,-2,l),
(379,-9,l),
(343,-68,l),
(353,-65,o),
(380,-65.5,q),
(407,-66,o),
(430.5,-84.5,q)
);
}
);
width = 500;
}
);
unicode = 184;
},
{
category = Letter;
glyphname = onesuperior;
layers = (
{
layerId = "58b1ce0d-85ae-4bf6-adce-557510bd0e95";
name = Fore;
shapes = (
{
closed = 1;
nodes = (
(191,398,l),
(191,314,o),
(200,276,q),
(200,272,l),
(102,272,l),
(102,276,l),
(112,305,o),
(112,393,q),
(112,572,l),
(112,614,o),
(109,629,q),
(62,618,o),
(23,617,q),
(16,657,l),
(91,673,o),
(129,700,q),
(194,700,l),
(191,649,o),
(191,631,q)
);
}
);
width = 262;
}
);
unicode = 185;
},
{
category = Letter;
glyphname = ordmasculine;
layers = (
{
layerId = "58b1ce0d-85ae-4bf6-adce-557510bd0e95";
name = Fore;
shapes = (
{
closed = 1;
nodes = (
(40,480,o),
(40,547,q),
(40,614,o),
(86.5,662,q),
(133,710,o),
(204.5,710,q),
(276,710,o),
(314.5,670,q),
(353,630,o),
(353,562,q),
(353,494,o),
(306.5,446,q),
(260,398,o),
(190.5,398,q),
(121,398,o),
(80.5,439,q)
);
},
{
closed = 1;
nodes = (
(275,480,o),
(275,542.5,q),
(275,605,o),
(256.5,637,q),
(238,669,o),
(191,669,q),
(159,669,o),
(143,657,q),
(118,627,o),
(118,562,q),
(118,438,o),
(207,438,q),
(235,438,o),
(251,450,q)
);
}
);
width = 393;
}
);
unicode = 186;
},
{
category = Letter;
glyphname = guillemotright;
layers = (
{
layerId = "58b1ce0d-85ae-4bf6-adce-557510bd0e95";
name = Fore;
shapes = (
{
closed = 1;
nodes = (
(507,268,l),
(472,238,l),
(334,114,o),
(322,101.5,q),
(310,89,o),
(306,85,q),
(268,122,l),
(405,272,l),
(288,398,l),
(268,421,l),
(305,456,l),
(454,321,l),
(462,314,o),
(511,283,q)
);
},
{
closed = 1;
nodes = (
(301,268,l),
(266,238,l),
(128,114,o),
(116,101.5,q),
(104,89,o),
(100,85,q),
(62,122,l),
(199,272,l),
(82,398,l),
(62,421,l),
(99,456,l),
(248,321,l),
(256,314,o),
(305,283,q)
);
}
);
width = 574;
}
);
unicode = 187;
},
{
category = Letter;
glyphname = onequarter;
layers = (
{
layerId = "58b1ce0d-85ae-4bf6-adce-557510bd0e95";
name = Fore;
shapes = (
{
closed = 1;
nodes = (
(671,39,o),
(680,3,q),
(680,0,l),
(585,0,l),
(585,3,l),
(590,29,o),
(592,96,q),
(592,101,l),
(510,101,o),
(427,101,q),
(402,145,l),
(498,309,o),
(572,422,q),
(672,429,l),
(670,375,o),
(670,159,q),
(686,159,o),
(716.5,161,q),
(747,163,o),
(749,163,q),
(737,101,l),
(671,101,l)
);
},
{
closed = 1;
nodes = (
(134,50,o),
(360,394,q),
(431,501,o),
(567,719,q),
(649,725,l),
(655,718,l),
(587,650,o),
(380,330,q),
(264,152,o),
(226,93,q),
(161,-14,l),
(77,-20,l),
(71,-13,l)
);
},
{
closed = 1;
nodes = (
(191,398,l),
(191,314,o),
(200,276,q),
(200,272,l),
(102,272,l),
(102,276,l),
(112,305,o),
(112,393,q),
(112,572,l),
(112,614,o),
(109,629,q),
(62,618,o),
(23,617,q),
(16,657,l),
(91,673,o),
(129,700,q),
(194,700,l),
(191,649,o),
(191,631,q)
);
},
{
closed = 1;
nodes = (
(593,373,l),
(531,276,o),
(464,156,q),
(507,156,o),
(593,158,q)
);
}
);
width = 774;
}
);
unicode = 188;
},
{
category = Letter;
glyphname = onehalf;
layers = (
{
layerId = "58b1ce0d-85ae-4bf6-adce-557510bd0e95";
name = Fore;
shapes = (
{
closed = 1;
nodes = (
(604,389,o),
(571.5,366,q),
(539,343,o),
(517,317,q),
(487,349,o),
(485,396,q),
(559,433,o),
(624.5,433,q),
(690,433,o),
(722.5,408,q),
(755,383,o),
(755,344,q),
(755,305,o),
(739,268,q),
(723,231,o),
(689,190,q),
(637,126,o),
(565,54,q),
(629,54,l),
(739,60,o),
(768,85,q),
(773,81,l),
(749,0,l),
(491,0,l),
(479,40,l),
(598,159,o),
(632,213,q),
(673,280,o),
(673,334.5,q),
(673,389,o),
(627,389,q)
);
},
{
closed = 1;
nodes = (
(132,50,o),
(358,394,q),
(429,501,o),
(565,719,q),
(647,725,l),
(653,718,l),
(585,650,o),
(378,330,q),
(262,152,o),
(224,93,q),
(159,-14,l),
(75,-20,l),
(69,-13,l)
);
},
{
closed = 1;
nodes = (
(191,398,l),
(191,314,o),
(200,276,q),
(200,272,l),
(102,272,l),
(102,276,l),
(112,305,o),
(112,393,q),
(112,572,l),
(112,614,o),
(109,629,q),
(62,618,o),
(23,617,q),
(16,657,l),
(91,673,o),
(129,700,q),
(194,700,l),
(191,649,o),
(191,631,q)
);
}
);
width = 807;
}
);
unicode = 189;
},
{
category = Letter;
glyphname = threequarters;
layers = (
{
layerId = "58b1ce0d-85ae-4bf6-adce-557510bd0e95";
name = Fore;
shapes = (
{
closed = 1;
nodes = (
(772,39,o),
(781,3,q),
(781,0,l),
(686,0,l),
(686,3,l),
(691,29,o),
(693,96,q),
(693,101,l),
(610,101,o),
(528,101,q),
(503,145,l),
(599,309,o),
(673,422,q),
(773,429,l),
(771,375,o),
(771,159,q),
(787,159,o),
(817.5,161,q),
(848,163,o),
(850,163,q),
(838,101,l),
(772,101,l)
);
},
{
closed = 1;
nodes = (
(312,507,o),
(312,413,q),
(312,354,o),
(265,314,q),
(218,274,o),
(147.5,274,q),
(77,274,o),
(24,308,q),
(24,312,o),
(24,315,q),
(24,352,o),
(42,371,q),
(101,323,o),
(141.5,323,q),
(182,323,o),
(201,333,q),
(230,356,o),
(230,417,q),
(230,456,o),
(210,472.5,q),
(190,489,o),
(149,489,q),
(108,489,o),
(90,486,q),
(87,486,l),
(77,528,l),
(129,528,l),
(161,528,o),
(182,551.5,q),
(203,575,o),
(203,606,q),
(203,670,o),
(150,670,q),
(101,670,o),
(50,612,q),
(30,644,o),
(27,688,q),
(97,712,o),
(152,712,q),
(207,712,o),
(245,691,q),
(283,670,o),
(283,627,q),
(283,584,o),
(258.5,555.5,q),
(234,527,o),
(208,521,q)
);
},
{
closed = 1;
nodes = (
(201,50,o),
(427,394,q),
(498,501,o),
(634,719,q),
(716,725,l),
(722,718,l),
(654,650,o),
(446,330,q),
(331,152,o),
(293,93,q),
(228,-14,l),
(144,-20,l),
(138,-13,l)
);
},
{
closed = 1;
nodes = (
(694,373,l),
(632,276,o),
(565,156,q),
(608,156,o),
(694,158,q)
);
}
);
width = 875;
}
);
unicode = 190;
},
{
category = Letter;
glyphname = questiondown;
layers = (
{
layerId = "58b1ce0d-85ae-4bf6-adce-557510bd0e95";
name = Fore;
shapes = (
{
closed = 1;
nodes = (
(133,14,o),
(133,-42,q),
(133,-154,o),
(227,-154,q),
(292,-154,o),
(361,-97,q),
(385,-140,o),
(385,-193,q),
(385,-199,o),
(385,-205,q),
(312,-232,o),
(224.5,-232,q),
(137,-232,o),
(87,-189.5,q),
(37,-147,o),
(37,-64,q),
(37,-15,o),
(56.5,30,q),
(76,75,o),
(100,103.5,q),
(124,132,o),
(157,156,q),
(196,186,o),
(231,203,q),
(231,208,o),
(231,226,q),
(231,244,o),
(220,280,q),
(220,287,l),
(240,291,o),
(263,291,q),
(286,291,o),
(310,287,q),
(310,280,l),
(299,233,o),
(299,214,q),
(299,195,o),
(300,189,q),
(288,180,l),
(223,135,o),
(178,74.5,q)
);
},
{
closed = 1;
nodes = (
(205,408,o),
(205,452,q),
(205,462,o),
(206,470,q),
(214,478,l),
(248,488,o),
(290,491,q),
(300,487,l),
(312,462,o),
(312,443,q),
(312,424,o),
(310,412,q),
(302,404,l),
(269,393,o),
(227,390,q),
(218,395,l)
);
}
);
width = 430;
}
);
unicode = 191;
},
{
category = Letter;
glyphname = Agrave;
layers = (
{
layerId = "58b1ce0d-85ae-4bf6-adce-557510bd0e95";
name = Fore;
shapes = (
{
closed = 1;
nodes = (
(351,751,l),
(237,760,o),
(122,806,q),
(128,852,o),
(159,887,q),
(246,821,o),
(361,784,q)
);
},
{
closed = 1;
nodes = (
(326,245,o),
(255.5,245,q),
(185,245,o),
(148,244,q),
(121,129,o),
(115,94,q),
(109,59,o),
(109,17,q),
(109,0,l),
(-27,0,l),
(-27,10,l),
(16,43,o),
(89,280,q),
(208,664,o),
(211,701,q),
(327,713,l),
(327,679,o),
(388,498.5,q),
(449,318,o),
(488,214,q),
(527,110,o),
(547.5,71,q),
(568,32,o),
(593,10,q),
(593,0,l),
(425,0,l),
(425,17,l),
(425,60,o),
(404,124,q),
(400,135,o),
(391.5,161,q),
(383,187,o),
(376.5,204,q),
(370,221,o),
(364,244,q)
);
},
{
closed = 1;
nodes = (
(346,301,l),
(329,358,o),
(294.5,480,q),
(260,602,o),
(253,626,q),
(239,592,o),
(200.5,447,q),
(162,302,o),
(162,301,q)
);
}
);
width = 562;
}
);
unicode = 192;
},
{
category = Letter;
glyphname = Aacute;
layers = (
{
layerId = "58b1ce0d-85ae-4bf6-adce-557510bd0e95";
name = Fore;
shapes = (
{
closed = 1;
nodes = (
(326,245,o),
(255.5,245,q),
(185,245,o),
(148,244,q),
(121,129,o),
(115,94,q),
(109,59,o),
(109,17,q),
(109,0,l),
(-27,0,l),
(-27,10,l),
(16,43,o),
(89,280,q),
(208,664,o),
(211,701,q),
(327,713,l),
(327,679,o),
(388,498.5,q),
(449,318,o),
(488,214,q),
(527,110,o),
(547.5,71,q),
(568,32,o),
(593,10,q),
(593,0,l),
(425,0,l),
(425,17,l),
(425,60,o),
(404,124,q),
(400,135,o),
(391.5,161,q),
(383,187,o),
(376.5,204,q),
(370,221,o),
(364,244,q)
);
},
{
closed = 1;
nodes = (
(346,301,l),
(329,358,o),
(294.5,480,q),
(260,602,o),
(253,626,q),
(239,592,o),
(200.5,447,q),
(162,302,o),
(162,301,q)
);
},
{
closed = 1;
nodes = (
(204,784,l),
(319,821,o),
(406,887,q),
(437,852,o),
(443,806,q),
(328,760,o),
(214,751,q)
);
}
);
width = 562;
}
);
unicode = 193;
},
{
category = Letter;
glyphname = Acircumflex;
layers = (
{
layerId = "58b1ce0d-85ae-4bf6-adce-557510bd0e95";
name = Fore;
shapes = (
{
closed = 1;
nodes = (
(305,903,l),
(331,850,o),
(380,805,q),
(397,789,o),
(430,761,q),
(402,730,l),
(331,771,o),
(262,845,q),
(196,779,o),
(134,735,q),
(105,765,l),
(192,841,o),
(225,903,q)
);
},
{
closed = 1;
nodes = (
(326,245,o),
(255.5,245,q),
(185,245,o),
(148,244,q),
(121,129,o),
(115,94,q),
(109,59,o),
(109,17,q),
(109,0,l),
(-27,0,l),
(-27,10,l),
(16,43,o),
(89,280,q),
(208,664,o),
(211,701,q),
(327,713,l),
(327,679,o),
(388,498.5,q),
(449,318,o),
(488,214,q),
(527,110,o),
(547.5,71,q),
(568,32,o),
(593,10,q),
(593,0,l),
(425,0,l),
(425,17,l),
(425,60,o),
(404,124,q),
(400,135,o),
(391.5,161,q),
(383,187,o),
(376.5,204,q),
(370,221,o),
(364,244,q)
);
},
{
closed = 1;
nodes = (
(346,301,l),
(329,358,o),
(294.5,480,q),
(260,602,o),
(253,626,q),
(239,592,o),
(200.5,447,q),
(162,302,o),
(162,301,q)
);
}
);
width = 562;
}
);
unicode = 194;
},
{
category = Letter;
glyphname = Atilde;
layers = (
{
layerId = "58b1ce0d-85ae-4bf6-adce-557510bd0e95";
name = Fore;
shapes = (
{
closed = 1;
nodes = (
(329,781,o),
(278.5,805,q),
(228,829,o),
(203.5,829,q),
(179,829,o),
(161,820.5,q),
(143,812,o),
(116,791,q),
(96,809,l),
(120,839,o),
(156.5,871.5,q),
(193,904,o),
(215.5,904,q),
(238,904,o),
(286.5,882.5,q),
(335,861,o),
(356,861,q),
(395,861,o),
(448,898,q),
(467,881,l),
(390,781,o),
(353,781,q)
);
},
{
closed = 1;
nodes = (
(326,245,o),
(255.5,245,q),
(185,245,o),
(148,244,q),
(121,129,o),
(115,94,q),
(109,59,o),
(109,17,q),
(109,0,l),
(-27,0,l),
(-27,10,l),
(16,43,o),
(89,280,q),
(208,664,o),
(211,701,q),
(327,713,l),
(327,679,o),
(388,498.5,q),
(449,318,o),
(488,214,q),
(527,110,o),
(547.5,71,q),
(568,32,o),
(593,10,q),
(593,0,l),
(425,0,l),
(425,17,l),
(425,60,o),
(404,124,q),
(400,135,o),
(391.5,161,q),
(383,187,o),
(376.5,204,q),
(370,221,o),
(364,244,q)
);
},
{
closed = 1;
nodes = (
(346,301,l),
(329,358,o),
(294.5,480,q),
(260,602,o),
(253,626,q),
(239,592,o),
(200.5,447,q),
(162,302,o),
(162,301,q)
);
}
);
width = 562;
}
);
unicode = 195;
},
{
category = Letter;
glyphname = Adieresis;
layers = (
{
layerId = "58b1ce0d-85ae-4bf6-adce-557510bd0e95";
name = Fore;
shapes = (
{
closed = 1;
nodes = (
(335,245,o),
(264.5,245,q),
(194,245,o),
(157,244,q),
(130,129,o),
(124,94,q),
(118,59,o),
(118,17,q),
(118,0,l),
(-18,0,l),
(-18,10,l),
(25,43,o),
(98,280,q),
(217,664,o),
(220,701,q),
(336,713,l),
(336,679,o),
(397,498.5,q),
(458,318,o),
(497,214,q),
(536,110,o),
(556.5,71,q),
(577,32,o),
(602,10,q),
(602,0,l),
(434,0,l),
(434,17,l),
(434,60,o),
(412,124,q),
(409,135,o),
(400.5,161,q),
(392,187,o),
(385.5,204,q),
(379,221,o),
(373,244,q)
);
},
{
closed = 1;
nodes = (
(355,301,l),
(338,358,o),
(303.5,480,q),
(269,602,o),
(262,626,q),
(248,592,o),
(209.5,447,q),
(171,302,o),
(171,301,q)
);
},
{
closed = 1;
nodes = (
(237,838,o),
(240.5,817,q),
(244,796,o),
(244,785,q),
(244,774,o),
(243,768,q),
(235,761,l),
(199,749,o),
(163,746,q),
(151,746,l),
(141,749,l),
(126,779,o),
(126,827,q),
(136,835,l),
(172,848,o),
(206,850,q),
(222,850,l),
(230,846,l)
);
},
{
closed = 1;
nodes = (
(435,847,o),
(438.5,825.5,q),
(442,804,o),
(442,793.5,q),
(442,783,o),
(441,777,q),
(433,770,l),
(397,758,o),
(361,755,q),
(349,755,l),
(339,758,l),
(324,788,o),
(324,836,q),
(334,844,l),
(370,857,o),
(404,859,q),
(420,859,l),
(428,855,l)
);
}
);
width = 595;
}
);
unicode = 196;
},
{
category = Letter;
glyphname = Aring;
layers = (
{
layerId = "58b1ce0d-85ae-4bf6-adce-557510bd0e95";
name = Fore;
shapes = (
{
closed = 1;
nodes = (
(335,245,o),
(264.5,245,q),
(194,245,o),
(157,244,q),
(130,129,o),
(124,94,q),
(118,59,o),
(118,17,q),
(118,0,l),
(-18,0,l),
(-18,10,l),
(25,43,o),
(98,280,q),
(217,664,o),
(220,701,q),
(234,702,l),
(208,713,o),
(189.5,737.5,q),
(171,762,o),
(171,790,q),
(171,835,o),
(201,865,q),
(231,895,o),
(273,895,q),
(316,895,o),
(343,867,q),
(370,839,o),
(370,801,q),
(370,741,o),
(320,711,q),
(336,713,l),
(336,679,o),
(397,498.5,q),
(458,318,o),
(497,214,q),
(536,110,o),
(556.5,71,q),
(577,32,o),
(602,10,q),
(602,0,l),
(434,0,l),
(434,17,l),
(434,60,o),
(412,124,q),
(409,135,o),
(400.5,161,q),
(392,187,o),
(385.5,204,q),
(379,221,o),
(373,244,q)
);
},
{
closed = 1;
nodes = (
(355,301,l),
(338,358,o),
(303.5,480,q),
(269,602,o),
(262,626,q),
(248,592,o),
(209.5,447,q),
(171,302,o),
(171,301,q)
);
},
{
closed = 1;
nodes = (
(215,852,o),
(215,804,q),
(215,774,o),
(231,758.5,q),
(247,743,o),
(272.5,743,q),
(298,743,o),
(312,752,q),
(325,765,o),
(325,792.5,q),
(325,820,o),
(309.5,836,q),
(294,852,o),
(264,852,q)
);
}
);
width = 595;
}
);
unicode = 197;
},
{
category = Letter;
glyphname = AE;
layers = (
{
layerId = "58b1ce0d-85ae-4bf6-adce-557510bd0e95";
name = Fore;
shapes = (
{
closed = 1;
nodes = (
(713,643,o),
(629.5,643,q),
(546,643,o),
(523,641,q),
(521,603,o),
(521,375,q),
(759,380,l),
(730,311,l),
(723,311,l),
(655,319,o),
(615,319,q),
(575,319,o),
(521,316,q),
(521,93,o),
(525,63,q),
(548,60,o),
(601,60,q),
(758,60,o),
(830,92,q),
(837,92,l),
(819,0,l),
(400,0,l),
(400,7,l),
(416,69,o),
(416,210,q),
(416,272,l),
(338,272,l),
(282,272,o),
(240,271,q),
(215,229,o),
(167,129,q),
(119,29,o),
(119,0,q),
(-10,0,l),
(-10,10,l),
(13,25,o),
(58,93,q),
(70,111,o),
(85,137,q),
(100,163,o),
(111.5,182,q),
(123,201,o),
(138.5,229.5,q),
(154,258,o),
(162,273,q),
(194,333,o),
(246,430,q),
(369,656,o),
(375,700,q),
(400,700,l),
(804,703,l),
(779,628,l),
(772,628,l)
);
},
{
closed = 1;
nodes = (
(416,530,o),
(412,600,q),
(406,600,l),
(268,330,l),
(416,330,l),
(416,490,l)
);
}
);
width = 865;
}
);
unicode = 198;
},
{
category = Letter;
glyphname = Ccedilla;
layers = (
{
layerId = "58b1ce0d-85ae-4bf6-adce-557510bd0e95";
name = Fore;
shapes = (
{
closed = 1;
nodes = (
(49,509,o),
(154.5,610.5,q),
(260,712,o),
(432,712,q),
(465,712,o),
(517.5,700,q),
(570,688,o),
(615,664,q),
(603,601,o),
(573,558,q),
(471,641,o),
(356,641,q),
(314,641,o),
(280,634,q),
(162,544,o),
(162,367,q),
(162,246,o),
(231.5,158.5,q),
(301,71,o),
(415,71,q),
(483,71,o),
(603,139,q),
(630,98,l),
(525,22,o),
(455,1,q),
(422,-9,o),
(391,-12,q),
(359,-65,l),
(369,-62,o),
(396,-62.5,q),
(423,-63,o),
(446.5,-81.5,q),
(470,-100,o),
(470,-137.5,q),
(470,-175,o),
(438,-198,q),
(406,-221,o),
(361,-221,q),
(338,-221,o),
(305,-210.5,q),
(272,-200,o),
(259,-192,q),
(275,-160,l),
(309,-177,o),
(342,-177,q),
(394,-177,o),
(394,-132,q),
(394,-111,o),
(382,-99,q),
(367,-92,o),
(346.5,-92,q),
(326,-92,o),
(305,-96,q),
(299,-87,l),
(335,-11,l),
(210,2,o),
(129.5,95.5,q),
(49,189,o),
(49,336,q)
);
}
);
width = 658;
}
);
unicode = 199;
},
{
category = Letter;
glyphname = Egrave;
layers = (
{
layerId = "58b1ce0d-85ae-4bf6-adce-557510bd0e95";
name = Fore;
shapes = (
{
closed = 1;
nodes = (
(421,643,o),
(337.5,643,q),
(254,643,o),
(231,641,q),
(229,603,o),
(229,395,q),
(467,400,l),
(438,331,l),
(431,331,l),
(363,339,o),
(323,339,q),
(283,339,o),
(229,336,q),
(229,93,o),
(233,63,q),
(256,60,o),
(309,60,q),
(466,60,o),
(538,92,q),
(545,92,l),
(527,0,l),
(108,0,l),
(108,7,l),
(124,69,o),
(124,210,q),
(124,490,l),
(124,631,o),
(108,693,q),
(108,700,l),
(512,703,l),
(487,628,l),
(480,628,l)
);
},
{
closed = 1;
nodes = (
(397,751,l),
(283,760,o),
(168,806,q),
(174,852,o),
(205,887,q),
(292,821,o),
(407,784,q)
);
}
);
width = 573;
}
);
unicode = 200;
},
{
category = Letter;
glyphname = Eacute;
layers = (
{
layerId = "58b1ce0d-85ae-4bf6-adce-557510bd0e95";
name = Fore;
shapes = (
{
closed = 1;
nodes = (
(421,643,o),
(337.5,643,q),
(254,643,o),
(231,641,q),
(229,603,o),
(229,395,q),
(467,400,l),
(438,331,l),
(431,331,l),
(363,339,o),
(323,339,q),
(283,339,o),
(229,336,q),
(229,93,o),
(233,63,q),
(256,60,o),
(309,60,q),
(466,60,o),
(538,92,q),
(545,92,l),
(527,0,l),
(108,0,l),
(108,7,l),
(124,69,o),
(124,210,q),
(124,490,l),
(124,631,o),
(108,693,q),
(108,700,l),
(512,703,l),
(487,628,l),
(480,628,l)
);
},
{
closed = 1;
nodes = (
(238,784,l),
(353,821,o),
(440,887,q),
(471,852,o),
(477,806,q),
(362,760,o),
(248,751,q)
);
}
);
width = 573;
}
);
unicode = 201;
},
{
category = Letter;
glyphname = Ecircumflex;
layers = (
{
layerId = "58b1ce0d-85ae-4bf6-adce-557510bd0e95";
name = Fore;
shapes = (
{
closed = 1;
nodes = (
(421,643,o),
(337.5,643,q),
(254,643,o),
(231,641,q),
(229,603,o),
(229,395,q),
(467,400,l),
(438,331,l),
(431,331,l),
(363,339,o),
(323,339,q),
(283,339,o),
(229,336,q),
(229,93,o),
(233,63,q),
(256,60,o),
(309,60,q),
(466,60,o),
(538,92,q),
(545,92,l),
(527,0,l),
(108,0,l),
(108,7,l),
(124,69,o),
(124,210,q),
(124,490,l),
(124,631,o),
(108,693,q),
(108,700,l),
(512,703,l),
(487,628,l),
(480,628,l)
);
},
{
closed = 1;
nodes = (
(372,903,l),
(398,850,o),
(446,805,q),
(464,789,o),
(497,761,q),
(469,730,l),
(398,771,o),
(329,845,q),
(263,779,o),
(201,735,q),
(172,765,l),
(259,841,o),
(292,903,q)
);
}
);
width = 573;
}
);
unicode = 202;
},
{
category = Letter;
glyphname = Edieresis;
layers = (
{
layerId = "58b1ce0d-85ae-4bf6-adce-557510bd0e95";
name = Fore;
shapes = (
{
closed = 1;
nodes = (
(421,643,o),
(337.5,643,q),
(254,643,o),
(231,641,q),
(229,603,o),
(229,395,q),
(467,400,l),
(438,331,l),
(431,331,l),
(363,339,o),
(323,339,q),
(283,339,o),
(229,336,q),
(229,93,o),
(233,63,q),
(256,60,o),
(309,60,q),
(466,60,o),
(538,92,q),
(545,92,l),
(527,0,l),
(108,0,l),
(108,7,l),
(124,69,o),
(124,210,q),
(124,490,l),
(124,631,o),
(108,693,q),
(108,700,l),
(512,703,l),
(487,628,l),
(480,628,l)
);
},
{
closed = 1;
nodes = (
(481,846,o),
(484.5,825,q),
(488,804,o),
(488,793,q),
(488,782,o),
(487,776,q),
(479,769,l),
(443,757,o),
(407,754,q),
(395,754,l),
(385,757,l),
(370,787,o),
(370,835,q),
(380,843,l),
(416,856,o),
(450,858,q),
(466,858,l),
(474,854,l)
);
},
{
closed = 1;
nodes = (
(283,837,o),
(286.5,815.5,q),
(290,794,o),
(290,783.5,q),
(290,773,o),
(289,767,q),
(281,760,l),
(245,748,o),
(209,745,q),
(197,745,l),
(187,748,l),
(172,778,o),
(172,826,q),
(182,834,l),
(218,847,o),
(252,849,q),
(268,849,l),
(276,845,l)
);
}
);
width = 573;
}
);
unicode = 203;
},
{
category = Letter;
glyphname = Igrave;
layers = (
{
layerId = "58b1ce0d-85ae-4bf6-adce-557510bd0e95";
name = Fore;
shapes = (
{
closed = 1;
nodes = (
(226,210,l),
(226,173,o),
(230.5,101.5,q),
(235,30,o),
(241,7,q),
(241,0,l),
(108,0,l),
(108,7,l),
(123,65,o),
(123,220,q),
(123,490,l),
(123,635,o),
(108,693,q),
(108,700,l),
(241,700,l),
(241,693,l),
(235,670,o),
(230.5,594,q),
(226,518,o),
(226,480,q)
);
},
{
closed = 1;
nodes = (
(243,751,l),
(129,760,o),
(14,806,q),
(20,852,o),
(51,887,q),
(138,821,o),
(253,784,q)
);
}
);
width = 353;
}
);
unicode = 204;
},
{
category = Letter;
glyphname = Iacute;
layers = (
{
layerId = "58b1ce0d-85ae-4bf6-adce-557510bd0e95";
name = Fore;
shapes = (
{
closed = 1;
nodes = (
(232,210,l),
(232,173,o),
(236.5,101.5,q),
(241,30,o),
(247,7,q),
(247,0,l),
(114,0,l),
(114,7,l),
(129,65,o),
(129,220,q),
(129,490,l),
(129,635,o),
(114,693,q),
(114,700,l),
(247,700,l),
(247,693,l),
(241,670,o),
(236.5,594,q),
(232,518,o),
(232,480,q)
);
},
{
closed = 1;
nodes = (
(101,784,l),
(216,821,o),
(303,887,q),
(334,852,o),
(340,806,q),
(225,760,o),
(111,751,q)
);
}
);
width = 353;
}
);
unicode = 205;
},
{
category = Letter;
glyphname = Icircumflex;
layers = (
{
layerId = "58b1ce0d-85ae-4bf6-adce-557510bd0e95";
name = Fore;
shapes = (
{
closed = 1;
nodes = (
(226,210,l),
(226,173,o),
(230.5,101.5,q),
(235,30,o),
(241,7,q),
(241,0,l),
(108,0,l),
(108,7,l),
(123,65,o),
(123,220,q),
(123,490,l),
(123,635,o),
(108,693,q),
(108,700,l),
(241,700,l),
(241,693,l),
(235,670,o),
(230.5,594,q),
(226,518,o),
(226,480,q)
);
},
{
closed = 1;
nodes = (
(213,903,l),
(239,850,o),
(288,805,q),
(305,789,o),
(338,761,q),
(310,730,l),
(239,771,o),
(170,845,q),
(104,779,o),
(42,735,q),
(13,765,l),
(100,841,o),
(133,903,q)
);
}
);
width = 348;
}
);
unicode = 206;
},
{
category = Letter;
glyphname = Idieresis;
layers = (
{
layerId = "58b1ce0d-85ae-4bf6-adce-557510bd0e95";
name = Fore;
shapes = (
{
closed = 1;
nodes = (
(230,210,l),
(230,173,o),
(234.5,101.5,q),
(239,30,o),
(245,7,q),
(245,0,l),
(112,0,l),
(112,7,l),
(127,65,o),
(127,220,q),
(127,490,l),
(127,635,o),
(112,693,q),
(112,700,l),
(245,700,l),
(245,693,l),
(239,670,o),
(234.5,594,q),
(230,518,o),
(230,480,q)
);
},
{
closed = 1;
nodes = (
(327,848,o),
(330.5,827,q),
(334,806,o),
(334,795,q),
(334,784,o),
(333,778,q),
(325,771,l),
(289,759,o),
(253,756,q),
(241,756,l),
(231,759,l),
(216,789,o),
(216,837,q),
(226,845,l),
(262,858,o),
(296,860,q),
(312,860,l),
(320,856,l)
);
},
{
closed = 1;
nodes = (
(129,839,o),
(132.5,817.5,q),
(136,796,o),
(136,785.5,q),
(136,775,o),
(135,769,q),
(127,762,l),
(91,750,o),
(55,747,q),
(43,747,l),
(33,750,l),
(18,780,o),
(18,828,q),
(28,836,l),
(64,849,o),
(98,851,q),
(114,851,l),
(122,847,l)
);
}
);
width = 348;
}
);
unicode = 207;
},
{
category = Letter;
glyphname = Eth;
layers = (
{
layerId = "58b1ce0d-85ae-4bf6-adce-557510bd0e95";
name = Fore;
shapes = (
{
closed = 1;
nodes = (
(339,701,o),
(342,701,q),
(519,701,o),
(606,620.5,q),
(693,540,o),
(693,373,q),
(693,268,o),
(660,186,q),
(585,0,o),
(345,0,q),
(155,1,l),
(96,1,l),
(96,8,l),
(112,70,o),
(112,211,q),
(112,351,l),
(2,346,l),
(25,402,l),
(32,402,l),
(68,399,o),
(112,399,q),
(112,490,l),
(112,631,o),
(96,693,q),
(96,700,l),
(154,698,l)
);
},
{
closed = 1;
nodes = (
(462,68,o),
(514,99,q),
(580,174,o),
(580,343.5,q),
(580,513,o),
(519.5,577,q),
(459,641,o),
(316,641,q),
(313,641,o),
(217,640,q),
(215,603,o),
(215,400,q),
(226,400,l),
(259,400,o),
(375,404,q),
(350,346,l),
(343,346,l),
(270,351,o),
(215,352,q),
(215,334,l),
(215,104,o),
(219,74,q),
(279,68,o),
(341,68,q)
);
}
);
width = 742;
}
);
unicode = 208;
},
{
category = Letter;
glyphname = Ntilde;
layers = (
{
layerId = "58b1ce0d-85ae-4bf6-adce-557510bd0e95";
name = Fore;
shapes = (
{
closed = 1;
nodes = (
(79,0,l),
(79,7,l),
(94,73,o),
(94,239,q),
(94,463,l),
(94,617,o),
(81,693,q),
(81,700,l),
(202,709,l),
(552,165,l),
(552,490,l),
(552,543,o),
(546,605.5,q),
(540,668,o),
(531,693,q),
(531,700,l),
(636,700,l),
(636,693,l),
(621,627,o),
(621,461,q),
(621,210,l),
(621,150,o),
(625.5,81.5,q),
(630,13,o),
(634,0,q),
(540,-10,l),
(162,575,l),
(162,210,l),
(162,77,o),
(180,7,q),
(180,0,l)
);
},
{
closed = 1;
nodes = (
(418,781,o),
(367.5,805,q),
(317,829,o),
(292.5,829,q),
(268,829,o),
(250,820.5,q),
(232,812,o),
(205,791,q),
(185,809,l),
(209,839,o),
(245.5,871.5,q),
(282,904,o),
(304.5,904,q),
(327,904,o),
(375.5,882.5,q),
(424,861,o),
(445,861,q),
(484,861,o),
(537,898,q),
(556,881,l),
(479,781,o),
(442,781,q)
);
}
);
width = 714;
}
);
unicode = 209;
},
{
category = Letter;
glyphname = Ograve;
layers = (
{
layerId = "58b1ce0d-85ae-4bf6-adce-557510bd0e95";
name = Fore;
shapes = (
{
closed = 1;
nodes = (
(49,190,o),
(49,344.5,q),
(49,499,o),
(146,606.5,q),
(243,714,o),
(396,714,q),
(495,714,o),
(566,665,q),
(704,570,o),
(704,368,q),
(704,203,o),
(606.5,95.5,q),
(509,-12,o),
(364.5,-12,q),
(220,-12,o),
(134.5,89,q)
);
},
{
closed = 1;
nodes = (
(591,469,o),
(543,550,q),
(490,641,o),
(365,641,q),
(277,641,o),
(227,610,q),
(198,574,o),
(180,508.5,q),
(162,443,o),
(162,361.5,q),
(162,280,o),
(183,214.5,q),
(204,149,o),
(258.5,104,q),
(313,59,o),
(392.5,59,q),
(472,59,o),
(524,92,q),
(591,167,o),
(591,341,q)
);
},
{
closed = 1;
nodes = (
(453,751,l),
(339,760,o),
(224,806,q),
(230,852,o),
(261,887,q),
(348,821,o),
(463,784,q)
);
}
);
width = 753;
}
);
unicode = 210;
},
{
category = Letter;
glyphname = Oacute;
layers = (
{
layerId = "58b1ce0d-85ae-4bf6-adce-557510bd0e95";
name = Fore;
shapes = (
{
closed = 1;
nodes = (
(49,190,o),
(49,344.5,q),
(49,499,o),
(146,606.5,q),
(243,714,o),
(396,714,q),
(495,714,o),
(566,665,q),
(704,570,o),
(704,368,q),
(704,203,o),
(606.5,95.5,q),
(509,-12,o),
(364.5,-12,q),
(220,-12,o),
(134.5,89,q)
);
},
{
closed = 1;
nodes = (
(591,469,o),
(543,550,q),
(490,641,o),
(365,641,q),
(277,641,o),
(227,610,q),
(198,574,o),
(180,508.5,q),
(162,443,o),
(162,361.5,q),
(162,280,o),
(183,214.5,q),
(204,149,o),
(258.5,104,q),
(313,59,o),
(392.5,59,q),
(472,59,o),
(524,92,q),
(591,167,o),
(591,341,q)
);
},
{
closed = 1;
nodes = (
(285,784,l),
(400,821,o),
(487,887,q),
(518,852,o),
(524,806,q),
(409,760,o),
(295,751,q)
);
}
);
width = 753;
}
);
unicode = 211;
},
{
category = Letter;
glyphname = Ocircumflex;
layers = (
{
layerId = "58b1ce0d-85ae-4bf6-adce-557510bd0e95";
name = Fore;
shapes = (
{
closed = 1;
nodes = (
(49,190,o),
(49,344.5,q),
(49,499,o),
(146,606.5,q),
(243,714,o),
(396,714,q),
(495,714,o),
(566,665,q),
(704,570,o),
(704,368,q),
(704,203,o),
(606.5,95.5,q),
(509,-12,o),
(364.5,-12,q),
(220,-12,o),
(134.5,89,q)
);
},
{
closed = 1;
nodes = (
(591,469,o),
(543,550,q),
(490,641,o),
(365,641,q),
(277,641,o),
(227,610,q),
(198,574,o),
(180,508.5,q),
(162,443,o),
(162,361.5,q),
(162,280,o),
(183,214.5,q),
(204,149,o),
(258.5,104,q),
(313,59,o),
(392.5,59,q),
(472,59,o),
(524,92,q),
(591,167,o),
(591,341,q)
);
},
{
closed = 1;
nodes = (
(415,903,l),
(441,850,o),
(490,805,q),
(507,789,o),
(540,761,q),
(512,730,l),
(441,771,o),
(372,845,q),
(306,779,o),
(244,735,q),
(215,765,l),
(302,841,o),
(335,903,q)
);
}
);
width = 753;
}
);
unicode = 212;
},
{
category = Letter;
glyphname = Otilde;
layers = (
{
layerId = "58b1ce0d-85ae-4bf6-adce-557510bd0e95";
name = Fore;
shapes = (
{
closed = 1;
nodes = (
(49,190,o),
(49,344.5,q),
(49,499,o),
(146,606.5,q),
(243,714,o),
(396,714,q),
(495,714,o),
(566,665,q),
(704,570,o),
(704,368,q),
(704,203,o),
(606.5,95.5,q),
(509,-12,o),
(364.5,-12,q),
(220,-12,o),
(134.5,89,q)
);
},
{
closed = 1;
nodes = (
(591,469,o),
(543,550,q),
(490,641,o),
(365,641,q),
(277,641,o),
(227,610,q),
(198,574,o),
(180,508.5,q),
(162,443,o),
(162,361.5,q),
(162,280,o),
(183,214.5,q),
(204,149,o),
(258.5,104,q),
(313,59,o),
(392.5,59,q),
(472,59,o),
(524,92,q),
(591,167,o),
(591,341,q)
);
},
{
closed = 1;
nodes = (
(423,781,o),
(372.5,805,q),
(322,829,o),
(297.5,829,q),
(273,829,o),
(255,820.5,q),
(237,812,o),
(210,791,q),
(190,809,l),
(214,839,o),
(250.5,871.5,q),
(287,904,o),
(309.5,904,q),
(332,904,o),
(380.5,882.5,q),
(429,861,o),
(450,861,q),
(489,861,o),
(542,898,q),
(561,881,l),
(484,781,o),
(447,781,q)
);
}
);
width = 753;
}
);
unicode = 213;
},
{
category = Letter;
glyphname = Odieresis;
layers = (
{
layerId = "58b1ce0d-85ae-4bf6-adce-557510bd0e95";
name = Fore;
shapes = (
{
closed = 1;
nodes = (
(49,190,o),
(49,344.5,q),
(49,499,o),
(146,606.5,q),
(243,714,o),
(396,714,q),
(495,714,o),
(566,665,q),
(704,570,o),
(704,368,q),
(704,203,o),
(606.5,95.5,q),
(509,-12,o),
(364.5,-12,q),
(220,-12,o),
(134.5,89,q)
);
},
{
closed = 1;
nodes = (
(591,469,o),
(543,550,q),
(490,641,o),
(365,641,q),
(277,641,o),
(227,610,q),
(198,574,o),
(180,508.5,q),
(162,443,o),
(162,361.5,q),
(162,280,o),
(183,214.5,q),
(204,149,o),
(258.5,104,q),
(313,59,o),
(392.5,59,q),
(472,59,o),
(524,92,q),
(591,167,o),
(591,341,q)
);
},
{
closed = 1;
nodes = (
(327,838,o),
(330.5,817,q),
(334,796,o),
(334,785,q),
(334,774,o),
(333,768,q),
(325,761,l),
(289,749,o),
(253,746,q),
(241,746,l),
(231,749,l),
(216,779,o),
(216,827,q),
(226,835,l),
(262,848,o),
(296,850,q),
(312,850,l),
(320,846,l)
);
},
{
closed = 1;
nodes = (
(525,847,o),
(528.5,825.5,q),
(532,804,o),
(532,793.5,q),
(532,783,o),
(531,777,q),
(523,770,l),
(487,758,o),
(451,755,q),
(439,755,l),
(429,758,l),
(414,788,o),
(414,836,q),
(424,844,l),
(460,857,o),
(494,859,q),
(510,859,l),
(518,855,l)
);
}
);
width = 753;
}
);
unicode = 214;
},
{
category = Letter;
glyphname = multiply;
layers = (
{
layerId = "58b1ce0d-85ae-4bf6-adce-557510bd0e95";
name = Fore;
shapes = (
{
closed = 1;
nodes = (
(232,319,l),
(72,476,l),
(123,527,l),
(282,368,l),
(440,527,l),
(491,475,l),
(332,318,l),
(493,161,l),
(442,110,l),
(281,269,l),
(123,110,l),
(72,162,l)
);
}
);
width = 565;
}
);
unicode = 215;
},
{
category = Letter;
glyphname = Oslash;
layers = (
{
layerId = "58b1ce0d-85ae-4bf6-adce-557510bd0e95";
name = Fore;
shapes = (
{
closed = 1;
nodes = (
(49,498,o),
(147,606,q),
(245,714,o),
(388,714,q),
(510,714,o),
(590,648,q),
(640,728,l),
(727,741,l),
(727,735,l),
(691,693,o),
(626,611,q),
(704,516,o),
(704,360,q),
(704,204,o),
(606,96,q),
(508,-12,o),
(365,-12,q),
(274,-12,o),
(204,30,q),
(167,-23,o),
(145,-61,q),
(53,-77,l),
(53,-71,l),
(84,-35,o),
(159,63,q),
(49,162,o),
(49,347,q)
);
},
{
closed = 1;
nodes = (
(325,641,o),
(285.5,632,q),
(246,623,o),
(227,610,q),
(198,574,o),
(180,506.5,q),
(162,439,o),
(162,371,q),
(162,214,o),
(218,139,q),
(311,260,o),
(535,570,q),
(477,641,o),
(359,641,q)
);
},
{
closed = 1;
nodes = (
(591,460,o),
(561,526,q),
(496,440,o),
(255,101,q),
(311,59,o),
(405,59,q),
(474,59,o),
(524,92,q),
(557,128,o),
(574,195.5,q),
(591,263,o),
(591,333,q)
);
}
);
width = 776;
}
);
unicode = 216;
},
{
category = Letter;
glyphname = Ugrave;
layers = (
{
layerId = "58b1ce0d-85ae-4bf6-adce-557510bd0e95";
name = Fore;
shapes = (
{
closed = 1;
nodes = (
(609,311,l),
(609,215,o),
(594.5,153,q),
(580,91,o),
(546.5,54,q),
(513,17,o),
(465,2.5,q),
(417,-12,o),
(344,-12,q),
(202,-12,o),
(145,55.5,q),
(88,123,o),
(88,275,q),
(88,486,l),
(88,635,o),
(73,693,q),
(73,700,l),
(203,700,l),
(203,693,l),
(190,608,o),
(190,367,q),
(190,367,o),
(190,302,q),
(190,219,o),
(198,177,q),
(206,135,o),
(212,124,q),
(218,113,o),
(227.5,98,q),
(237,83,o),
(249,76.5,q),
(261,70,o),
(278,63,q),
(303,52,o),
(360,52,q),
(450,52,o),
(495,82,q),
(521,124,o),
(528,197,q),
(535,270,o),
(535,439.5,q),
(535,609,o),
(520,693,q),
(520,700,l),
(624,700,l),
(624,693,l),
(618,669,o),
(613.5,602.5,q),
(609,536,o),
(609,501,q)
);
},
{
closed = 1;
nodes = (
(426,751,l),
(312,760,o),
(197,806,q),
(203,852,o),
(234,887,q),
(321,821,o),
(436,784,q)
);
}
);
width = 701;
}
);
unicode = 217;
},
{
category = Letter;
glyphname = Uacute;
layers = (
{
layerId = "58b1ce0d-85ae-4bf6-adce-557510bd0e95";
name = Fore;
shapes = (
{
closed = 1;
nodes = (
(609,311,l),
(609,215,o),
(594.5,153,q),
(580,91,o),
(546.5,54,q),
(513,17,o),
(465,2.5,q),
(417,-12,o),
(344,-12,q),
(202,-12,o),
(145,55.5,q),
(88,123,o),
(88,275,q),
(88,486,l),
(88,635,o),
(73,693,q),
(73,700,l),
(203,700,l),
(203,693,l),
(190,608,o),
(190,367,q),
(190,367,o),
(190,302,q),
(190,219,o),
(198,177,q),
(206,135,o),
(212,124,q),
(218,113,o),
(227.5,98,q),
(237,83,o),
(249,76.5,q),
(261,70,o),
(278,63,q),
(303,52,o),
(360,52,q),
(450,52,o),
(495,82,q),
(521,124,o),
(528,197,q),
(535,270,o),
(535,439.5,q),
(535,609,o),
(520,693,q),
(520,700,l),
(624,700,l),
(624,693,l),
(618,669,o),
(613.5,602.5,q),
(609,536,o),
(609,501,q)
);
},
{
closed = 1;
nodes = (
(274,784,l),
(389,821,o),
(476,887,q),
(507,852,o),
(513,806,q),
(398,760,o),
(284,751,q)
);
}
);
width = 701;
}
);
unicode = 218;
},
{
category = Letter;
glyphname = Ucircumflex;
layers = (
{
layerId = "58b1ce0d-85ae-4bf6-adce-557510bd0e95";
name = Fore;
shapes = (
{
closed = 1;
nodes = (
(609,311,l),
(609,215,o),
(594.5,153,q),
(580,91,o),
(546.5,54,q),
(513,17,o),
(465,2.5,q),
(417,-12,o),
(344,-12,q),
(202,-12,o),
(145,55.5,q),
(88,123,o),
(88,275,q),
(88,486,l),
(88,635,o),
(73,693,q),
(73,700,l),
(203,700,l),
(203,693,l),
(190,608,o),
(190,367,q),
(190,367,o),
(190,302,q),
(190,219,o),
(198,177,q),
(206,135,o),
(212,124,q),
(218,113,o),
(227.5,98,q),
(237,83,o),
(249,76.5,q),
(261,70,o),
(278,63,q),
(303,52,o),
(360,52,q),
(450,52,o),
(495,82,q),
(521,124,o),
(528,197,q),
(535,270,o),
(535,439.5,q),
(535,609,o),
(520,693,q),
(520,700,l),
(624,700,l),
(624,693,l),
(618,669,o),
(613.5,602.5,q),
(609,536,o),
(609,501,q)
);
},
{
closed = 1;
nodes = (
(395,903,l),
(421,850,o),
(470,805,q),
(487,789,o),
(520,761,q),
(492,730,l),
(421,771,o),
(352,845,q),
(286,779,o),
(224,735,q),
(195,765,l),
(282,841,o),
(315,903,q)
);
}
);
width = 701;
}
);
unicode = 219;
},
{
category = Letter;
glyphname = Udieresis;
layers = (
{
layerId = "58b1ce0d-85ae-4bf6-adce-557510bd0e95";
name = Fore;
shapes = (
{
closed = 1;
nodes = (
(643,311,l),
(643,215,o),
(628.5,153,q),
(614,91,o),
(580.5,54,q),
(547,17,o),
(499,2.5,q),
(451,-12,o),
(378,-12,q),
(236,-12,o),
(179,55.5,q),
(122,123,o),
(122,275,q),
(122,486,l),
(122,635,o),
(107,693,q),
(107,700,l),
(237,700,l),
(237,693,l),
(224,609,o),
(224,367,q),
(224,367,o),
(224,302,q),
(224,219,o),
(232,177,q),
(240,135,o),
(246,124,q),
(252,113,o),
(261.5,98,q),
(271,83,o),
(283,76.5,q),
(295,70,o),
(312,63,q),
(337,52,o),
(394,52,q),
(484,52,o),
(529,82,q),
(555,124,o),
(562,197,q),
(569,270,o),
(569,439.5,q),
(569,609,o),
(554,693,q),
(554,700,l),
(658,700,l),
(658,693,l),
(652,669,o),
(647.5,602.5,q),
(643,536,o),
(643,501,q)
);
},
{
closed = 1;
nodes = (
(544,847,o),
(547.5,825.5,q),
(551,804,o),
(551,793.5,q),
(551,783,o),
(550,777,q),
(542,770,l),
(506,758,o),
(470,755,q),
(458,755,l),
(448,758,l),
(433,788,o),
(433,836,q),
(443,844,l),
(479,857,o),
(513,859,q),
(529,859,l),
(537,855,l)
);
},
{
closed = 1;
nodes = (
(346,838,o),
(349.5,817,q),
(353,796,o),
(353,785,q),
(353,774,o),
(352,768,q),
(344,761,l),
(308,749,o),
(272,746,q),
(260,746,l),
(250,749,l),
(235,779,o),
(235,827,q),
(245,835,l),
(281,848,o),
(315,850,q),
(331,850,l),
(339,846,l)
);
}
);
width = 744;
}
);
unicode = 220;
},
{
category = Letter;
glyphname = Yacute;
layers = (
{
layerId = "58b1ce0d-85ae-4bf6-adce-557510bd0e95";
name = Fore;
shapes = (
{
closed = 1;
nodes = (
(404,623,o),
(404,683,q),
(404,700,l),
(520,700,l),
(520,690,l),
(479,660,o),
(311,290,q),
(311,210,l),
(311,175,o),
(315.5,103,q),
(320,31,o),
(325,7,q),
(325,0,l),
(197,0,l),
(197,7,l),
(211,68,o),
(211,183,q),
(211,293,l),
(115,482,l),
(16,671,o),
(-15,690,q),
(-15,700,l),
(133,700,l),
(133,683,l),
(133,644,o),
(165.5,574,q),
(198,504,o),
(214,470,q),
(230,436,o),
(234,429,q),
(247,409,o),
(277,348,q)
);
},
{
closed = 1;
nodes = (
(179,784,l),
(294,821,o),
(381,887,q),
(412,852,o),
(418,806,q),
(303,760,o),
(189,751,q)
);
}
);
width = 511;
}
);
unicode = 221;
},
{
category = Letter;
glyphname = Thorn;
layers = (
{
layerId = "58b1ce0d-85ae-4bf6-adce-557510bd0e95";
name = Fore;
shapes = (
{
closed = 1;
nodes = (
(230,53,o),
(249,6,q),
(249,0,l),
(108,0,l),
(108,7,l),
(127,58,o),
(127,150,q),
(127,512,l),
(125,639,o),
(112,692,q),
(112,699,l),
(245,699,l),
(245,692,l),
(242,676,o),
(236,615,q),
(326,615,l),
(582,615,o),
(582,424,q),
(582,316,o),
(506.5,255.5,q),
(431,195,o),
(312,195,q),
(294,195,o),
(230,203,q),
(230,136,l)
);
},
{
closed = 1;
nodes = (
(398,564,o),
(322.5,564,q),
(247,564,o),
(232,562,q),
(230,535,o),
(230,387,q),
(230,251,l),
(269,240,o),
(311,240,q),
(388,240,o),
(428.5,285.5,q),
(469,331,o),
(469,410,q),
(469,489,o),
(433.5,526.5,q)
);
}
);
width = 620;
}
);
unicode = 222;
},
{
category = Letter;
glyphname = germandbls;
layers = (
{
layerId = "58b1ce0d-85ae-4bf6-adce-557510bd0e95";
name = Fore;
shapes = (
{
closed = 1;
nodes = (
(115,457,l),
(115,503,l),
(115,606,o),
(178.5,673,q),
(242,740,o),
(336,740,q),
(403,740,o),
(444.5,708.5,q),
(486,677,o),
(486,611,q),
(486,557,o),
(442,522,q),
(424,507,o),
(406,492,q),
(362,457,o),
(362,408,q),
(362,354,o),
(438,316,q),
(469,301,o),
(500,282.5,q),
(531,264,o),
(553,229.5,q),
(575,195,o),
(575,145,q),
(575,74,o),
(530,32,q),
(484,-11,o),
(405.5,-11,q),
(327,-11,o),
(273,30,q),
(274,81,o),
(292,115,q),
(310,91,o),
(347.5,70.5,q),
(385,50,o),
(417,50,q),
(449,50,o),
(463,59,q),
(479,76,o),
(479,138,q),
(479,193,o),
(408,232,q),
(378,249,o),
(348.5,267.5,q),
(319,286,o),
(298.5,317.5,q),
(278,349,o),
(278,391.5,q),
(278,434,o),
(297,465.5,q),
(316,497,o),
(338,513,q),
(398,557,o),
(398,603,q),
(398,678,o),
(293,678,q),
(252,678,o),
(230,661,q),
(209,632,o),
(209,538,q),
(209,0,l),
(98,0,l),
(98,7,l),
(115,57,o),
(115,170,q),
(115,402,l),
(35,399,l),
(58,460,l)
);
}
);
width = 601;
}
);
unicode = 223;
},
{
category = Letter;
glyphname = agrave;
layers = (
{
layerId = "58b1ce0d-85ae-4bf6-adce-557510bd0e95";
name = Fore;
shapes = (
{
closed = 1;
nodes = (
(216,582,o),
(124,674,q),
(149,715,o),
(192,732,q),
(246,636,o),
(334,556,q),
(311,530,l)
);
},
{
closed = 1;
nodes = (
(289,215,o),
(235.5,215,q),
(182,215,o),
(158,198,q),
(143,175,o),
(143,136.5,q),
(143,98,o),
(164,76,q),
(185,54,o),
(216.5,54,q),
(248,54,o),
(281,70.5,q),
(314,87,o),
(330,106,q),
(330,200,l)
);
},
{
closed = 1;
nodes = (
(285,-11,o),
(208.5,-11,q),
(132,-11,o),
(88.5,22,q),
(45,55,o),
(45,128.5,q),
(45,202,o),
(96.5,234,q),
(148,266,o),
(242,266,q),
(330,263,l),
(330,320,l),
(330,373,o),
(304,406,q),
(278,439,o),
(225,439,q),
(186,438,o),
(100,364,q),
(71,401,o),
(59,460,q),
(158,492,o),
(241,492,q),
(324,492,o),
(374,449,q),
(424,406,o),
(424,327,q),
(424,159,l),
(425,114,o),
(438.5,75.5,q),
(452,37,o),
(474,22,q),
(476,12,l),
(369,-14,l),
(356,18,o),
(346,56,q)
);
}
);
width = 504;
}
);
unicode = 224;
},
{
category = Letter;
glyphname = aacute;
layers = (
{
layerId = "58b1ce0d-85ae-4bf6-adce-557510bd0e95";
name = Fore;
shapes = (
{
closed = 1;
nodes = (
(304,579,o),
(215,530,q),
(192,556,l),
(280,636,o),
(334,732,q),
(377,715,o),
(402,674,q)
);
},
{
closed = 1;
nodes = (
(289,215,o),
(235.5,215,q),
(182,215,o),
(158,198,q),
(143,175,o),
(143,136.5,q),
(143,98,o),
(164,76,q),
(185,54,o),
(216.5,54,q),
(248,54,o),
(281,70.5,q),
(314,87,o),
(330,106,q),
(330,200,l)
);
},
{
closed = 1;
nodes = (
(285,-11,o),
(208.5,-11,q),
(132,-11,o),
(88.5,22,q),
(45,55,o),
(45,128.5,q),
(45,202,o),
(96.5,234,q),
(148,266,o),
(242,266,q),
(330,263,l),
(330,320,l),
(330,373,o),
(304,406,q),
(278,439,o),
(225,439,q),
(186,438,o),
(100,364,q),
(71,401,o),
(59,460,q),
(158,492,o),
(241,492,q),
(324,492,o),
(374,449,q),
(424,406,o),
(424,327,q),
(424,159,l),
(425,114,o),
(438.5,75.5,q),
(452,37,o),
(474,22,q),
(476,12,l),
(369,-14,l),
(356,18,o),
(346,56,q)
);
}
);
width = 504;
}
);
unicode = 225;
},
{
category = Letter;
glyphname = acircumflex;
layers = (
{
layerId = "58b1ce0d-85ae-4bf6-adce-557510bd0e95";
name = Fore;
shapes = (
{
closed = 1;
nodes = (
(278,729,l),
(299,667,o),
(342,616,q),
(357,598,o),
(387,564,q),
(353,530,l),
(328,550,o),
(289.5,592.5,q),
(251,635,o),
(235,661,q),
(190,599,o),
(131,538,q),
(101,565,l),
(132,600,o),
(145,615,q),
(158,630,o),
(178,660,q),
(198,690,o),
(208,718,q)
);
},
{
closed = 1;
nodes = (
(289,215,o),
(235.5,215,q),
(182,215,o),
(158,198,q),
(143,175,o),
(143,136.5,q),
(143,98,o),
(164,76,q),
(185,54,o),
(216.5,54,q),
(248,54,o),
(281,70.5,q),
(314,87,o),
(330,106,q),
(330,200,l)
);
},
{
closed = 1;
nodes = (
(285,-11,o),
(208.5,-11,q),
(132,-11,o),
(88.5,22,q),
(45,55,o),
(45,128.5,q),
(45,202,o),
(96.5,234,q),
(148,266,o),
(242,266,q),
(330,263,l),
(330,320,l),
(330,373,o),
(304,406,q),
(278,439,o),
(225,439,q),
(186,438,o),
(100,364,q),
(71,401,o),
(59,460,q),
(158,492,o),
(241,492,q),
(324,492,o),
(374,449,q),
(424,406,o),
(424,327,q),
(424,159,l),
(425,114,o),
(438.5,75.5,q),
(452,37,o),
(474,22,q),
(476,12,l),
(369,-14,l),
(356,18,o),
(346,56,q)
);
}
);
width = 504;
}
);
unicode = 226;
},
{
category = Letter;
glyphname = atilde;
layers = (
{
layerId = "58b1ce0d-85ae-4bf6-adce-557510bd0e95";
name = Fore;
shapes = (
{
closed = 1;
nodes = (
(198,617,o),
(169.5,617,q),
(141,617,o),
(86,579,q),
(66,597,l),
(90,627,o),
(126.5,659.5,q),
(163,692,o),
(185.5,692,q),
(208,692,o),
(256.5,670.5,q),
(305,649,o),
(330.5,649,q),
(356,649,o),
(418,686,q),
(437,669,l),
(360,569,o),
(323,569,q),
(299,569,o),
(248.5,593,q)
);
},
{
closed = 1;
nodes = (
(289,215,o),
(235.5,215,q),
(182,215,o),
(158,198,q),
(143,175,o),
(143,136.5,q),
(143,98,o),
(164,76,q),
(185,54,o),
(216.5,54,q),
(248,54,o),
(281,70.5,q),
(314,87,o),
(330,106,q),
(330,200,l)
);
},
{
closed = 1;
nodes = (
(285,-11,o),
(208.5,-11,q),
(132,-11,o),
(88.5,22,q),
(45,55,o),
(45,128.5,q),
(45,202,o),
(96.5,234,q),
(148,266,o),
(242,266,q),
(330,263,l),
(330,320,l),
(330,373,o),
(304,406,q),
(278,439,o),
(225,439,q),
(186,438,o),
(100,364,q),
(71,401,o),
(59,460,q),
(158,492,o),
(241,492,q),
(324,492,o),
(374,449,q),
(424,406,o),
(424,327,q),
(424,159,l),
(425,114,o),
(438.5,75.5,q),
(452,37,o),
(474,22,q),
(476,12,l),
(369,-14,l),
(356,18,o),
(346,56,q)
);
}
);
width = 504;
}
);
unicode = 227;
},
{
category = Letter;
glyphname = adieresis;
layers = (
{
layerId = "58b1ce0d-85ae-4bf6-adce-557510bd0e95";
name = Fore;
shapes = (
{
closed = 1;
nodes = (
(407,679,o),
(410.5,657.5,q),
(414,636,o),
(414,625,q),
(414,614,o),
(413,607,q),
(405,600,l),
(368,588,o),
(331,585,q),
(319,585,l),
(309,588,l),
(294,618,o),
(294,668,q),
(304,676,l),
(340,689,o),
(375,691,q),
(392,691,l),
(400,687,l)
);
},
{
closed = 1;
nodes = (
(191,670,o),
(194.5,648.5,q),
(198,627,o),
(198,616,q),
(198,605,o),
(197,598,q),
(189,591,l),
(153,579,o),
(116,576,q),
(103,576,l),
(93,579,l),
(78,609,o),
(78,658,q),
(88,667,l),
(126,680,o),
(160,682,q),
(176,682,l),
(184,678,l)
);
},
{
closed = 1;
nodes = (
(289,215,o),
(235.5,215,q),
(182,215,o),
(158,198,q),
(143,175,o),
(143,136.5,q),
(143,98,o),
(164,76,q),
(185,54,o),
(216.5,54,q),
(248,54,o),
(281,70.5,q),
(314,87,o),
(330,106,q),
(330,200,l)
);
},
{
closed = 1;
nodes = (
(285,-11,o),
(208.5,-11,q),
(132,-11,o),
(88.5,22,q),
(45,55,o),
(45,128.5,q),
(45,202,o),
(96.5,234,q),
(148,266,o),
(242,266,q),
(330,263,l),
(330,320,l),
(330,373,o),
(304,406,q),
(278,439,o),
(225,439,q),
(186,438,o),
(100,364,q),
(71,401,o),
(59,460,q),
(158,492,o),
(241,492,q),
(324,492,o),
(374,449,q),
(424,406,o),
(424,327,q),
(424,159,l),
(425,114,o),
(438.5,75.5,q),
(452,37,o),
(474,22,q),
(476,12,l),
(369,-14,l),
(356,18,o),
(346,56,q)
);
}
);
width = 504;
}
);
unicode = 228;
},
{
category = Letter;
glyphname = aring;
layers = (
{
layerId = "58b1ce0d-85ae-4bf6-adce-557510bd0e95";
name = Fore;
shapes = (
{
closed = 1;
nodes = (
(343,680,o),
(343,639.5,q),
(343,599,o),
(314.5,569.5,q),
(286,540,o),
(244.5,540,q),
(203,540,o),
(177,566,q),
(151,592,o),
(151,632.5,q),
(151,673,o),
(180,702.5,q),
(209,732,o),
(250.5,732,q),
(292,732,o),
(317.5,706,q)
);
},
{
closed = 1;
nodes = (
(295,683,o),
(249,683,q),
(198,683,o),
(198,631,q),
(198,586,o),
(245,586,q),
(295,586,o),
(295,637,q)
);
},
{
closed = 1;
nodes = (
(289,215,o),
(235.5,215,q),
(182,215,o),
(158,198,q),
(143,175,o),
(143,136.5,q),
(143,98,o),
(164,76,q),
(185,54,o),
(216.5,54,q),
(248,54,o),
(281,70.5,q),
(314,87,o),
(330,106,q),
(330,200,l)
);
},
{
closed = 1;
nodes = (
(285,-11,o),
(208.5,-11,q),
(132,-11,o),
(88.5,22,q),
(45,55,o),
(45,128.5,q),
(45,202,o),
(96.5,234,q),
(148,266,o),
(242,266,q),
(330,263,l),
(330,320,l),
(330,373,o),
(304,406,q),
(278,439,o),
(225,439,q),
(186,438,o),
(100,364,q),
(71,401,o),
(59,460,q),
(158,492,o),
(241,492,q),
(324,492,o),
(374,449,q),
(424,406,o),
(424,327,q),
(424,159,l),
(425,114,o),
(438.5,75.5,q),
(452,37,o),
(474,22,q),
(476,12,l),
(369,-14,l),
(356,18,o),
(346,56,q)
);
}
);
width = 504;
}
);
unicode = 229;
},
{
category = Letter;
glyphname = ae;
layers = (
{
layerId = "58b1ce0d-85ae-4bf6-adce-557510bd0e95";
name = Fore;
shapes = (
{
closed = 1;
nodes = (
(579,-11,o),
(537.5,-11,q),
(496,-11,o),
(449,11.5,q),
(402,34,o),
(376,74,q),
(298,-11,o),
(200,-11,q),
(134,-11,o),
(89.5,23.5,q),
(45,58,o),
(45,126,q),
(45,261,o),
(242,261,q),
(330,257,l),
(330,320,l),
(330,373,o),
(304,406,q),
(278,439,o),
(225,439,q),
(186,438,o),
(100,364,q),
(71,401,o),
(59,460,q),
(158,492,o),
(237,492,q),
(354,492,o),
(400,417,q),
(467,492,o),
(560,492,q),
(653,492,o),
(696,433,q),
(739,374,o),
(739,271,q),
(702,235,l),
(436,235,l),
(436,153,o),
(472,110,q),
(508,67,o),
(568.5,67,q),
(629,67,o),
(715,116,q),
(740,78,l),
(722,63,o),
(699,47,q),
(676,31,o),
(627.5,10,q)
);
},
{
closed = 1;
nodes = (
(499,442,o),
(476,423,q),
(457,397,o),
(446,357,q),
(435,317,o),
(435,287,q),
(640,295,l),
(640,442,o),
(546,442,q)
);
},
{
closed = 1;
nodes = (
(289,210,o),
(236,210,q),
(183,210,o),
(158,194,q),
(143,172,o),
(143,135,q),
(143,98,o),
(165,76,q),
(187,54,o),
(222.5,54,q),
(258,54,o),
(293,73,q),
(328,92,o),
(349,119,q),
(337,158,o),
(333,196,q)
);
}
);
width = 780;
}
);
unicode = 230;
},
{
category = Letter;
glyphname = ccedilla;
layers = (
{
layerId = "58b1ce0d-85ae-4bf6-adce-557510bd0e95";
name = Fore;
shapes = (
{
closed = 1;
nodes = (
(150,305,o),
(150,236.5,q),
(150,168,o),
(177.5,117,q),
(205,66,o),
(265,66,q),
(305,66,o),
(358,84.5,q),
(411,103,o),
(428,116,q),
(453,77,l),
(356,8,o),
(293,-7,q),
(255,-68,l),
(265,-65,o),
(292,-65.5,q),
(319,-66,o),
(342.5,-84.5,q),
(366,-103,o),
(366,-140.5,q),
(366,-178,o),
(334,-201,q),
(302,-224,o),
(257,-224,q),
(234,-224,o),
(201,-213.5,q),
(168,-203,o),
(155,-195,q),
(171,-163,l),
(205,-180,o),
(238,-180,q),
(290,-180,o),
(290,-135,q),
(290,-114,o),
(278,-102,q),
(263,-95,o),
(242.5,-95,q),
(222,-95,o),
(201,-99,q),
(195,-90,l),
(233,-10,l),
(145,-1,o),
(94.5,65.5,q),
(44,132,o),
(44,238.5,q),
(44,345,o),
(118.5,419,q),
(193,493,o),
(288.5,493,q),
(384,493,o),
(447,450,q),
(408,388,o),
(396,375,q),
(328,427,o),
(266,427,q),
(243,427,o),
(221,424,q),
(188,404,o),
(169,354.5,q)
);
}
);
width = 490;
}
);
unicode = 231;
},
{
category = Letter;
glyphname = egrave;
layers = (
{
layerId = "58b1ce0d-85ae-4bf6-adce-557510bd0e95";
name = Fore;
shapes = (
{
closed = 1;
nodes = (
(205,579,o),
(107,674,q),
(132,715,o),
(175,732,q),
(229,636,o),
(317,556,q),
(294,530,l)
);
},
{
closed = 1;
nodes = (
(162,-11,o),
(103,54,q),
(44,119,o),
(44,225.5,q),
(44,332,o),
(110,412,q),
(176,492,o),
(274,492,q),
(453,492,o),
(453,271,q),
(416,235,l),
(150,235,l),
(150,151,o),
(186,109,q),
(222,67,o),
(283,67,q),
(307,67,o),
(351,81.5,q),
(395,96,o),
(429,116,q),
(454,78,l),
(435,59,o),
(371.5,24,q),
(308,-11,o),
(267,-11,q)
);
},
{
closed = 1;
nodes = (
(214,442,o),
(191,423,q),
(172,397,o),
(161,357,q),
(150,317,o),
(150,287,q),
(355,295,l),
(355,442,o),
(256,442,q)
);
}
);
width = 494;
}
);
unicode = 232;
},
{
category = Letter;
glyphname = eacute;
layers = (
{
layerId = "58b1ce0d-85ae-4bf6-adce-557510bd0e95";
name = Fore;
shapes = (
{
closed = 1;
nodes = (
(293,579,o),
(204,530,q),
(181,556,l),
(269,636,o),
(323,732,q),
(366,715,o),
(391,674,q)
);
},
{
closed = 1;
nodes = (
(162,-11,o),
(103,54,q),
(44,119,o),
(44,225.5,q),
(44,332,o),
(110,412,q),
(176,492,o),
(274,492,q),
(453,492,o),
(453,271,q),
(416,235,l),
(150,235,l),
(150,151,o),
(186,109,q),
(222,67,o),
(283,67,q),
(307,67,o),
(351,81.5,q),
(395,96,o),
(429,116,q),
(454,78,l),
(435,59,o),
(371.5,24,q),
(308,-11,o),
(267,-11,q)
);
},
{
closed = 1;
nodes = (
(214,442,o),
(191,423,q),
(172,397,o),
(161,357,q),
(150,317,o),
(150,287,q),
(355,295,l),
(355,442,o),
(256,442,q)
);
}
);
width = 494;
}
);
unicode = 233;
},
{
category = Letter;
glyphname = ecircumflex;
layers = (
{
layerId = "58b1ce0d-85ae-4bf6-adce-557510bd0e95";
name = Fore;
shapes = (
{
closed = 1;
nodes = (
(299,729,l),
(320,667,o),
(363,616,q),
(378,598,o),
(408,564,q),
(374,530,l),
(349,550,o),
(310.5,592.5,q),
(272,635,o),
(256,661,q),
(211,599,o),
(152,538,q),
(122,565,l),
(153,600,o),
(166,615,q),
(179,630,o),
(199,660,q),
(219,690,o),
(229,718,q)
);
},
{
closed = 1;
nodes = (
(162,-11,o),
(103,54,q),
(44,119,o),
(44,225.5,q),
(44,332,o),
(110,412,q),
(176,492,o),
(274,492,q),
(453,492,o),
(453,271,q),
(416,235,l),
(150,235,l),
(150,151,o),
(186,109,q),
(222,67,o),
(283,67,q),
(307,67,o),
(351,81.5,q),
(395,96,o),
(429,116,q),
(454,78,l),
(435,59,o),
(371.5,24,q),
(308,-11,o),
(267,-11,q)
);
},
{
closed = 1;
nodes = (
(214,442,o),
(191,423,q),
(172,397,o),
(161,357,q),
(150,317,o),
(150,287,q),
(355,295,l),
(355,442,o),
(256,442,q)
);
}
);
width = 494;
}
);
unicode = 234;
},
{
category = Letter;
glyphname = edieresis;
layers = (
{
layerId = "58b1ce0d-85ae-4bf6-adce-557510bd0e95";
name = Fore;
shapes = (
{
closed = 1;
nodes = (
(405,679,o),
(408.5,657.5,q),
(412,636,o),
(412,625,q),
(412,614,o),
(411,607,q),
(403,600,l),
(366,588,o),
(330,585,q),
(317,585,l),
(307,588,l),
(292,618,o),
(292,668,q),
(302,676,l),
(340,689,o),
(373,691,q),
(390,691,l),
(398,687,l)
);
},
{
closed = 1;
nodes = (
(201,670,o),
(204.5,648.5,q),
(208,627,o),
(208,616,q),
(208,605,o),
(207,598,q),
(199,591,l),
(162,579,o),
(126,576,q),
(113,576,l),
(103,579,l),
(88,609,o),
(88,658,q),
(98,667,l),
(136,680,o),
(169,682,q),
(186,682,l),
(194,678,l)
);
},
{
closed = 1;
nodes = (
(162,-11,o),
(103,54,q),
(44,119,o),
(44,225.5,q),
(44,332,o),
(110,412,q),
(176,492,o),
(274,492,q),
(453,492,o),
(453,271,q),
(416,235,l),
(150,235,l),
(150,151,o),
(186,109,q),
(222,67,o),
(283,67,q),
(307,67,o),
(351,81.5,q),
(395,96,o),
(429,116,q),
(454,78,l),
(435,59,o),
(371.5,24,q),
(308,-11,o),
(267,-11,q)
);
},
{
closed = 1;
nodes = (
(214,442,o),
(191,423,q),
(172,397,o),
(161,357,q),
(150,317,o),
(150,287,q),
(355,295,l),
(355,442,o),
(256,442,q)
);
}
);
width = 494;
}
);
unicode = 235;
},
{
category = Letter;
glyphname = igrave;
layers = (
{
layerId = "58b1ce0d-85ae-4bf6-adce-557510bd0e95";
name = Fore;
shapes = (
{
closed = 1;
nodes = (
(109,333,l),
(109,422,o),
(59,457,q),
(59,469,l),
(200,493,l),
(206,483,l),
(203,454,o),
(203,400,q),
(203,164,l),
(203,64,o),
(228,7,q),
(228,0,l),
(93,0,l),
(93,7,l),
(109,54,o),
(109,139,q)
);
},
{
closed = 1;
nodes = (
(114,579,o),
(16,674,q),
(41,715,o),
(84,732,q),
(138,636,o),
(226,556,q),
(203,530,l)
);
}
);
width = 288;
}
);
unicode = 236;
},
{
category = Letter;
glyphname = iacute;
layers = (
{
layerId = "58b1ce0d-85ae-4bf6-adce-557510bd0e95";
name = Fore;
shapes = (
{
closed = 1;
nodes = (
(99,333,l),
(99,422,o),
(49,457,q),
(49,469,l),
(190,493,l),
(196,483,l),
(193,454,o),
(193,400,q),
(193,164,l),
(193,64,o),
(218,7,q),
(218,0,l),
(83,0,l),
(83,7,l),
(99,54,o),
(99,139,q)
);
},
{
closed = 1;
nodes = (
(199,582,o),
(104,530,q),
(81,556,l),
(169,636,o),
(223,732,q),
(266,715,o),
(291,674,q)
);
}
);
width = 286;
}
);
unicode = 237;
},
{
category = Letter;
glyphname = icircumflex;
layers = (
{
layerId = "58b1ce0d-85ae-4bf6-adce-557510bd0e95";
name = Fore;
shapes = (
{
closed = 1;
nodes = (
(128,333,l),
(128,422,o),
(78,457,q),
(78,469,l),
(219,493,l),
(225,483,l),
(222,454,o),
(222,400,q),
(222,164,l),
(222,64,o),
(247,7,q),
(247,0,l),
(112,0,l),
(112,7,l),
(128,54,o),
(128,139,q)
);
},
{
closed = 1;
nodes = (
(179,729,l),
(200,667,o),
(243,616,q),
(258,598,o),
(288,564,q),
(254,530,l),
(229,550,o),
(190.5,592.5,q),
(152,635,o),
(136,661,q),
(91,599,o),
(32,538,q),
(2,565,l),
(33,600,o),
(46,615,q),
(59,630,o),
(79,660,q),
(99,690,o),
(109,718,q)
);
}
);
width = 344;
}
);
unicode = 238;
},
{
category = Letter;
glyphname = idieresis;
layers = (
{
layerId = "58b1ce0d-85ae-4bf6-adce-557510bd0e95";
name = Fore;
shapes = (
{
closed = 1;
nodes = (
(133,333,l),
(133,422,o),
(83,457,q),
(83,469,l),
(224,493,l),
(230,483,l),
(227,454,o),
(227,400,q),
(227,164,l),
(227,64,o),
(252,7,q),
(252,0,l),
(117,0,l),
(117,7,l),
(133,54,o),
(133,139,q)
);
},
{
closed = 1;
nodes = (
(306,679,o),
(309.5,657.5,q),
(313,636,o),
(313,625,q),
(313,614,o),
(312,607,q),
(304,600,l),
(267,588,o),
(230,585,q),
(218,585,l),
(208,588,l),
(193,618,o),
(193,668,q),
(203,676,l),
(239,689,o),
(274,691,q),
(291,691,l),
(299,687,l)
);
},
{
closed = 1;
nodes = (
(136,670,o),
(139.5,648.5,q),
(143,627,o),
(143,616,q),
(143,605,o),
(142,598,q),
(134,591,l),
(98,579,o),
(61,576,q),
(48,576,l),
(38,579,l),
(23,609,o),
(23,658,q),
(33,667,l),
(71,680,o),
(105,682,q),
(121,682,l),
(129,678,l)
);
}
);
width = 357;
}
);
unicode = 239;
},
{
category = Letter;
glyphname = eth;
layers = (
{
layerId = "58b1ce0d-85ae-4bf6-adce-557510bd0e95";
name = Fore;
shapes = (
{
closed = 1;
nodes = (
(518,144,o),
(447,66,q),
(376,-12,o),
(271,-12,q),
(166,-12,o),
(105,54.5,q),
(44,121,o),
(44,233,q),
(44,345,o),
(110.5,418.5,q),
(177,492,o),
(289,492,q),
(292,492,o),
(295,492,q),
(264,531,o),
(225,567,q),
(120,527,o),
(87,512,q),
(91,570,l),
(144,586,o),
(187,603,q),
(115,666,o),
(48,700,q),
(47,707,l),
(191,740,l),
(213,704,o),
(268,634,q),
(313,651,o),
(403,687,q),
(400,631,l),
(367,621,o),
(300,596,q),
(356,537,o),
(376,518,q),
(464,433,o),
(491,382,q),
(518,331,o),
(518,250,q)
);
},
{
closed = 1;
nodes = (
(412,327,o),
(381,381,q),
(350,435,o),
(271,435,q),
(220,435,o),
(191,413,q),
(173,390,o),
(161.5,343,q),
(150,296,o),
(150,253,q),
(150,44,o),
(298,44,q),
(344,44,o),
(373,65,q),
(392,88,o),
(402,136,q),
(412,184,o),
(412,228,q)
);
}
);
width = 562;
}
);
unicode = 240;
},
{
category = Letter;
glyphname = ntilde;
layers = (
{
layerId = "58b1ce0d-85ae-4bf6-adce-557510bd0e95";
name = Fore;
shapes = (
{
closed = 1;
nodes = (
(346,569,o),
(295.5,593,q),
(245,617,o),
(220,617,q),
(187,617,o),
(144,586,q),
(135,580,o),
(133,579,q),
(113,597,l),
(137,627,o),
(173.5,659.5,q),
(210,692,o),
(232.5,692,q),
(255,692,o),
(303.5,670.5,q),
(352,649,o),
(377.5,649,q),
(403,649,o),
(465,686,q),
(484,669,l),
(407,569,o),
(370,569,q)
);
},
{
closed = 1;
nodes = (
(441,492,o),
(480.5,446,q),
(520,400,o),
(520,314,q),
(520,170,l),
(520,75,o),
(550,7,q),
(550,0,l),
(409,0,l),
(409,7,l),
(426,57,o),
(426,140,q),
(426,293,l),
(426,351,o),
(408.5,380.5,q),
(391,410,o),
(338,410,q),
(285,410,o),
(202,359,q),
(202,170,l),
(202,73,o),
(231,7,q),
(231,0,l),
(91,0,l),
(91,7,l),
(108,57,o),
(108,140,q),
(108,310,l),
(108,353,o),
(90.5,394.5,q),
(73,436,o),
(50,450,q),
(49,462,l),
(180,493,l),
(186,483,l),
(194,446,o),
(198,408,q),
(235,437,o),
(255.5,451,q),
(276,465,o),
(308,478.5,q),
(340,492,o),
(369,492,q)
);
}
);
width = 605;
}
);
unicode = 241;
},
{
category = Letter;
glyphname = ograve;
layers = (
{
layerId = "58b1ce0d-85ae-4bf6-adce-557510bd0e95";
name = Fore;
shapes = (
{
closed = 1;
nodes = (
(245,579,o),
(147,674,q),
(172,715,o),
(215,732,q),
(269,636,o),
(357,556,q),
(334,530,l)
);
},
{
closed = 1;
nodes = (
(44,121,o),
(44,228.5,q),
(44,336,o),
(115,414,q),
(186,492,o),
(293.5,492,q),
(401,492,o),
(459.5,427,q),
(518,362,o),
(518,253,q),
(518,144,o),
(447,66,q),
(376,-12,o),
(271,-12,q),
(166,-12,o),
(105,54.5,q)
);
},
{
closed = 1;
nodes = (
(412,327,o),
(381,381,q),
(350,435,o),
(271,435,q),
(220,435,o),
(191,413,q),
(173,390,o),
(161.5,343,q),
(150,296,o),
(150,253,q),
(150,44,o),
(298,44,q),
(344,44,o),
(373,65,q),
(392,88,o),
(402,136,q),
(412,184,o),
(412,228,q)
);
}
);
width = 562;
}
);
unicode = 242;
},
{
category = Letter;
glyphname = oacute;
layers = (
{
layerId = "58b1ce0d-85ae-4bf6-adce-557510bd0e95";
name = Fore;
shapes = (
{
closed = 1;
nodes = (
(334,582,o),
(239,530,q),
(216,556,l),
(304,636,o),
(358,732,q),
(401,715,o),
(426,674,q)
);
},
{
closed = 1;
nodes = (
(44,121,o),
(44,228.5,q),
(44,336,o),
(115,414,q),
(186,492,o),
(293.5,492,q),
(401,492,o),
(459.5,427,q),
(518,362,o),
(518,253,q),
(518,144,o),
(447,66,q),
(376,-12,o),
(271,-12,q),
(166,-12,o),
(105,54.5,q)
);
},
{
closed = 1;
nodes = (
(412,327,o),
(381,381,q),
(350,435,o),
(271,435,q),
(220,435,o),
(191,413,q),
(173,390,o),
(161.5,343,q),
(150,296,o),
(150,253,q),
(150,44,o),
(298,44,q),
(344,44,o),
(373,65,q),
(392,88,o),
(402,136,q),
(412,184,o),
(412,228,q)
);
}
);
width = 562;
}
);
unicode = 243;
},
{
category = Letter;
glyphname = ocircumflex;
layers = (
{
layerId = "58b1ce0d-85ae-4bf6-adce-557510bd0e95";
name = Fore;
shapes = (
{
closed = 1;
nodes = (
(324,729,l),
(345,667,o),
(388,616,q),
(403,598,o),
(433,564,q),
(399,530,l),
(374,550,o),
(335.5,592.5,q),
(297,635,o),
(281,661,q),
(236,599,o),
(177,538,q),
(147,565,l),
(178,600,o),
(191,615,q),
(204,630,o),
(224,660,q),
(244,690,o),
(254,718,q)
);
},
{
closed = 1;
nodes = (
(44,121,o),
(44,228.5,q),
(44,336,o),
(115,414,q),
(186,492,o),
(293.5,492,q),
(401,492,o),
(459.5,427,q),
(518,362,o),
(518,253,q),
(518,144,o),
(447,66,q),
(376,-12,o),
(271,-12,q),
(166,-12,o),
(105,54.5,q)
);
},
{
closed = 1;
nodes = (
(412,327,o),
(381,381,q),
(350,435,o),
(271,435,q),
(220,435,o),
(191,413,q),
(173,390,o),
(161.5,343,q),
(150,296,o),
(150,253,q),
(150,44,o),
(298,44,q),
(344,44,o),
(373,65,q),
(392,88,o),
(402,136,q),
(412,184,o),
(412,228,q)
);
}
);
width = 562;
}
);
unicode = 244;
},
{
category = Letter;
glyphname = otilde;
layers = (
{
layerId = "58b1ce0d-85ae-4bf6-adce-557510bd0e95";
name = Fore;
shapes = (
{
closed = 1;
nodes = (
(333,569,o),
(282.5,593,q),
(232,617,o),
(207,617,q),
(174,617,o),
(130,586,q),
(122,580,o),
(120,579,q),
(100,597,l),
(124,627,o),
(160.5,659.5,q),
(197,692,o),
(219.5,692,q),
(242,692,o),
(290.5,670.5,q),
(339,649,o),
(364.5,649,q),
(390,649,o),
(452,686,q),
(471,669,l),
(394,569,o),
(357,569,q)
);
},
{
closed = 1;
nodes = (
(44,121,o),
(44,228.5,q),
(44,336,o),
(115,414,q),
(186,492,o),
(293.5,492,q),
(401,492,o),
(459.5,427,q),
(518,362,o),
(518,253,q),
(518,144,o),
(447,66,q),
(376,-12,o),
(271,-12,q),
(166,-12,o),
(105,54.5,q)
);
},
{
closed = 1;
nodes = (
(412,327,o),
(381,381,q),
(350,435,o),
(271,435,q),
(220,435,o),
(191,413,q),
(173,390,o),
(161.5,343,q),
(150,296,o),
(150,253,q),
(150,44,o),
(298,44,q),
(344,44,o),
(373,65,q),
(392,88,o),
(402,136,q),
(412,184,o),
(412,228,q)
);
}
);
width = 562;
}
);
unicode = 245;
},
{
category = Letter;
glyphname = odieresis;
layers = (
{
layerId = "58b1ce0d-85ae-4bf6-adce-557510bd0e95";
name = Fore;
shapes = (
{
closed = 1;
nodes = (
(425,679,o),
(428.5,657.5,q),
(432,636,o),
(432,625,q),
(432,614,o),
(431,607,q),
(423,600,l),
(386,588,o),
(350,585,q),
(337,585,l),
(327,588,l),
(312,618,o),
(312,668,q),
(322,676,l),
(360,689,o),
(393,691,q),
(410,691,l),
(418,687,l)
);
},
{
closed = 1;
nodes = (
(223,670,o),
(226.5,648.5,q),
(230,627,o),
(230,616,q),
(230,605,o),
(229,598,q),
(221,591,l),
(184,579,o),
(148,576,q),
(135,576,l),
(125,579,l),
(110,609,o),
(110,658,q),
(120,667,l),
(158,680,o),
(191,682,q),
(208,682,l),
(216,678,l)
);
},
{
closed = 1;
nodes = (
(44,121,o),
(44,228.5,q),
(44,336,o),
(115,414,q),
(186,492,o),
(293.5,492,q),
(401,492,o),
(459.5,427,q),
(518,362,o),
(518,253,q),
(518,144,o),
(447,66,q),
(376,-12,o),
(271,-12,q),
(166,-12,o),
(105,54.5,q)
);
},
{
closed = 1;
nodes = (
(412,327,o),
(381,381,q),
(350,435,o),
(271,435,q),
(220,435,o),
(191,413,q),
(173,390,o),
(161.5,343,q),
(150,296,o),
(150,253,q),
(150,44,o),
(298,44,q),
(344,44,o),
(373,65,q),
(392,88,o),
(402,136,q),
(412,184,o),
(412,228,q)
);
}
);
width = 562;
}
);
unicode = 246;
},
{
category = Letter;
glyphname = divide;
layers = (
{
layerId = "58b1ce0d-85ae-4bf6-adce-557510bd0e95";
name = Fore;
shapes = (
{
closed = 1;
nodes = (
(216,486,o),
(229.5,500,q),
(243,514,o),
(263,514,q),
(283,514,o),
(297,500,q),
(311,486,o),
(311,466,q),
(311,446,o),
(297,432.5,q),
(283,419,o),
(263,419,q),
(243,419,o),
(229.5,432.5,q),
(216,446,o),
(216,466,q)
);
},
{
closed = 1;
nodes = (
(216,197,o),
(229.5,211,q),
(243,225,o),
(263,225,q),
(283,225,o),
(297,211,q),
(311,197,o),
(311,177,q),
(311,157,o),
(297,143.5,q),
(283,130,o),
(263,130,q),
(243,130,o),
(229.5,143.5,q),
(216,157,o),
(216,177,q)
);
},
{
closed = 1;
nodes = (
(525,288,l),
(10,288,l),
(11,355,l),
(526,354,l)
);
}
);
width = 536;
}
);
unicode = 247;
},
{
category = Letter;
glyphname = oslash;
layers = (
{
layerId = "58b1ce0d-85ae-4bf6-adce-557510bd0e95";
name = Fore;
shapes = (
{
closed = 1;
nodes = (
(31,336,o),
(102,414,q),
(173,492,o),
(276,492,q),
(317,492,o),
(360,480,q),
(381,521,o),
(398,564,q),
(460,570,l),
(459,564,l),
(438,532,o),
(398,464,q),
(505,406,o),
(505,250,q),
(505,144,o),
(434,66,q),
(363,-12,o),
(260,-12,q),
(205,-12,o),
(159,7,q),
(144,-24,o),
(126,-67,q),
(53,-81,l),
(54,-75,l),
(76,-45,o),
(121,29,q),
(31,93,o),
(31,230,q)
);
},
{
closed = 1;
nodes = (
(399,344,o),
(358,393,q),
(301,287,o),
(192,75,q),
(228,44,o),
(279.5,44,q),
(331,44,o),
(360,65,q),
(379,88,o),
(389,136,q),
(399,184,o),
(399,228,q)
);
},
{
closed = 1;
nodes = (
(299,435,o),
(253,435,q),
(207,435,o),
(178,413,q),
(160,390,o),
(148.5,343,q),
(137,296,o),
(137,253,q),
(137,160,o),
(166,108,q),
(243,248,o),
(325,412,q),
(328,419,l)
);
}
);
width = 548;
}
);
unicode = 248;
},
{
category = Letter;
glyphname = ugrave;
layers = (
{
layerId = "58b1ce0d-85ae-4bf6-adce-557510bd0e95";
name = Fore;
shapes = (
{
closed = 1;
nodes = (
(249,582,o),
(157,674,q),
(182,715,o),
(225,732,q),
(279,636,o),
(367,556,q),
(344,530,l)
);
},
{
closed = 1;
nodes = (
(152,-11,o),
(118.5,32.5,q),
(85,76,o),
(85,167,q),
(85,310,l),
(85,405,o),
(55,473,q),
(55,480,l),
(194,480,l),
(194,473,l),
(179,420,o),
(179,340,q),
(179,183,l),
(179,123,o),
(194,97,q),
(209,71,o),
(267,71,q),
(325,71,o),
(403,126,q),
(403,310,l),
(403,407,o),
(374,473,q),
(374,480,l),
(512,480,l),
(512,473,l),
(497,420,o),
(497,340,q),
(497,171,l),
(497,127,o),
(512,84.5,q),
(527,42,o),
(547,28,q),
(548,16,l),
(431,-12,l),
(414,34,o),
(407,76,q),
(358,34,o),
(318,11.5,q),
(278,-11,o),
(236,-11,q)
);
}
);
width = 602;
}
);
unicode = 249;
},
{
category = Letter;
glyphname = uacute;
layers = (
{
layerId = "58b1ce0d-85ae-4bf6-adce-557510bd0e95";
name = Fore;
shapes = (
{
closed = 1;
nodes = (
(344,579,o),
(255,530,q),
(232,556,l),
(320,636,o),
(374,732,q),
(417,715,o),
(442,674,q)
);
},
{
closed = 1;
nodes = (
(152,-11,o),
(118.5,32.5,q),
(85,76,o),
(85,167,q),
(85,310,l),
(85,405,o),
(55,473,q),
(55,480,l),
(194,480,l),
(194,473,l),
(179,420,o),
(179,340,q),
(179,183,l),
(179,123,o),
(194,97,q),
(209,71,o),
(267,71,q),
(325,71,o),
(403,126,q),
(403,310,l),
(403,407,o),
(374,473,q),
(374,480,l),
(512,480,l),
(512,473,l),
(497,420,o),
(497,340,q),
(497,171,l),
(497,127,o),
(512,84.5,q),
(527,42,o),
(547,28,q),
(548,16,l),
(431,-12,l),
(414,34,o),
(407,76,q),
(358,34,o),
(318,11.5,q),
(278,-11,o),
(236,-11,q)
);
}
);
width = 602;
}
);
unicode = 250;
},
{
category = Letter;
glyphname = ucircumflex;
layers = (
{
layerId = "58b1ce0d-85ae-4bf6-adce-557510bd0e95";
name = Fore;
shapes = (
{
closed = 1;
nodes = (
(326,729,l),
(347,667,o),
(390,616,q),
(405,598,o),
(435,564,q),
(401,530,l),
(376,550,o),
(337.5,592.5,q),
(299,635,o),
(283,661,q),
(238,599,o),
(179,538,q),
(149,565,l),
(180,600,o),
(193,615,q),
(206,630,o),
(226,660,q),
(246,690,o),
(256,718,q)
);
},
{
closed = 1;
nodes = (
(152,-11,o),
(118.5,32.5,q),
(85,76,o),
(85,167,q),
(85,310,l),
(85,405,o),
(55,473,q),
(55,480,l),
(194,480,l),
(194,473,l),
(179,420,o),
(179,340,q),
(179,183,l),
(179,123,o),
(194,97,q),
(209,71,o),
(267,71,q),
(325,71,o),
(403,126,q),
(403,310,l),
(403,407,o),
(374,473,q),
(374,480,l),
(512,480,l),
(512,473,l),
(497,420,o),
(497,340,q),
(497,171,l),
(497,127,o),
(512,84.5,q),
(527,42,o),
(547,28,q),
(548,16,l),
(431,-12,l),
(414,34,o),
(407,76,q),
(358,34,o),
(318,11.5,q),
(278,-11,o),
(236,-11,q)
);
}
);
width = 602;
}
);
unicode = 251;
},
{
category = Letter;
glyphname = udieresis;
layers = (
{
layerId = "58b1ce0d-85ae-4bf6-adce-557510bd0e95";
name = Fore;
shapes = (
{
closed = 1;
nodes = (
(469,674,o),
(472.5,652.5,q),
(476,631,o),
(476,620,q),
(476,609,o),
(475,602,q),
(467,595,l),
(430,583,o),
(394,580,q),
(381,580,l),
(371,583,l),
(356,613,o),
(356,663,q),
(366,671,l),
(404,684,o),
(437,686,q),
(454,686,l),
(462,682,l)
);
},
{
closed = 1;
nodes = (
(223,665,o),
(226.5,643.5,q),
(230,622,o),
(230,611,q),
(230,600,o),
(229,593,q),
(221,586,l),
(184,574,o),
(148,571,q),
(135,571,l),
(125,574,l),
(110,604,o),
(110,653,q),
(120,662,l),
(158,675,o),
(191,677,q),
(208,677,l),
(216,673,l)
);
},
{
closed = 1;
nodes = (
(152,-11,o),
(118.5,32.5,q),
(85,76,o),
(85,167,q),
(85,310,l),
(85,405,o),
(55,473,q),
(55,480,l),
(194,480,l),
(194,473,l),
(179,420,o),
(179,340,q),
(179,183,l),
(179,123,o),
(194,97,q),
(209,71,o),
(267,71,q),
(325,71,o),
(403,126,q),
(403,310,l),
(403,407,o),
(374,473,q),
(374,480,l),
(512,480,l),
(512,473,l),
(497,420,o),
(497,340,q),
(497,171,l),
(497,127,o),
(512,84.5,q),
(527,42,o),
(547,28,q),
(548,16,l),
(431,-12,l),
(414,34,o),
(407,76,q),
(358,34,o),
(318,11.5,q),
(278,-11,o),
(236,-11,q)
);
}
);
width = 602;
}
);
unicode = 252;
},
{
category = Letter;
glyphname = yacute;
layers = (
{
layerId = "58b1ce0d-85ae-4bf6-adce-557510bd0e95";
name = Fore;
shapes = (
{
closed = 1;
nodes = (
(295,582,o),
(200,530,q),
(177,556,l),
(265,636,o),
(319,732,q),
(362,715,o),
(387,674,q)
);
},
{
closed = 1;
nodes = (
(359,385,o),
(359,440,q),
(359,457,o),
(352,468,q),
(352,480,l),
(459,480,l),
(459,468,l),
(444,455,o),
(296,10,q),
(225,-198,o),
(215,-238,q),
(215,-246,l),
(91,-255,l),
(90,-248,l),
(163,-161,o),
(218,-14,q),
(212,3,o),
(45,398,q),
(25,445,o),
(2,464,q),
(2,476,l),
(136,487,l),
(136,475,l),
(136,449,o),
(160,374.5,q),
(184,300,o),
(263,92,q)
);
}
);
width = 489;
}
);
unicode = 253;
},
{
category = Letter;
glyphname = thorn;
layers = (
{
layerId = "58b1ce0d-85ae-4bf6-adce-557510bd0e95";
name = Fore;
shapes = (
{
closed = 1;
nodes = (
(190,417,l),
(273,491,o),
(355.5,491,q),
(438,491,o),
(490.5,426,q),
(543,361,o),
(543,268,q),
(543,151,o),
(472,70,q),
(401,-11,o),
(304,-11,q),
(267,-11,o),
(197,9,q),
(197,-60,l),
(199,-180,o),
(238,-228,q),
(238,-233,l),
(95,-248,l),
(98,-208,o),
(98,-102,q),
(96,581,l),
(96,661,o),
(50,705,q),
(50,717,l),
(187,741,l),
(193,731,l),
(190,702,o),
(190,648,q)
);
},
{
closed = 1;
nodes = (
(373,54,o),
(394,66,q),
(410,85,o),
(423,141,q),
(436,197,o),
(436,250,q),
(436,417,o),
(335,417,q),
(274,417,o),
(196,363,q),
(196,95,l),
(260,54,o),
(328,54,q)
);
}
);
width = 588;
}
);
unicode = 254;
},
{
category = Letter;
glyphname = ydieresis;
layers = (
{
layerId = "58b1ce0d-85ae-4bf6-adce-557510bd0e95";
name = Fore;
shapes = (
{
closed = 1;
nodes = (
(409,679,o),
(412.5,657.5,q),
(416,636,o),
(416,625,q),
(416,614,o),
(415,607,q),
(407,600,l),
(370,588,o),
(333,585,q),
(321,585,l),
(311,588,l),
(296,618,o),
(296,668,q),
(306,676,l),
(342,689,o),
(377,691,q),
(394,691,l),
(402,687,l)
);
},
{
closed = 1;
nodes = (
(220,670,o),
(223.5,648.5,q),
(227,627,o),
(227,616,q),
(227,605,o),
(226,598,q),
(218,591,l),
(182,579,o),
(145,576,q),
(132,576,l),
(122,579,l),
(107,609,o),
(107,658,q),
(117,667,l),
(155,680,o),
(189,682,q),
(205,682,l),
(213,678,l)
);
},
{
closed = 1;
nodes = (
(359,385,o),
(359,440,q),
(359,457,o),
(352,468,q),
(352,480,l),
(459,480,l),
(459,468,l),
(444,455,o),
(296,10,q),
(225,-198,o),
(215,-238,q),
(215,-246,l),
(91,-255,l),
(90,-248,l),
(163,-161,o),
(218,-14,q),
(212,3,o),
(45,398,q),
(25,445,o),
(2,464,q),
(2,476,l),
(136,487,l),
(136,475,l),
(136,449,o),
(160,374.5,q),
(184,300,o),
(263,92,q)
);
}
);
width = 489;
}
);
unicode = 255;
},
{
category = Letter;
glyphname = hbar;
layers = (
{
layerId = "58b1ce0d-85ae-4bf6-adce-557510bd0e95";
name = Fore;
shapes = (
{
closed = 1;
nodes = (
(21,616,o),
(108,616,q),
(224,616,o),
(340,620,q),
(314,559,l),
(307,559,l),
(231,565,o),
(109,565,q),
(-39,559,l),
(-15,618,l),
(-8,618,l)
);
},
{
closed = 1;
nodes = (
(187,408,l),
(225,437,o),
(245.5,451,q),
(266,465,o),
(298.5,478.5,q),
(331,492,o),
(360,492,q),
(434,492,o),
(474,446,q),
(514,400,o),
(514,314,q),
(514,170,l),
(514,75,o),
(544,7,q),
(544,0,l),
(403,0,l),
(403,7,l),
(420,57,o),
(420,140,q),
(420,293,l),
(420,351,o),
(402.5,380.5,q),
(385,410,o),
(329.5,410,q),
(274,410,o),
(190,359,q),
(190,170,l),
(190,73,o),
(219,7,q),
(219,0,l),
(79,0,l),
(79,7,l),
(96,57,o),
(96,140,q),
(96,587,l),
(96,667,o),
(50,711,q),
(50,723,l),
(184,747,l),
(190,737,l),
(187,708,o),
(187,545,q)
);
}
);
width = 599;
}
);
unicode = 295;
},
{
category = Letter;
glyphname = Itilde;
layers = (
{
layerId = "58b1ce0d-85ae-4bf6-adce-557510bd0e95";
name = Fore;
shapes = (
{
closed = 1;
nodes = (
(226,210,l),
(226,173,o),
(230.5,101.5,q),
(235,30,o),
(241,7,q),
(241,0,l),
(108,0,l),
(108,7,l),
(123,65,o),
(123,220,q),
(123,490,l),
(123,635,o),
(108,693,q),
(108,700,l),
(241,700,l),
(241,693,l),
(235,670,o),
(230.5,594,q),
(226,518,o),
(226,480,q)
);
},
{
closed = 1;
nodes = (
(222,786,o),
(171.5,810,q),
(121,834,o),
(96,834,q),
(63,834,o),
(20,803,q),
(11,797,o),
(9,796,q),
(-11,814,l),
(13,844,o),
(49.5,876.5,q),
(86,909,o),
(108.5,909,q),
(131,909,o),
(179.5,887.5,q),
(228,866,o),
(253.5,866,q),
(279,866,o),
(341,903,q),
(360,886,l),
(283,786,o),
(246,786,q)
);
}
);
width = 349;
}
);
unicode = 296;
},
{
category = Letter;
glyphname = itilde;
layers = (
{
layerId = "58b1ce0d-85ae-4bf6-adce-557510bd0e95";
name = Fore;
shapes = (
{
closed = 1;
nodes = (
(97,333,l),
(97,422,o),
(47,457,q),
(47,469,l),
(188,493,l),
(194,483,l),
(191,454,o),
(191,400,q),
(191,164,l),
(191,64,o),
(216,7,q),
(216,0,l),
(81,0,l),
(81,7,l),
(97,54,o),
(97,139,q)
);
},
{
closed = 1;
nodes = (
(180,569,o),
(129.5,593,q),
(79,617,o),
(54,617,q),
(21,617,o),
(-22,586,q),
(-31,580,o),
(-33,579,q),
(-53,597,l),
(-29,627,o),
(7.5,659.5,q),
(44,692,o),
(66.5,692,q),
(89,692,o),
(137.5,670.5,q),
(186,649,o),
(211.5,649,q),
(237,649,o),
(299,686,q),
(318,669,l),
(241,569,o),
(204,569,q)
);
}
);
width = 265;
}
);
unicode = 297;
},
{
category = Letter;
glyphname = dotlessi;
layers = (
{
layerId = "58b1ce0d-85ae-4bf6-adce-557510bd0e95";
name = Fore;
shapes = (
{
closed = 1;
nodes = (
(97,333,l),
(97,422,o),
(47,457,q),
(47,469,l),
(188,493,l),
(194,483,l),
(191,454,o),
(191,400,q),
(191,164,l),
(191,64,o),
(216,7,q),
(216,0,l),
(81,0,l),
(81,7,l),
(97,54,o),
(97,139,q)
);
}
);
width = 265;
}
);
unicode = 305;
},
{
category = Letter;
glyphname = IJ;
layers = (
{
layerId = "58b1ce0d-85ae-4bf6-adce-557510bd0e95";
name = Fore;
shapes = (
{
closed = 1;
nodes = (
(226,210,l),
(226,173,o),
(230.5,101.5,q),
(235,30,o),
(241,7,q),
(241,0,l),
(108,0,l),
(108,7,l),
(123,65,o),
(123,220,q),
(123,490,l),
(123,635,o),
(108,693,q),
(108,700,l),
(241,700,l),
(241,693,l),
(235,670,o),
(230.5,594,q),
(226,518,o),
(226,480,q)
);
},
{
closed = 1;
nodes = (
(479,490,l),
(479,643,o),
(462,693,q),
(462,700,l),
(597,700,l),
(597,693,l),
(582,645,o),
(582,490,q),
(582,156,l),
(582,73,o),
(564,-14,q),
(555,-54,o),
(513,-121,q),
(503,-137,o),
(477,-161,q),
(447,-189,o),
(372,-247,q),
(336,-213,l),
(350,-204,o),
(382,-174,q),
(442,-120,o),
(460.5,-45,q),
(479,30,o),
(479,199,q)
);
}
);
width = 705;
}
);
unicode = 306;
},
{
category = Letter;
glyphname = ij;
layers = (
{
layerId = "58b1ce0d-85ae-4bf6-adce-557510bd0e95";
name = Fore;
shapes = (
{
closed = 1;
nodes = (
(97,333,l),
(97,422,o),
(47,457,q),
(47,469,l),
(188,493,l),
(194,483,l),
(191,454,o),
(191,400,q),
(191,164,l),
(191,64,o),
(216,7,q),
(216,0,l),
(81,0,l),
(81,7,l),
(97,54,o),
(97,139,q)
);
},
{
closed = 1;
nodes = (
(195,696,o),
(195,650,q),
(195,639,o),
(194,630,q),
(186,623,l),
(146,612,o),
(91,607,q),
(82,611,l),
(67,637,o),
(67,680,q),
(67,685,o),
(67,690,q),
(75,697,l),
(123,713,o),
(167,713,q),
(172,713,o),
(181,708,q)
);
},
{
closed = 1;
nodes = (
(455,694,o),
(455,649,q),
(455,638,o),
(454,629,q),
(446,622,l),
(406,611,o),
(351,606,q),
(342,610,l),
(327,636,o),
(327,679,q),
(327,684,o),
(327,689,q),
(335,696,l),
(383,712,o),
(427,712,q),
(432,712,o),
(441,707,q)
);
},
{
closed = 1;
nodes = (
(451,110,l),
(451,-42,o),
(408,-112,q),
(385,-150,o),
(367,-169.5,q),
(349,-189,o),
(328,-207,q),
(327,-208,o),
(280,-248,q),
(244,-215,l),
(318,-169,o),
(341,-70,q),
(357,-1,o),
(357,149,q),
(357,330,l),
(357,421,o),
(301,457,q),
(301,469,l),
(448,493,l),
(454,483,l),
(451,453,o),
(451,398,q)
);
}
);
width = 516;
}
);
unicode = 307;
},
{
category = Letter;
glyphname = Jcircumflex;
layers = (
{
layerId = "58b1ce0d-85ae-4bf6-adce-557510bd0e95";
name = Fore;
shapes = (
{
closed = 1;
nodes = (
(130,490,l),
(130,643,o),
(113,693,q),
(113,700,l),
(248,700,l),
(248,693,l),
(233,645,o),
(233,490,q),
(233,156,l),
(233,73,o),
(214,-14,q),
(206,-54,o),
(164,-121,q),
(154,-137,o),
(128,-161,q),
(98,-189,o),
(23,-247,q),
(-13,-213,l),
(1,-204,o),
(33,-174,q),
(93,-120,o),
(111.5,-45,q),
(130,30,o),
(130,199,q)
);
},
{
closed = 1;
nodes = (
(216,920,l),
(242,867,o),
(290,822,q),
(308,806,o),
(341,778,q),
(313,747,l),
(242,788,o),
(173,862,q),
(107,796,o),
(45,752,q),
(16,782,l),
(103,858,o),
(136,920,q)
);
}
);
width = 356;
}
);
unicode = 308;
},
{
category = Letter;
glyphname = jcircumflex;
layers = (
{
layerId = "58b1ce0d-85ae-4bf6-adce-557510bd0e95";
name = Fore;
shapes = (
{
closed = 1;
nodes = (
(189,110,l),
(189,-42,o),
(146,-112,q),
(123,-150,o),
(105,-169.5,q),
(87,-189,o),
(66,-207,q),
(65,-208,o),
(18,-248,q),
(-18,-215,l),
(56,-169,o),
(79,-70,q),
(95,-1,o),
(95,149,q),
(95,330,l),
(95,421,o),
(39,457,q),
(39,469,l),
(186,493,l),
(192,483,l),
(189,453,o),
(189,398,q)
);
},
{
closed = 1;
nodes = (
(163,703,l),
(189,650,o),
(238,605,q),
(255,589,o),
(288,561,q),
(260,530,l),
(189,571,o),
(120,645,q),
(54,579,o),
(-8,535,q),
(-37,565,l),
(50,641,o),
(83,703,q)
);
}
);
width = 251;
}
);
unicode = 309;
},
{
category = Letter;
glyphname = kcommaaccent;
layers = (
{
layerId = "58b1ce0d-85ae-4bf6-adce-557510bd0e95";
name = Fore;
shapes = (
{
closed = 1;
nodes = (
(332,-154,o),
(259,-236,q),
(222,-221,l),
(244,-186,o),
(252,-160.5,q),
(260,-135,o),
(260,-104,q),
(260,-73,o),
(243,-43,q),
(245,-37,o),
(248,-34,q),
(269,-22,o),
(307,-22,q),
(312,-22,o),
(315,-23,q),
(322,-30,l),
(332,-56,o),
(332,-83,q)
);
},
{
closed = 1;
nodes = (
(79,0,l),
(79,12,l),
(96,62,o),
(96,170,q),
(96,587,l),
(96,667,o),
(50,711,q),
(50,723,l),
(187,747,l),
(193,737,l),
(190,708,o),
(190,654,q),
(190,302,l),
(360,444,l),
(388,467,o),
(388,480,q),
(503,480,l),
(503,468,l),
(484,466,o),
(409,406,q),
(267,284,l),
(392,150,l),
(461,74,o),
(491,48,q),
(521,22,o),
(549,12,q),
(549,0,l),
(400,0,l),
(400,2,o),
(190,252,q),
(190,170,l),
(190,59,o),
(206,12,q),
(206,0,l)
);
}
);
width = 534;
}
);
unicode = 311;
},
{
category = Letter;
glyphname = kgreenlandic;
layers = (
{
layerId = "58b1ce0d-85ae-4bf6-adce-557510bd0e95";
name = Fore;
shapes = (
{
closed = 1;
nodes = (
(202,303,l),
(371,444,l),
(399,467,o),
(399,480,q),
(514,480,l),
(514,468,l),
(495,466,o),
(420,406,q),
(278,284,l),
(403,150,l),
(472,74,o),
(502,48,q),
(532,22,o),
(560,12,q),
(560,0,l),
(411,0,l),
(411,2,o),
(202,251,q),
(202,170,l),
(202,73,o),
(231,7,q),
(231,0,l),
(91,0,l),
(91,7,l),
(108,57,o),
(108,140,q),
(108,310,l),
(108,353,o),
(90.5,394.5,q),
(73,436,o),
(50,450,q),
(49,462,l),
(180,493,l),
(186,483,l),
(202,405,o),
(202,359,q)
);
}
);
width = 545;
}
);
unicode = 312;
},
{
category = Letter;
glyphname = Ldotaccent;
layers = (
{
layerId = "58b1ce0d-85ae-4bf6-adce-557510bd0e95";
name = Fore;
shapes = (
{
closed = 1;
nodes = (
(108,7,l),
(123,65,o),
(123,210,q),
(123,490,l),
(123,635,o),
(108,693,q),
(108,700,l),
(241,700,l),
(241,693,l),
(235,669,o),
(230.5,596.5,q),
(226,524,o),
(226,487,q),
(226,206,l),
(226,140,o),
(232,63,q),
(254,60,o),
(312,60,q),
(465,60,o),
(536,92,q),
(543,92,l),
(525,0,l),
(108,0,l)
);
},
{
closed = 1;
nodes = (
(444,308,o),
(444,262,q),
(444,250,o),
(443,241,q),
(434,234,l),
(394,222,o),
(336,217,q),
(326,221,l),
(311,249,o),
(311,292,q),
(311,297,o),
(311,302,q),
(320,310,l),
(366,327,o),
(411,327,q),
(415,327,o),
(420,327,q),
(430,322,l)
);
}
);
width = 833;
}
);
unicode = 319;
},
{
category = Letter;
glyphname = ldot;
layers = (
{
layerId = "58b1ce0d-85ae-4bf6-adce-557510bd0e95";
name = Fore;
shapes = (
{
closed = 1;
nodes = (
(394,377,o),
(394,331,q),
(394,319,o),
(393,310,q),
(384,303,l),
(344,291,o),
(286,286,q),
(276,290,l),
(261,318,o),
(261,361,q),
(261,366,o),
(261,371,q),
(270,379,l),
(316,396,o),
(361,396,q),
(365,396,o),
(370,396,q),
(380,391,l)
);
},
{
closed = 1;
nodes = (
(79,0,l),
(79,12,l),
(96,62,o),
(96,170,q),
(96,587,l),
(96,667,o),
(50,711,q),
(50,723,l),
(187,747,l),
(193,737,l),
(190,708,o),
(190,545,q),
(191,170,l),
(191,62,o),
(208,12,q),
(208,0,l)
);
}
);
width = 558;
}
);
unicode = 320;
},
{
category = Letter;
glyphname = Lslash;
layers = (
{
layerId = "58b1ce0d-85ae-4bf6-adce-557510bd0e95";
name = Fore;
shapes = (
{
closed = 1;
nodes = (
(99,7,l),
(114,65,o),
(114,210,q),
(114,326,l),
(27,293,o),
(0,280,q),
(5,344,l),
(73,366,o),
(114,381,q),
(114,490,l),
(114,635,o),
(99,693,q),
(99,700,l),
(232,700,l),
(232,693,l),
(226,669,o),
(221.5,596.5,q),
(217,524,o),
(217,487,q),
(217,420,l),
(289,448,o),
(365,481,q),
(361,419,l),
(314,404,o),
(217,366,q),
(217,206,l),
(217,140,o),
(223,63,q),
(245,60,o),
(303,60,q),
(456,60,o),
(527,92,q),
(534,92,l),
(516,0,l),
(99,0,l)
);
}
);
width = 514;
}
);
unicode = 321;
},
{
category = Letter;
glyphname = lslash;
layers = (
{
layerId = "58b1ce0d-85ae-4bf6-adce-557510bd0e95";
name = Fore;
shapes = (
{
closed = 1;
nodes = (
(7,361,l),
(92,389,o),
(318,478,q),
(315,423,l),
(249,403,o),
(2,304,q)
);
},
{
closed = 1;
nodes = (
(94,0,l),
(94,12,l),
(111,62,o),
(111,170,q),
(111,587,l),
(111,667,o),
(65,711,q),
(65,723,l),
(202,747,l),
(208,737,l),
(205,708,o),
(205,545,q),
(206,170,l),
(206,62,o),
(223,12,q),
(223,0,l)
);
}
);
width = 320;
}
);
unicode = 322;
},
{
category = Letter;
glyphname = Nacute;
layers = (
{
layerId = "58b1ce0d-85ae-4bf6-adce-557510bd0e95";
name = Fore;
shapes = (
{
closed = 1;
nodes = (
(72,0,l),
(72,7,l),
(87,73,o),
(87,239,q),
(87,463,l),
(87,617,o),
(74,693,q),
(74,700,l),
(195,709,l),
(545,165,l),
(545,490,l),
(545,543,o),
(539,605.5,q),
(533,668,o),
(524,693,q),
(524,700,l),
(629,700,l),
(629,693,l),
(614,627,o),
(614,461,q),
(614,210,l),
(614,150,o),
(618.5,81.5,q),
(623,13,o),
(627,0,q),
(533,-10,l),
(155,575,l),
(155,210,l),
(155,77,o),
(173,7,q),
(173,0,l)
);
},
{
closed = 1;
nodes = (
(368,799,o),
(273,747,q),
(250,773,l),
(338,853,o),
(392,949,q),
(435,932,o),
(460,891,q)
);
}
);
width = 710;
}
);
unicode = 323;
},
{
category = Letter;
glyphname = nacute;
layers = (
{
layerId = "58b1ce0d-85ae-4bf6-adce-557510bd0e95";
name = Fore;
shapes = (
{
closed = 1;
nodes = (
(441,492,o),
(480.5,446,q),
(520,400,o),
(520,314,q),
(520,170,l),
(520,75,o),
(550,7,q),
(550,0,l),
(409,0,l),
(409,7,l),
(426,57,o),
(426,140,q),
(426,293,l),
(426,351,o),
(408.5,380.5,q),
(391,410,o),
(338,410,q),
(285,410,o),
(202,359,q),
(202,170,l),
(202,73,o),
(231,7,q),
(231,0,l),
(91,0,l),
(91,7,l),
(108,57,o),
(108,140,q),
(108,310,l),
(108,353,o),
(90.5,394.5,q),
(73,436,o),
(50,450,q),
(49,462,l),
(180,493,l),
(186,483,l),
(194,446,o),
(198,408,q),
(235,437,o),
(255.5,451,q),
(276,465,o),
(308,478.5,q),
(340,492,o),
(369,492,q)
);
},
{
closed = 1;
nodes = (
(315,582,o),
(220,530,q),
(197,556,l),
(285,636,o),
(339,732,q),
(382,715,o),
(407,674,q)
);
}
);
width = 605;
}
);
unicode = 324;
},
{
category = Letter;
glyphname = OE;
layers = (
{
layerId = "58b1ce0d-85ae-4bf6-adce-557510bd0e95";
name = Fore;
shapes = (
{
closed = 1;
nodes = (
(903,643,o),
(816.5,643,q),
(730,643,o),
(707,641,q),
(705,603,o),
(705,395,q),
(944,399,l),
(928,331,l),
(921,331,l),
(853,339,o),
(806,339,q),
(759,339,o),
(705,336,q),
(705,93,o),
(709,63,q),
(732,60,o),
(791,60,q),
(948,60,o),
(1020,92,q),
(1027,92,l),
(1009,0,l),
(584,0,l),
(584,7,l),
(593,41,o),
(597,89,q),
(498,-12,o),
(358.5,-12,q),
(219,-12,o),
(134,88,q),
(49,188,o),
(49,344.5,q),
(49,501,o),
(145.5,607.5,q),
(242,714,o),
(393,714,q),
(513,714,o),
(597,628,q),
(592,676,o),
(588,693,q),
(588,700,l),
(994,703,l),
(969,628,l),
(962,628,l)
);
},
{
closed = 1;
nodes = (
(591,641,o),
(359,641,q),
(325,641,o),
(285.5,632,q),
(246,623,o),
(227,610,q),
(198,574,o),
(180,506.5,q),
(162,439,o),
(162,371,q),
(162,59,o),
(405,59,q),
(474,59,o),
(524,92,q),
(557,128,o),
(574,195.5,q),
(591,263,o),
(591,333,q)
);
}
);
width = 1055;
}
);
unicode = 338;
},
{
category = Letter;
glyphname = oe;
layers = (
{
layerId = "58b1ce0d-85ae-4bf6-adce-557510bd0e95";
name = Fore;
shapes = (
{
closed = 1;
nodes = (
(516,-11,o),
(458,80,q),
(386,-12,o),
(276,-12,q),
(166,-12,o),
(105,54.5,q),
(44,121,o),
(44,228.5,q),
(44,336,o),
(115,414,q),
(186,492,o),
(289,492,q),
(419,492,o),
(478,402,q),
(548,492,o),
(650,492,q),
(829,492,o),
(829,271,q),
(792,235,l),
(526,235,l),
(526,151,o),
(562,109,q),
(598,67,o),
(659,67,q),
(683,67,o),
(727,81.5,q),
(771,96,o),
(805,116,q),
(830,78,l),
(811,59,o),
(747.5,24,q),
(684,-11,o),
(643,-11,q)
);
},
{
closed = 1;
nodes = (
(412,327,o),
(381,381,q),
(350,435,o),
(271,435,q),
(220,435,o),
(191,413,q),
(173,390,o),
(161.5,343,q),
(150,296,o),
(150,253,q),
(150,44,o),
(298,44,q),
(344,44,o),
(373,65,q),
(392,88,o),
(402,136,q),
(412,184,o),
(412,228,q)
);
},
{
closed = 1;
nodes = (
(590,442,o),
(567,423,q),
(548,397,o),
(537,357,q),
(526,317,o),
(526,287,q),
(731,295,l),
(731,442,o),
(632,442,q)
);
}
);
width = 870;
}
);
unicode = 339;
},
{
category = Letter;
glyphname = Racute;
layers = (
{
layerId = "58b1ce0d-85ae-4bf6-adce-557510bd0e95";
name = Fore;
shapes = (
{
closed = 1;
nodes = (
(323,700,l),
(563,700,o),
(563,527,q),
(563,443,o),
(507.5,386.5,q),
(452,330,o),
(360,319,q),
(475,174,l),
(547,83,o),
(583,50,q),
(619,17,o),
(645,10,q),
(645,0,l),
(481,0,l),
(462,31,o),
(421,89,q),
(259,316,l),
(230,318,l),
(230,161,l),
(230,56,o),
(245,7,q),
(245,0,l),
(108,0,l),
(108,7,l),
(127,58,o),
(127,150,q),
(127,538,l),
(127,642,o),
(112,693,q),
(112,700,l),
(112,700,o),
(174,698,q)
);
},
{
closed = 1;
nodes = (
(262,649,o),
(233,645,q),
(230,623,o),
(230,367,q),
(266,363,o),
(299,363,q),
(383,363,o),
(417.5,401.5,q),
(452,440,o),
(452,515.5,q),
(452,591,o),
(420,620,q),
(388,649,o),
(310,649,q)
);
},
{
closed = 1;
nodes = (
(333,799,o),
(238,747,q),
(215,773,l),
(303,853,o),
(357,949,q),
(400,932,o),
(425,891,q)
);
}
);
width = 641;
}
);
unicode = 340;
},
{
category = Letter;
glyphname = Rcommaaccent;
layers = (
{
layerId = "58b1ce0d-85ae-4bf6-adce-557510bd0e95";
name = Fore;
shapes = (
{
closed = 1;
nodes = (
(380,-154,o),
(307,-236,q),
(270,-221,l),
(292,-186,o),
(300,-160.5,q),
(308,-135,o),
(308,-104,q),
(308,-73,o),
(291,-43,q),
(293,-37,o),
(296,-34,q),
(317,-22,o),
(355,-22,q),
(360,-22,o),
(363,-23,q),
(370,-30,l),
(380,-56,o),
(380,-83,q)
);
},
{
closed = 1;
nodes = (
(323,700,l),
(563,700,o),
(563,527,q),
(563,443,o),
(507.5,386.5,q),
(452,330,o),
(360,319,q),
(475,174,l),
(547,83,o),
(583,50,q),
(619,17,o),
(645,10,q),
(645,0,l),
(481,0,l),
(462,31,o),
(421,89,q),
(259,316,l),
(230,318,l),
(230,161,l),
(230,56,o),
(245,7,q),
(245,0,l),
(108,0,l),
(108,7,l),
(127,58,o),
(127,150,q),
(127,538,l),
(127,642,o),
(112,693,q),
(112,700,l),
(174,698,l)
);
},
{
closed = 1;
nodes = (
(262,649,o),
(233,645,q),
(230,623,o),
(230,367,q),
(266,363,o),
(299,363,q),
(383,363,o),
(417.5,401.5,q),
(452,440,o),
(452,515.5,q),
(452,591,o),
(420,620,q),
(388,649,o),
(310,649,q)
);
}
);
width = 641;
}
);
unicode = 342;
},
{
category = Letter;
glyphname = rcommaaccent;
layers = (
{
layerId = "58b1ce0d-85ae-4bf6-adce-557510bd0e95";
name = Fore;
shapes = (
{
closed = 1;
nodes = (
(204,-154,o),
(131,-236,q),
(94,-221,l),
(116,-186,o),
(124,-160.5,q),
(132,-135,o),
(132,-104,q),
(132,-73,o),
(115,-43,q),
(117,-37,o),
(120,-34,q),
(141,-22,o),
(179,-22,q),
(184,-22,o),
(187,-23,q),
(194,-30,l),
(204,-56,o),
(204,-83,q)
);
},
{
closed = 1;
nodes = (
(369,492,o),
(384,485,q),
(384,479,o),
(384,473,q),
(384,414,o),
(366,366,q),
(321,395,o),
(264,395,q),
(233,395,o),
(202,384,q),
(202,170,l),
(202,73,o),
(231,7,q),
(231,0,l),
(91,0,l),
(91,7,l),
(108,57,o),
(108,140,q),
(108,310,l),
(108,353,o),
(90.5,394.5,q),
(73,436,o),
(50,450,q),
(49,462,l),
(167,493,l),
(183,466,o),
(193,430,q),
(253,492,o),
(338,492,q)
);
}
);
width = 377;
}
);
unicode = 343;
},
{
category = Letter;
glyphname = Rcaron;
layers = (
{
layerId = "58b1ce0d-85ae-4bf6-adce-557510bd0e95";
name = Fore;
shapes = (
{
closed = 1;
nodes = (
(323,700,l),
(563,700,o),
(563,527,q),
(563,443,o),
(507.5,386.5,q),
(452,330,o),
(360,319,q),
(475,174,l),
(547,83,o),
(583,50,q),
(619,17,o),
(645,10,q),
(645,0,l),
(481,0,l),
(462,31,o),
(421,89,q),
(259,316,l),
(230,318,l),
(230,161,l),
(230,56,o),
(245,7,q),
(245,0,l),
(108,0,l),
(108,7,l),
(127,58,o),
(127,150,q),
(127,538,l),
(127,642,o),
(112,693,q),
(112,700,l),
(112,700,o),
(174,698,q)
);
},
{
closed = 1;
nodes = (
(262,649,o),
(233,645,q),
(230,623,o),
(230,367,q),
(266,363,o),
(299,363,q),
(383,363,o),
(417.5,401.5,q),
(452,440,o),
(452,515.5,q),
(452,591,o),
(420,620,q),
(388,649,o),
(310,649,q)
);
},
{
closed = 1;
nodes = (
(273,737,l),
(231,822,o),
(162,888,q),
(193,919,l),
(226,893,o),
(262,857.5,q),
(298,822,o),
(318,793,q),
(360,858,o),
(446,919,q),
(478,891,l),
(411,832,o),
(373,747,q)
);
}
);
width = 641;
}
);
unicode = 344;
},
{
category = Letter;
glyphname = rcaron;
layers = (
{
layerId = "58b1ce0d-85ae-4bf6-adce-557510bd0e95";
name = Fore;
shapes = (
{
closed = 1;
nodes = (
(369,492,o),
(384,485,q),
(384,479,o),
(384,473,q),
(384,414,o),
(366,366,q),
(321,395,o),
(264,395,q),
(233,395,o),
(202,384,q),
(202,170,l),
(202,73,o),
(231,7,q),
(231,0,l),
(91,0,l),
(91,7,l),
(108,57,o),
(108,140,q),
(108,310,l),
(108,353,o),
(90.5,394.5,q),
(73,436,o),
(50,450,q),
(49,462,l),
(167,493,l),
(183,466,o),
(193,430,q),
(253,492,o),
(338,492,q)
);
},
{
closed = 1;
nodes = (
(142,520,l),
(100,605,o),
(31,671,q),
(62,702,l),
(95,676,o),
(131,640.5,q),
(167,605,o),
(187,576,q),
(229,641,o),
(315,702,q),
(347,674,l),
(280,615,o),
(242,530,q)
);
}
);
width = 377;
}
);
unicode = 345;
},
{
category = Letter;
glyphname = dotlessj;
layers = (
{
layerId = "58b1ce0d-85ae-4bf6-adce-557510bd0e95";
name = Fore;
shapes = (
{
closed = 1;
nodes = (
(186,110,l),
(186,-42,o),
(143,-112,q),
(120,-150,o),
(102,-169.5,q),
(84,-189,o),
(62,-207,q),
(62,-208,o),
(15,-248,q),
(-21,-215,l),
(53,-169,o),
(76,-70,q),
(92,-1,o),
(92,149,q),
(92,330,l),
(92,421,o),
(36,457,q),
(36,469,l),
(183,493,l),
(189,483,l),
(186,453,o),
(186,398,q)
);
}
);
width = 251;
}
);
unicode = 567;
},
{
category = Letter;
glyphname = circumflex;
layers = (
{
layerId = "58b1ce0d-85ae-4bf6-adce-557510bd0e95";
name = Fore;
shapes = (
{
closed = 1;
nodes = (
(287,703,l),
(313,650,o),
(362,605,q),
(379,589,o),
(412,561,q),
(384,530,l),
(313,571,o),
(244,645,q),
(178,579,o),
(116,535,q),
(87,565,l),
(174,641,o),
(207,703,q)
);
}
);
width = 500;
}
);
unicode = 710;
},
{
category = Letter;
glyphname = caron;
layers = (
{
layerId = "58b1ce0d-85ae-4bf6-adce-557510bd0e95";
name = Fore;
shapes = (
{
closed = 1;
nodes = (
(203,520,l),
(161,605,o),
(92,671,q),
(123,702,l),
(156,676,o),
(192,640.5,q),
(228,605,o),
(248,576,q),
(290,641,o),
(376,702,q),
(408,674,l),
(341,615,o),
(303,530,q)
);
}
);
width = 500;
}
);
unicode = 711;
},
{
category = Letter;
glyphname = ring;
layers = (
{
layerId = "58b1ce0d-85ae-4bf6-adce-557510bd0e95";
name = Fore;
shapes = (
{
closed = 1;
nodes = (
(344,598,o),
(316,570,q),
(286,540,o),
(245,540,q),
(204,540,o),
(178,566.5,q),
(152,593,o),
(152,633.5,q),
(152,674,o),
(181,703,q),
(210,732,o),
(250,732,q),
(292,732,o),
(318,705,q),
(344,678,o),
(344,638,q)
);
},
{
closed = 1;
nodes = (
(276,584,o),
(289,593,q),
(302,606,o),
(302,633,q),
(302,688,o),
(245,688,q),
(222,688,o),
(208,679,q),
(195,666,o),
(195,643,q),
(195,584,o),
(252,584,q)
);
}
);
width = 500;
}
);
unicode = 730;
},
{
category = Letter;
glyphname = tilde;
layers = (
{
layerId = "58b1ce0d-85ae-4bf6-adce-557510bd0e95";
name = Fore;
shapes = (
{
closed = 1;
nodes = (
(297,569,o),
(246.5,593,q),
(196,617,o),
(171,617,q),
(138,617,o),
(94,586,q),
(86,580,o),
(84,579,q),
(64,597,l),
(88,627,o),
(124.5,659.5,q),
(161,692,o),
(183.5,692,q),
(206,692,o),
(254.5,670.5,q),
(303,649,o),
(328.5,649,q),
(354,649,o),
(416,686,q),
(435,669,l),
(358,569,o),
(321,569,q)
);
}
);
width = 500;
}
);
unicode = 732;
},
{
category = Letter;
glyphname = dotaccentcmb;
layers = (
{
layerId = "58b1ce0d-85ae-4bf6-adce-557510bd0e95";
name = Fore;
shapes = (
{
closed = 1;
nodes = (
(316,672,o),
(316,624,q),
(316,613,o),
(315,604,q),
(306,596,l),
(264,585,o),
(209,580,q),
(199,584,l),
(184,612,o),
(184,655,q),
(184,660,o),
(184,665,q),
(193,673,l),
(239,689,o),
(282,689,q),
(287,689,o),
(292,689,q),
(302,684,l)
);
}
);
width = 500;
}
);
unicode = 775;
},
{
category = Letter;
glyphname = endash;
layers = (
{
layerId = "58b1ce0d-85ae-4bf6-adce-557510bd0e95";
name = Fore;
shapes = (
{
closed = 1;
nodes = (
(114,313,o),
(230,313,q),
(428,315,l),
(450,315,o),
(496.5,317,q),
(543,319,o),
(567,319,q),
(537,243,l),
(530,243,l),
(457,252,o),
(244,252,q),
(0,246,l),
(30,323,l),
(37,323,l)
);
}
);
width = 567;
}
);
unicode = 8211;
},
{
category = Letter;
glyphname = emdash;
layers = (
{
layerId = "58b1ce0d-85ae-4bf6-adce-557510bd0e95";
name = Fore;
shapes = (
{
closed = 1;
nodes = (
(116,314,o),
(368,314,q),
(620,314,o),
(722,314.5,q),
(824,315,o),
(870.5,317,q),
(917,319,o),
(941,319,q),
(911,243,l),
(904,243,l),
(831,252,o),
(245,252,q),
(1,246,l),
(31,323,l),
(38,323,l)
);
}
);
width = 942;
}
);
unicode = 8212;
},
{
category = Letter;
glyphname = quoteleft;
layers = (
{
layerId = "58b1ce0d-85ae-4bf6-adce-557510bd0e95";
name = Fore;
shapes = (
{
closed = 1;
nodes = (
(81,559,o),
(85.5,578,q),
(90,597,o),
(97.5,615.5,q),
(105,634,o),
(118,655,q),
(135,684,o),
(165,725,q),
(203,714,l),
(185,682,o),
(176,664,q),
(157,621,o),
(157,578,q),
(157,566,o),
(159,554,q),
(170,525,o),
(210,489,q),
(209,477,l),
(187,458,o),
(177,451.5,q),
(167,445,o),
(160,440,q),
(147,429,o),
(141,428,q),
(128,436,l),
(81,487,o),
(81,538,q)
);
}
);
width = 278;
}
);
unicode = 8216;
},
{
category = Letter;
glyphname = quoteright;
layers = (
{
layerId = "58b1ce0d-85ae-4bf6-adce-557510bd0e95";
name = Fore;
shapes = (
{
closed = 1;
nodes = (
(197,594,o),
(192.5,575,q),
(188,556,o),
(180.5,537.5,q),
(173,519,o),
(160,498,q),
(143,469,o),
(113,428,q),
(75,439,l),
(93,471,o),
(102,490,q),
(121,532,o),
(121,575,q),
(121,587,o),
(119,599,q),
(108,628,o),
(68,664,q),
(69,676,l),
(91,695,o),
(101,701.5,q),
(111,708,o),
(118,713,q),
(131,724,o),
(137,725,q),
(149,718,o),
(150,717,q),
(197,666,o),
(197,615,q)
);
}
);
width = 278;
}
);
unicode = 8217;
},
{
category = Letter;
glyphname = quotesinglbase;
layers = (
{
layerId = "58b1ce0d-85ae-4bf6-adce-557510bd0e95";
name = Fore;
shapes = (
{
closed = 1;
nodes = (
(227,69,o),
(227,19,q),
(227,-75,o),
(117,-189,q),
(65,-165,l),
(99,-115,o),
(113,-77,q),
(127,-39,o),
(127,6.5,q),
(127,52,o),
(97,85,q),
(97,92,o),
(100,96,q),
(144,113,o),
(191,113,q),
(198,113,o),
(203,112,q),
(212,102,o),
(213,101,q)
);
}
);
width = 304;
}
);
unicode = 8218;
},
{
category = Letter;
glyphname = quotedblleft;
layers = (
{
layerId = "58b1ce0d-85ae-4bf6-adce-557510bd0e95";
name = Fore;
shapes = (
{
closed = 1;
nodes = (
(257,474,o),
(257,529,q),
(257,598,o),
(306,682,q),
(318,701,o),
(334,726,q),
(370,718,l),
(353,685,o),
(344.5,648,q),
(336,611,o),
(336,592,q),
(336,573,o),
(341,541,q),
(349,519,o),
(397,476,q),
(396,464,l),
(353,427,o),
(318,415,q),
(306,423,o),
(305,423,q)
);
},
{
closed = 1;
nodes = (
(63,473,o),
(63,529,q),
(63,597,o),
(112,680,q),
(124,700,o),
(140,725,q),
(176,717,l),
(159,684,o),
(150.5,647,q),
(142,610,o),
(142,591,q),
(142,572,o),
(147,540,q),
(155,518,o),
(203,475,q),
(202,463,l),
(159,426,o),
(124,414,q),
(112,421,o),
(111,422,q)
);
}
);
width = 477;
}
);
unicode = 8220;
},
{
category = Letter;
glyphname = quotedblright;
layers = (
{
layerId = "58b1ce0d-85ae-4bf6-adce-557510bd0e95";
name = Fore;
shapes = (
{
closed = 1;
nodes = (
(205,666,o),
(205,611,q),
(205,542,o),
(156,458,q),
(144,439,o),
(128,414,q),
(92,422,l),
(109,455,o),
(117.5,492,q),
(126,529,o),
(126,548,q),
(126,567,o),
(121,599,q),
(113,621,o),
(65,664,q),
(66,676,l),
(109,713,o),
(144,725,q),
(157,718,o),
(157,717,q)
);
},
{
closed = 1;
nodes = (
(399,667,o),
(399,611,q),
(399,543,o),
(350,460,q),
(338,440,o),
(322,415,q),
(286,423,l),
(303,456,o),
(311.5,493,q),
(320,530,o),
(320,549,q),
(320,568,o),
(315,600,q),
(307,622,o),
(259,665,q),
(260,677,l),
(303,714,o),
(338,726,q),
(351,718,l)
);
}
);
width = 477;
}
);
unicode = 8221;
},
{
category = Letter;
glyphname = quotedblbase;
layers = (
{
layerId = "58b1ce0d-85ae-4bf6-adce-557510bd0e95";
name = Fore;
shapes = (
{
closed = 1;
nodes = (
(227,69,o),
(227,19,q),
(227,-75,o),
(117,-189,q),
(65,-165,l),
(99,-115,o),
(113,-77,q),
(127,-39,o),
(127,6.5,q),
(127,52,o),
(97,85,q),
(97,92,o),
(100,96,q),
(144,113,o),
(191,113,q),
(198,113,o),
(203,112,q),
(212,102,o),
(213,101,q)
);
},
{
closed = 1;
nodes = (
(420,69,o),
(420,19,q),
(420,-75,o),
(310,-189,q),
(258,-165,l),
(292,-115,o),
(306,-77,q),
(320,-39,o),
(320,6.5,q),
(320,52,o),
(290,85,q),
(290,92,o),
(293,96,q),
(337,113,o),
(384,113,q),
(391,113,o),
(396,112,q),
(406,102,o),
(406,101,q)
);
}
);
width = 497;
}
);
unicode = 8222;
},
{
category = Letter;
glyphname = bullet;
layers = (
{
layerId = "58b1ce0d-85ae-4bf6-adce-557510bd0e95";
name = Fore;
shapes = (
{
closed = 1;
nodes = (
(374,420,o),
(380.5,375,q),
(387,330,o),
(387,305.5,q),
(387,281,o),
(383,263,q),
(366,248,l),
(335,228,o),
(290,221,q),
(245,214,o),
(225,214,q),
(205,214,o),
(193,216,q),
(173,226,l),
(155,250,o),
(148.5,294.5,q),
(142,339,o),
(142,363.5,q),
(142,388,o),
(145,407,q),
(161,423,l),
(191,440,o),
(236.5,449.5,q),
(282,459,o),
(304,459,q),
(326,459,o),
(339,457,q),
(356,447,l)
);
}
);
width = 530;
}
);
unicode = 8226;
},
{
category = Letter;
glyphname = guilsinglleft;
layers = (
{
layerId = "58b1ce0d-85ae-4bf6-adce-557510bd0e95";
name = Fore;
shapes = (
{
closed = 1;
nodes = (
(57,278,l),
(106,309,o),
(114,316,q),
(263,451,l),
(300,416,l),
(280,393,l),
(163,267,l),
(300,117,l),
(262,80,l),
(221,121,l),
(96,233,l),
(61,263,l)
);
}
);
width = 356;
}
);
unicode = 8249;
},
{
category = Letter;
glyphname = guilsinglright;
layers = (
{
layerId = "58b1ce0d-85ae-4bf6-adce-557510bd0e95";
name = Fore;
shapes = (
{
closed = 1;
nodes = (
(295,263,l),
(260,233,l),
(135,121,l),
(94,80,l),
(56,117,l),
(193,267,l),
(76,393,l),
(56,416,l),
(93,451,l),
(242,316,l),
(250,309,o),
(299,278,q)
);
}
);
width = 356;
}
);
unicode = 8250;
},
{
category = Letter;
glyphname = Euro;
layers = (
{
layerId = "58b1ce0d-85ae-4bf6-adce-557510bd0e95";
name = Fore;
shapes = (
{
closed = 1;
nodes = (
(315,712,o),
(428.5,712,q),
(542,712,o),
(604,680,q),
(603,661,o),
(588.5,629.5,q),
(574,598,o),
(562,580,q),
(475,641,o),
(375,641,q),
(323,641,o),
(299,633,q),
(221,561,o),
(200,451,q),
(395,451,l),
(439,451,o),
(534,458,q),
(511,397,l),
(194,397,l),
(194,378,l),
(194,349,o),
(197,322,q),
(391,322,l),
(436,322,o),
(530,329,q),
(507,268,l),
(207,268,l),
(230,178,o),
(285.5,120.5,q),
(341,63,o),
(423,63,q),
(505,63,o),
(595,116,q),
(620,77,l),
(494,-12,o),
(386,-12,q),
(278,-12,o),
(193,58.5,q),
(108,129,o),
(87,269,q),
(5,269,l),
(28,322,l),
(82,322,l),
(81,332,o),
(81,351,q),
(81,370,o),
(83,398,q),
(15,398,l),
(38,451,l),
(93,451,l),
(124,569,o),
(219.5,640.5,q)
);
}
);
width = 648;
}
);
unicode = 8364;
},
{
category = Letter;
glyphname = acute.cap;
layers = (
{
layerId = "58b1ce0d-85ae-4bf6-adce-557510bd0e95";
name = Fore;
shapes = (
{
closed = 1;
nodes = (
(132,784,l),
(247,821,o),
(334,887,q),
(365,852,o),
(371,806,q),
(256,760,o),
(142,751,q)
);
}
);
width = 500;
}
);
},
{
category = Letter;
glyphname = circumflex.cap;
layers = (
{
layerId = "58b1ce0d-85ae-4bf6-adce-557510bd0e95";
name = Fore;
shapes = (
{
closed = 1;
nodes = (
(289,903,l),
(315,850,o),
(364,805,q),
(381,789,o),
(414,761,q),
(386,730,l),
(315,771,o),
(246,845,q),
(180,779,o),
(118,735,q),
(89,765,l),
(176,841,o),
(209,903,q)
);
}
);
width = 500;
}
);
},
{
category = Letter;
glyphname = dieresis.cap;
layers = (
{
layerId = "58b1ce0d-85ae-4bf6-adce-557510bd0e95";
name = Fore;
shapes = (
{
closed = 1;
nodes = (
(193,838,o),
(196.5,817,q),
(200,796,o),
(200,785,q),
(200,774,o),
(199,768,q),
(191,761,l),
(155,749,o),
(119,746,q),
(107,746,l),
(97,749,l),
(82,779,o),
(82,827,q),
(92,835,l),
(128,848,o),
(162,850,q),
(178,850,l),
(186,846,l)
);
},
{
closed = 1;
nodes = (
(411,847,o),
(414.5,825.5,q),
(418,804,o),
(418,793.5,q),
(418,783,o),
(417,777,q),
(409,770,l),
(373,758,o),
(337,755,q),
(325,755,l),
(315,758,l),
(300,788,o),
(300,836,q),
(310,844,l),
(346,857,o),
(380,859,q),
(396,859,l),
(404,855,l)
);
}
);
width = 500;
}
);
},
{
category = Letter;
glyphname = caron.cap;
layers = (
{
layerId = "58b1ce0d-85ae-4bf6-adce-557510bd0e95";
name = Fore;
shapes = (
{
closed = 1;
nodes = (
(203,730,l),
(160,811,o),
(92,872,q),
(123,903,l),
(203,845,o),
(248,786,q),
(290,845,o),
(376,903,q),
(408,875,l),
(341,820,o),
(303,740,q)
);
}
);
width = 500;
}
);
},
{
category = Letter;
glyphname = ring.cap;
layers = (
{
layerId = "58b1ce0d-85ae-4bf6-adce-557510bd0e95";
name = Fore;
shapes = (
{
closed = 1;
nodes = (
(348,757,o),
(318,728,q),
(287,696,o),
(247.5,696,q),
(208,696,o),
(178.5,724.5,q),
(149,753,o),
(149,794,q),
(149,835,o),
(179,865,q),
(209,895,o),
(251,895,q),
(294,895,o),
(321,867,q),
(348,839,o),
(348,798,q)
);
},
{
closed = 1;
nodes = (
(193,852,o),
(193,804,q),
(193,774,o),
(209,758.5,q),
(225,743,o),
(250.5,743,q),
(276,743,o),
(290,752,q),
(303,765,o),
(303,792.5,q),
(303,820,o),
(287.5,836,q),
(272,852,o),
(242,852,q)
);
}
);
width = 500;
}
);
},
{
category = Letter;
glyphname = tilde.cap;
layers = (
{
layerId = "58b1ce0d-85ae-4bf6-adce-557510bd0e95";
name = Fore;
shapes = (
{
closed = 1;
nodes = (
(297,781,o),
(246.5,805,q),
(196,829,o),
(171.5,829,q),
(147,829,o),
(129,820.5,q),
(111,812,o),
(84,791,q),
(64,809,l),
(88,839,o),
(124.5,871.5,q),
(161,904,o),
(183.5,904,q),
(206,904,o),
(254.5,882.5,q),
(303,861,o),
(324,861,q),
(363,861,o),
(416,898,q),
(435,881,l),
(358,781,o),
(321,781,q)
);
}
);
width = 500;
}
);
},
{
category = Letter;
glyphname = dotaccentcmb.cap;
layers = (
{
layerId = "58b1ce0d-85ae-4bf6-adce-557510bd0e95";
name = Fore;
shapes = (
{
closed = 1;
nodes = (
(316,878,o),
(316,830,q),
(316,819,o),
(315,810,q),
(306,802,l),
(264,791,o),
(209,786,q),
(199,790,l),
(184,818,o),
(184,861,q),
(184,866,o),
(184,871,q),
(193,879,l),
(239,895,o),
(282,895,q),
(287,895,o),
(292,895,q),
(302,890,l)
);
}
);
width = 500;
}
);
},
{
category = Letter;
glyphname = grave.cap;
layers = (
{
layerId = "58b1ce0d-85ae-4bf6-adce-557510bd0e95";
name = Fore;
shapes = (
{
closed = 1;
nodes = (
(345,751,l),
(231,760,o),
(116,806,q),
(122,852,o),
(153,887,q),
(240,821,o),
(355,784,q)
);
}
);
width = 500;
}
);
},
{
category = Letter;
glyphname = commaaccent;
layers = (
{
layerId = "58b1ce0d-85ae-4bf6-adce-557510bd0e95";
name = Fore;
shapes = (
{
closed = 1;
nodes = (
(195,-154,o),
(122,-236,q),
(85,-221,l),
(107,-186,o),
(115,-160.5,q),
(123,-135,o),
(123,-104,q),
(123,-73,o),
(106,-43,q),
(108,-37,o),
(111,-34,q),
(132,-22,o),
(170,-22,q),
(175,-22,o),
(178,-23,q),
(185,-30,l),
(195,-56,o),
(195,-83,q)
);
}
